<svg class="main-svg" xmlns="http://www.w3.org/2000/svg" xmlns:xlink="http://www.w3.org/1999/xlink" width="920" height="560" style="" viewBox="0 0 920 560"><rect x="0" y="0" width="920" height="560" style="fill: rgb(255, 255, 255); fill-opacity: 1;"/><defs id="defs-295966"><g class="clips"><clipPath id="clip295966xyplot" class="plotclip"><rect width="752" height="346"/></clipPath><clipPath class="axesclip" id="clip295966x"><rect x="84" y="0" width="752" height="560"/></clipPath><clipPath class="axesclip" id="clip295966y"><rect x="0" y="118" width="920" height="346"/></clipPath><clipPath class="axesclip" id="clip295966xy"><rect x="84" y="118" width="752" height="346"/></clipPath></g><g class="gradients"/><g class="patterns"/></defs><g class="bglayer"/><g class="layer-below"><g class="imagelayer"/><g class="shapelayer"/></g><g class="cartesianlayer"><g class="subplot xy"><g class="layer-subplot"><g class="shapelayer"/><g class="imagelayer"/></g><g class="minor-gridlayer"><g class="x"/><g class="y"/></g><g class="gridlayer"><g class="x"><path class="xgrid crisp" transform="translate(225.39,0)" d="M0,118v346" style="stroke: rgb(238, 241, 246); stroke-opacity: 1; stroke-width: 1px;"/><path class="xgrid crisp" transform="translate(366.78,0)" d="M0,118v346" style="stroke: rgb(238, 241, 246); stroke-opacity: 1; stroke-width: 1px;"/><path class="xgrid crisp" transform="translate(508.18,0)" d="M0,118v346" style="stroke: rgb(238, 241, 246); stroke-opacity: 1; stroke-width: 1px;"/><path class="xgrid crisp" transform="translate(649.57,0)" d="M0,118v346" style="stroke: rgb(238, 241, 246); stroke-opacity: 1; stroke-width: 1px;"/><path class="xgrid crisp" transform="translate(790.96,0)" d="M0,118v346" style="stroke: rgb(238, 241, 246); stroke-opacity: 1; stroke-width: 1px;"/></g><g class="y"><path class="ygrid crisp" transform="translate(0,425.56)" d="M84,0h752" style="stroke: rgb(238, 241, 246); stroke-opacity: 1; stroke-width: 1px;"/><path class="ygrid crisp" transform="translate(0,387.11)" d="M84,0h752" style="stroke: rgb(238, 241, 246); stroke-opacity: 1; stroke-width: 1px;"/><path class="ygrid crisp" transform="translate(0,348.66999999999996)" d="M84,0h752" style="stroke: rgb(238, 241, 246); stroke-opacity: 1; stroke-width: 1px;"/><path class="ygrid crisp" transform="translate(0,310.22)" d="M84,0h752" style="stroke: rgb(238, 241, 246); stroke-opacity: 1; stroke-width: 1px;"/><path class="ygrid crisp" transform="translate(0,271.78)" d="M84,0h752" style="stroke: rgb(238, 241, 246); stroke-opacity: 1; stroke-width: 1px;"/><path class="ygrid crisp" transform="translate(0,233.32999999999998)" d="M84,0h752" style="stroke: rgb(238, 241, 246); stroke-opacity: 1; stroke-width: 1px;"/><path class="ygrid crisp" transform="translate(0,194.89)" d="M84,0h752" style="stroke: rgb(238, 241, 246); stroke-opacity: 1; stroke-width: 1px;"/><path class="ygrid crisp" transform="translate(0,156.44)" d="M84,0h752" style="stroke: rgb(238, 241, 246); stroke-opacity: 1; stroke-width: 1px;"/></g></g><g class="zerolinelayer"/><g class="layer-between"><g class="shapelayer"/><g class="imagelayer"/></g><path class="xlines-below"/><path class="ylines-below"/><g class="overlines-below"/><g class="xaxislayer-below"/><g class="yaxislayer-below"/><g class="overaxes-below"/><g class="overplot"><g class="xy" transform="translate(84,118)" clip-path="url(#clip295966xyplot)"><g class="scatterlayer mlayer"><g class="trace scatter trace6f9ca2" style="stroke-miterlimit: 2; opacity: 1;"><g class="fills"/><g class="errorbars"/><g class="lines"><path class="js-line" d="M0.03,17.92L1.42,130.82L1.7,147.06L3.36,189.3L3.64,191.85L4.2,197.81L4.48,197.13L4.75,205.32L5.03,204.67L5.31,200.48L6.42,216.98L6.7,219.38L7.26,220.95L7.53,223.96L7.81,224.29L8.09,229.51L8.92,232.12L9.2,230.99L10.59,243.82L10.87,240.49L11.98,247.74L12.26,253.04L12.54,250.95L13.09,252.25L13.37,256.98L13.65,254.46L13.93,258.84L14.21,261.37L14.48,257.78L14.76,260L15.04,260.31L15.87,268.93L16.15,263.42L17.54,270.2L17.82,274.29L18.1,267.8L18.65,272.03L18.93,275.96L19.21,276.63L19.49,276.18L19.77,274.45L20.32,269.44L20.6,275.26L21.15,279.19L21.43,274.44L21.71,276.79L21.99,269.11L22.82,280.33L23.1,279.61L23.38,278.07L23.93,275.63L24.21,278.81L24.77,282.33L25.05,275.38L26.44,287.07L26.71,284.46L26.99,282.92L27.27,282.5L27.55,284.09L27.83,283.43L28.1,284.5L28.38,285.39L28.66,285.11L28.94,283.11L29.22,282.92L29.49,284.46L29.77,282.39L30.05,286.31L30.88,285.2L31.16,286.81L31.44,283.47L31.72,288.56L32,286.8L32.55,287.06L33.11,283.31L33.39,290L33.94,286.54L34.22,287.24L34.5,288.85L34.78,288.25L35.05,293.14L35.89,286.56L36.17,287.39L36.44,287.93L36.72,286.13L37,288.95L37.28,288.48L38.11,286.5L38.39,290.02L38.95,291.83L39.22,288.81L39.78,287.56L40.06,289.29L40.34,288.71L40.61,294.83L40.89,287.77L41.45,289.32L41.73,290.92L42,290.33L42.28,293.72L42.56,293.59L42.84,288.15L43.39,289.69L43.67,289.23L43.95,294.3L45.06,287.79L45.34,290.54L45.62,292.86L45.9,290.08L46.17,291.29L46.45,292.29L46.73,290.19L47.29,290.36L47.56,292.28L47.84,294.13L48.12,290.71L48.4,289.66L48.68,292.42L48.95,290.4L49.23,295.41L49.51,296.94L49.79,292.28L50.07,293.16L50.34,289.32L51.18,298.19L51.46,296.4L51.73,292.89L52.01,292.68L52.29,294.24L52.57,292.71L52.85,296.58L53.12,297.35L53.4,293.29L53.68,292.23L53.96,294.95L54.24,295.14L54.51,293.82L54.79,297.11L55.35,294.85L55.63,297.59L55.9,293.41L56.18,295.9L56.46,298.78L57.57,291.55L57.85,293.63L58.13,294.32L58.41,298.65L59.24,293.2L59.52,293.99L60.35,297.45L60.63,291.57L61.74,300L62.02,299.14L63.13,293.42L63.41,295.23L63.69,296.01L64.24,295.65L64.52,293.88L65.08,296.75L65.36,300.69L65.91,297.78L66.19,293.3L67.3,300.23L67.58,295.48L67.86,294.51L68.14,295.43L68.41,297.19L68.69,297.11L68.97,301.46L69.53,296.68L69.8,297.53L70.08,300.45L70.36,296.23L70.64,297.63L70.91,299.64L71.75,295.42L72.03,297.99L72.3,300.27L72.86,299.62L73.14,298.44L73.42,294.74L73.69,298.56L73.97,298.69L74.25,301.08L74.53,299.91L74.81,298.68L75.08,299.55L75.36,296.41L76.47,301.47L76.75,300.18L77.03,295.36L77.31,299.01L77.59,300.13L77.86,303.97L78.14,300.24L78.42,299.31L78.7,297.09L78.98,298.2L79.25,301.44L79.53,300.8L79.81,301.24L80.09,298.34L80.37,298.41L80.64,301.06L80.92,298.19L81.2,300.98L81.48,302.99L82.31,296.2L82.59,298.72L82.87,298.84L83.15,304L83.7,297.01L84.26,297.37L84.54,299.87L85.09,303.34L85.37,300.13L85.93,295.12L86.2,299.76L86.48,299.81L86.76,302.34L87.04,295.56L87.32,298.6L87.59,301.88L87.87,299.58L88.15,300.11L88.43,303.32L88.71,306.95L88.98,299.99L89.26,302.1L89.54,297.84L89.82,298.35L90.1,301.09L90.37,303.45L90.65,287.12L90.93,300.63L91.49,297.45L91.76,300.48L92.04,307.24L92.32,298.95L92.6,298.63L92.88,298.4L93.15,302.25L93.71,307.72L93.99,300.33L94.27,300.82L94.54,299.57L94.82,298L95.1,300.7L95.38,303.95L95.66,306.17L95.93,301.06L96.21,298.95L96.77,299.8L97.05,301.23L97.32,304.87L97.6,297.84L98.71,304.01L98.99,307.4L100.1,298.39L100.38,303.37L100.66,302.49L100.94,306.89L101.77,300.51L102.05,302.31L102.33,298.18L102.61,305.76L102.88,305.7L103.16,304.08L103.44,296.35L103.72,299.4L104,302.02L104.27,307.51L104.55,305.29L104.83,299.93L105.39,299.18L105.66,302.62L105.94,299.7L106.22,306.62L106.5,303.12L106.78,299.71L108.17,307.97L108.44,300.95L109,299.14L109.28,299.82L109.56,300.12L109.83,309.78L110.39,303.46L110.67,303.2L110.95,301.58L111.22,303.06L111.5,303.03L111.78,306.09L112.06,302.55L112.34,303.1L112.61,303.29L112.89,300.54L113.73,309.2L114,302.79L114.28,301.16L114.56,302.64L114.84,304.37L115.39,309.5L115.67,302.82L115.95,302.91L116.23,304.16L116.51,306.19L116.78,302.42L117.06,307.04L117.34,306.95L117.62,301.97L118.17,301.66L118.45,303.33L118.73,301.98L119.01,307.97L119.56,302.77L119.84,304.2L120.12,304.24L120.4,301.46L120.67,307.86L120.95,307.36L121.23,304.45L121.51,302.6L122.06,303.14L122.34,305.66L122.62,309.26L122.9,303.64L123.18,301.69L123.45,301.85L123.73,302.91L124.29,309.78L124.57,301.58L125.12,301.28L125.68,303.59L125.96,310.31L127.07,300.39L127.35,305.18L127.62,303.42L127.9,309.68L128.46,303.36L129.01,304.02L129.29,303.14L129.85,309.97L130.13,304.98L130.68,297.38L130.96,304.06L131.24,305.13L131.52,309.77L132.63,302.3L132.91,305.1L133.18,310.8L133.46,304.77L133.74,303.77L134.02,303.47L134.3,304.17L134.57,301.93L134.85,311.27L135.41,307.34L135.69,302.34L135.96,302.48L136.24,304.99L136.8,312.4L137.08,303.76L137.35,306.82L137.63,301.05L138.47,311.5L138.74,308.83L139.02,304.08L139.3,304.56L139.58,302.48L140.13,311.99L140.41,310.05L140.69,304.44L140.97,301.42L141.25,305.4L141.52,305.48L141.8,303.8L142.08,309.17L143.19,303.11L143.47,305.86L144.03,308.79L144.3,305.83L144.58,303.07L144.86,305.13L145.14,307.44L145.69,308.67L145.97,305.81L146.25,305.3L146.53,305.78L146.81,306.5L147.08,306.39L147.36,310L148.2,305.73L148.47,303.29L149.31,308.99L149.59,301.89L150.14,304.02L150.42,308.45L151.25,304.84L151.53,306.8L151.81,302.44L152.37,304.82L152.64,311.08L152.92,311.54L153.2,305.48L153.48,301.57L154.03,303.61L154.31,308.13L154.59,310.76L154.87,304.06L155.15,303.93L155.42,305.25L155.98,306.29L156.26,309.79L156.54,311.26L156.81,305.63L157.09,305.52L157.37,302.44L158.2,309.57L158.48,307.5L158.76,307.14L159.04,303.13L159.32,304.24L159.59,306.98L159.87,309.96L160.15,305.71L160.43,308.01L160.71,305.09L160.98,304.07L161.26,304.21L161.54,309.81L161.82,308.95L162.1,300.59L162.37,306.34L162.93,305.2L163.21,307.43L163.49,314.38L163.76,303.54L164.04,305.83L164.32,306.48L164.6,304.64L165.15,306.15L165.43,312.42L166.54,305.83L166.82,311.13L167.1,313.6L167.38,305.74L167.66,303.84L167.93,307.12L168.21,305.35L168.49,304.49L168.77,309.69L169.6,304.64L169.88,306.71L170.16,305.83L170.43,308.76L170.71,310.39L170.99,308.51L171.27,303.13L172.1,306.87L172.38,309.79L172.94,302.63L173.49,304.72L173.77,306.94L174.05,312.74L174.33,310.85L174.6,304.17L175.16,307.46L175.44,305.76L175.72,304.81L175.99,310.91L176.27,305.98L176.55,304.62L176.83,304.75L177.11,307.6L177.38,305.51L177.66,311.63L178.77,302.06L179.05,304.45L179.33,311.06L179.61,304.28L179.89,306.55L180.16,305.41L180.44,307.55L181,309.26L181.28,313.98L181.55,305.42L182.11,306.73L182.39,305.31L182.94,313.02L183.22,311.31L183.5,306.77L183.78,302.5L184.06,307.8L184.33,308.77L184.61,310.43L184.89,309.56L185.17,306.61L185.45,306.99L185.72,305.69L186.28,306.62L186.56,311.39L187.39,304.87L187.67,305.72L188.5,313L188.78,306.09L189.34,306.7L189.62,306L189.89,304.84L190.17,310.36L190.45,307.07L190.73,310.46L191.01,310.37L191.28,307.05L191.56,308.9L191.84,311.43L192.12,314.42L192.4,306.15L192.95,304.19L193.23,306.48L193.51,305.84L193.79,313.29L194.62,301.6L194.9,307.63L195.45,312.61L195.73,304.56L196.29,305.41L196.57,301.65L197.4,312.66L197.68,308.48L197.96,304.41L198.51,306.57L198.79,307.81L199.07,312.59L199.35,305.34L199.62,306.7L199.9,303.17L200.18,307.73L200.46,306.71L200.74,313.38L201.01,307.09L201.29,305.95L201.57,304.25L201.85,306.52L202.13,307.75L202.68,312.47L202.96,306.73L203.24,303.32L203.52,305.86L203.79,306.94L204.35,314.71L204.63,309L204.91,304.77L205.46,306.91L205.74,306.27L206.02,312.04L206.57,308.03L206.85,305.93L207.96,315.21L208.24,307.15L208.52,306.1L208.8,301.63L209.63,315.03L209.91,310.45L210.19,304.9L210.47,304.45L210.74,309.05L211.02,307.79L211.3,314.39L211.58,306.07L212.13,306.31L212.41,304.13L213.25,314.1L213.52,307.69L213.8,305.01L214.36,306.41L214.64,309.27L214.91,315.66L215.19,303.52L216.58,313.39L216.86,309.42L217.14,304.33L217.69,306.92L217.97,303.41L218.53,314.53L218.81,308.11L219.08,306.05L219.64,306.69L219.92,314.37L220.2,315.85L220.47,304.7L220.75,303.78L221.03,307.15L221.86,312.14L222.14,308.25L222.7,304.44L222.97,306.03L223.25,306.83L223.53,310.78L223.81,307.81L224.09,302.41L224.36,303.11L224.64,307.59L224.92,308.32L225.2,312.97L226.03,306.14L226.31,307.04L226.59,310.14L226.87,313.71L227.14,313.64L227.42,307.11L227.98,306.3L228.26,309.42L228.53,315.12L228.81,312.81L229.09,309.56L229.37,307.18L229.65,309.39L229.92,309.63L230.2,310.15L230.48,313.56L231.31,306.67L231.59,312.3L233.26,301.28L233.54,308.91L234.37,304.12L234.65,308.81L234.93,309.95L235.21,306.87L235.48,305.75L235.76,306.75L236.04,307.82L236.32,306.68L236.6,308.01L236.87,309.24L237.15,305.73L237.43,310.03L237.71,308.87L237.99,306.97L238.26,307.28L238.54,308.99L239.1,307.01L239.38,308.5L239.65,308.52L239.93,305.8L240.21,307.27L240.49,307.91L240.77,310.54L241.04,308.37L241.32,308.2L241.6,305.17L241.88,307.44L242.16,309.05L242.71,308.66L242.99,311.16L243.82,305.87L244.1,306.43L244.38,309.75L244.66,307.78L244.94,310.66L245.21,309.55L245.49,306.07L245.77,307.23L246.05,310.8L246.33,302.82L246.88,305.99L247.16,308.78L247.99,313.23L248.27,308.13L248.55,313.06L248.83,308.81L249.11,309.17L249.94,304.15L250.22,311.09L251.05,304.13L251.33,306.78L251.61,311.35L251.89,309.22L252.16,303.78L252.44,310.27L253,308.03L253.28,309.42L253.55,306.4L253.83,310.05L254.11,308.38L254.39,308.66L254.67,305.85L254.94,307.94L255.22,308.53L256.06,305.57L256.33,306.9L256.61,308.95L256.89,310.96L257.17,306.63L257.45,307.7L257.72,304.45L258.28,309.14L258.56,306.2L258.84,305.74L259.11,308.84L259.67,306.76L259.95,306.49L261.06,309.54L261.34,308.19L261.62,309.33L261.89,308.6L262.17,306.98L262.45,309.12L263.01,308.11L263.28,308.24L263.56,309.23L263.84,305.76L264.12,305.37L264.4,309.67L264.67,305.07L265.23,306.98L265.51,306.01L266.06,310.08L266.34,307.74L266.62,307.36L267.45,309.82L267.73,306.32L268.01,306.83L268.29,310.07L268.57,308.18L268.84,310.76L269.12,308.78L269.4,311.7L270.51,304.61L270.79,305.5L271.07,306.86L271.34,309.78L271.9,308.19L272.18,309.03L273.01,306.35L273.29,309.78L273.57,313.66L273.85,309.11L274.12,305.95L275.24,310.45L275.51,309.65L276.07,307.66L276.35,310.23L276.63,307.79L276.9,308.55L277.18,310.77L278.02,307.23L278.29,310.81L278.85,306.91L279.13,310.33L279.41,310.92L279.68,308.68L280.52,310.58L280.8,308.08L281.07,308.49L281.35,306.29L282.46,309.68L282.74,306.78L283.02,309.58L283.58,307.79L283.85,306.29L284.69,311.34L284.97,308.68L285.24,311.16L285.52,308.43L285.8,309.41L286.08,309.57L286.63,306.25L286.91,308.47L287.19,311.47L288.3,307.49L288.58,311.88L288.86,311.63L289.14,308.17L289.69,307.92L289.97,311.71L290.25,311.22L290.53,309.31L290.8,309.05L291.08,307.32L291.36,309.47L291.64,307.13L291.92,307.14L292.19,307.27L292.47,310.36L293.03,307.77L293.31,311.83L294.14,306.17L294.42,308.98L294.97,309.57L295.25,310.21L295.53,310.11L295.81,307.32L296.09,306.65L296.36,314.33L296.64,306.21L297.2,308.48L297.48,310.19L298.87,307.21L299.14,310.46L299.42,307.8L299.98,308.97L300.26,309.49L300.81,310.45L301.09,310.24L301.37,305.34L301.65,310.97L302.2,307.06L302.48,309.78L303.04,309.63L303.31,309.02L303.59,312.45L303.87,308.16L304.15,309.39L304.43,311.73L304.7,308.08L304.98,307.54L305.82,311.13L306.09,307.34L306.37,306.78L306.65,308.88L307.21,312.04L307.48,304.61L308.04,313.52L308.6,311.13L308.87,306.1L309.71,312.28L309.99,308.29L310.26,307.82L310.54,309.75L310.82,311.47L311.1,310.36L311.38,307.41L312.21,310.73L312.49,308.46L312.77,307.28L313.04,307.79L313.32,310.35L314.16,308.23L314.43,308.65L314.71,310.06L314.99,311.09L315.27,307.38L315.55,306.52L315.82,307.23L316.1,309.74L316.38,310.07L316.66,306.27L316.94,310.03L317.49,309.79L317.77,309.42L318.05,307.19L318.33,309.51L318.6,308.43L318.88,309.48L319.16,308.05L319.44,308.49L319.72,310.97L320.55,307.77L320.83,309.66L321.1,305.77L321.38,311.55L321.66,313.12L321.94,308.24L322.49,309.99L322.77,314.49L323.61,303.69L323.88,313.35L324.72,307.9L325,307.94L325.27,307.77L325.83,310.3L326.11,307.72L326.39,312.07L326.94,310.13L327.22,306.71L327.5,306.71L327.78,310.1L328.05,312.07L328.33,310.4L328.61,308.81L328.89,309.04L329.17,306.62L329.44,312.47L330,308.69L330.28,309.31L330.83,305.13L331.11,311.01L331.39,304.18L331.67,310.66L331.95,309.76L332.22,311.73L332.5,307.56L332.78,307.58L333.06,308.57L333.61,311.13L333.89,309.47L334.17,308.48L334.45,308.79L334.73,309.67L335,306.42L335.28,312.2L336.12,309.36L336.39,309.23L336.67,309.01L336.95,311.92L337.23,306.94L337.78,309.41L338.06,307.52L338.34,305.09L338.62,308.03L338.9,312.8L340.01,307.49L340.29,310.59L340.56,308.67L341.12,309.41L341.4,311.1L341.68,310.82L341.95,308.45L342.79,311.92L343.07,311.23L343.34,303.86L344.18,314.23L344.46,310.9L345.01,306.99L345.29,309.06L345.57,309.98L346.68,306.23L346.96,311.19L347.24,312.57L347.51,310.22L347.79,308.96L348.63,310.83L348.9,306.42L349.74,311.66L350.02,311.54L350.29,309.36L350.57,311.63L350.85,310.29L351.13,309.89L351.41,308.94L351.68,309.22L351.96,311.39L352.8,309.09L353.07,310.43L353.63,305.73L353.91,309.64L354.74,308.02L355.02,308.88L355.3,311.57L355.58,307.37L356.13,308.33L356.41,314.65L356.69,308.33L357.24,308.54L357.52,308.53L358.08,312.59L358.36,309.6L358.63,307.12L359.47,312.03L359.75,310.42L360.02,310.03L360.3,312.23L360.58,314.87L360.86,310.99L361.14,308.86L362.25,313.04L362.53,308.26L363.36,311.15L363.64,309.23L363.92,307.28L364.19,310.79L364.47,308.15L364.75,312.54L365.03,309.07L365.31,311.06L365.86,309.09L366.14,310.59L366.42,310.17L366.97,310.54L367.25,308.29L367.53,312.8L367.81,312.4L368.09,307.69L368.64,312.45L368.92,311.56L369.2,308.96L369.48,308.82L369.75,311.94L370.03,307.73L370.31,313.1L370.59,310.55L370.86,310.8L371.14,310.79L371.42,311.74L371.98,309.7L372.25,310.02L372.53,310.49L373.09,312.55L373.37,312.01L373.64,311.55L373.92,308.63L374.2,310.39L374.48,315.8L375.03,309.48L375.31,309.8L375.59,314.04L375.87,309.6L376.42,310.28L376.7,313.94L376.98,310.36L377.54,312.12L377.81,309.9L378.09,310.13L378.37,313.54L379.48,305.28L379.76,309.38L380.32,309.01L380.59,312.31L380.87,311.6L381.15,307.8L381.43,307.65L381.71,310.82L382.26,312.34L382.54,306.65L383.65,311.57L383.93,313.34L385.04,308.8L385.32,308.61L386.43,312.18L386.71,309.76L387.27,313.65L387.54,306.94L388.66,313.07L388.93,308.37L389.49,313.87L389.77,312.06L390.05,311.72L390.32,311.74L390.6,309.82L390.88,311.93L391.16,305.5L391.44,312.25L391.99,311.94L392.27,311.55L392.55,313.88L392.83,310.84L393.1,307.86L393.94,314.04L394.22,309.7L394.49,310.05L394.77,309.65L395.05,313.02L395.61,309.32L395.88,310.3L396.16,311.07L396.72,312.16L397,308.44L397.27,308.79L397.55,312.17L397.83,312.18L398.11,309.97L398.39,308.75L398.66,310.05L398.94,309.83L399.22,313.08L399.78,311.24L400.05,312.66L401.17,308.07L401.44,310.5L402,310.61L402.28,309.47L403.11,312.16L403.39,310.57L403.95,308.67L404.22,310.92L404.5,312.07L404.78,309.66L405.89,313.29L406.17,313.38L406.73,310.63L407,312.47L407.28,311.1L407.56,306L407.84,306.77L408.12,312.51L408.39,309.38L408.95,309.65L409.23,308.66L410.06,313.12L410.34,308.45L411.45,314.89L411.73,307.75L412.01,306.58L412.29,313.85L412.56,313.96L412.84,311.37L413.12,308.1L413.4,311.14L413.68,311.82L413.95,313.18L414.23,311.08L414.51,309.01L415.62,311.95L415.9,310.62L416.46,310.1L416.73,312.13L417.01,309.37L417.29,311.31L417.57,311.72L417.85,313.25L418.12,311.19L418.4,311.71L419.24,303.92L419.51,312.34L419.79,309.6L420.35,310.79L420.63,310.02L420.9,311.76L421.18,310.14L421.46,309.3L422.29,312.09L422.57,309.21L422.85,310.69L423.13,307.78L423.68,311.34L424.24,310.63L424.52,309.67L425.07,314.06L425.35,312.08L425.63,312.16L425.91,312.62L426.18,310.8L426.46,313.87L427.02,312.22L427.3,313.77L428.41,310.21L428.69,310.49L428.96,311.47L429.24,309.66L429.8,309.9L430.08,310.24L430.35,310.87L430.63,309.35L430.91,308.69L431.19,311.76L431.47,313.83L431.74,311.48L432.02,310.71L432.3,310.4L432.58,312.35L433.13,312.75L433.41,310.29L433.69,314.7L434.25,313.01L434.52,311.65L434.8,309.15L435.08,313.09L435.36,313.21L435.91,310.38L436.19,311.28L436.47,313.92L436.75,309.89L437.3,310.85L437.58,310.22L437.86,313.44L438.14,310.1L438.42,312.6L438.69,311.03L438.97,311.77L439.25,311.2L439.53,310.58L439.81,309.39L440.08,311.33L440.36,310.75L441.2,314.22L441.47,313.98L441.75,313.03L442.03,310.33L442.31,311.14L442.59,314.46L442.86,308.64L443.42,312.6L443.7,312.19L443.98,309.65L444.25,312.78L444.53,310.82L444.81,311.58L445.64,308.76L445.92,310.16L446.48,313.98L446.76,310.1L447.03,307.71L447.31,309.71L447.59,311.06L447.87,312.71L448.15,310.6L448.42,312.06L448.7,312.88L449.26,310.44L449.54,310.81L449.81,310.48L450.37,312.89L450.65,311.14L450.93,309.8L451.2,309.27L451.48,311.81L451.76,311.69L452.04,309.79L452.32,312.29L452.59,308.66L452.87,311.07L453.15,309.39L453.98,313.37L454.26,311.46L454.54,312.1L454.82,309.75L455.1,310.81L455.37,313.15L455.93,309.63L456.21,312.45L457.04,311.61L457.32,312.49L457.6,309.79L458.15,310.29L458.43,312.1L458.71,312.64L458.99,308.79L459.27,312.14L459.82,312L460.1,312.13L460.38,312.55L460.66,311.38L460.93,310.85L461.21,312.67L461.77,309.15L462.05,315.7L462.32,310.04L462.88,311.07L463.16,311.95L463.99,308.95L464.27,312.18L464.55,314.21L464.83,310.64L465.38,311.82L465.66,311.09L465.94,311.24L466.22,309.67L466.49,315.03L466.77,313.06L467.05,310.91L467.33,311.29L467.61,310.39L468.16,309.77L468.44,311.48L468.72,310.85L469,314.52L469.27,312.84L469.55,310.37L469.83,304.46L470.11,312.85L470.39,313.05L471.5,308.22L471.77,310.44L472.05,309.58L472.33,311.1L472.61,311.47L473.16,313.58L473.44,312.99L473.72,311.28L474.55,313.77L474.83,308.86L475.39,314.61L475.67,314.14L475.94,312L477.06,314.51L477.33,308.83L477.61,314.01L478.17,313.8L478.45,311.93L479.56,306.94L479.84,310.49L480.11,309.63L480.39,312.61L480.67,312.93L480.95,311.37L481.23,312.44L481.5,309.5L482.34,314.3L482.62,311.78L483.17,314.73L483.45,309.95L484.01,314.71L484.28,311.48L484.56,312.67L484.84,312.48L485.12,309.73L486.23,313.46L486.51,311.21L487.62,313.89L487.9,313.05L488.18,310.22L488.73,309.8L489.01,313.82L489.29,311.59L489.57,309.95L489.84,312.41L490.12,314.35L490.68,314.47L490.96,310.44L492.07,313.35L492.35,310.32L492.62,309.57L492.9,309.7L493.18,310.51L493.46,312.17L493.74,312.05L494.01,310.32L494.29,314.73L494.57,313.72L494.85,310.32L495.13,312.73L495.68,312.28L495.96,311.25L496.24,309.42L496.52,312.11L496.79,312.56L497.35,311.15L497.63,311.96L497.91,313.65L498.46,308.21L498.74,310.74L499.02,310.24L499.3,308.84L499.57,312.22L499.85,313.95L500.13,312.02L500.41,310.65L501.24,313.06L501.52,310.49L502.35,312.9L502.63,310.92L502.91,312.2L503.19,311.62L503.47,310.21L504.3,313.97L504.58,308.43L505.41,314.13L505.69,312.58L505.97,309.59L506.25,312.85L506.8,311.49L507.08,313.02L507.64,310.78L507.91,313.03L508.19,313.33L508.47,308.76L509.03,313.84L509.58,313.7L509.86,312.38L510.14,310.75L510.69,311.24L510.97,313.15L511.25,310.64L511.81,311.75L512.08,311.42L512.36,311.93L512.64,310.19L512.92,313L513.47,311.32L513.75,312.28L514.31,314.56L514.59,311.21L515.14,310.96L515.42,313.12L515.98,312.08L516.25,314.05L516.53,311.39L516.81,315.59L517.09,312.39L517.37,313.35L517.92,313.26L518.2,316.22L518.48,313.55L518.76,313.57L519.03,308.07L519.87,312.86L520.15,311.45L520.7,315.33L520.98,313.26L521.26,312.14L521.53,314.93L521.81,311.11L522.09,310.57L522.92,313.48L523.2,312.31L523.48,311.32L523.76,314.21L524.59,311.26L524.87,311.48L525.15,314.34L525.7,313.06L525.98,307.86L526.82,316.22L527.09,311.49L527.65,314.88L527.93,313.43L528.21,313.32L529.04,311.23L529.32,314.94L530.15,310.49L530.43,311.76L530.71,312.15L530.99,314.54L531.54,313.93L531.82,311.71L532.1,314.31L532.38,311.85L532.65,308.5L532.93,312.13L533.49,311.63L533.77,310.72L534.32,313.26L534.6,310.77L534.88,315.66L535.43,313L535.71,312.33L535.99,311.92L536.27,309.36L536.82,315.35L537.1,312.51L537.38,312.65L537.66,314.08L537.94,309.25L538.21,313.26L538.77,312.22L539.05,314.39L539.88,309.63L540.16,312.97L540.44,309.44L540.72,311.27L540.99,312.09L541.55,313.8L541.83,313.16L542.11,312.11L542.66,313.88L542.94,307.51L543.22,313.87L543.77,311.48L544.05,315.1L544.61,309.64L544.89,314.36L545.16,310.72L545.44,315.63L545.72,313.79L546,310.84L546.28,314.01L546.55,312.55L546.83,313.24L547.11,318.17L547.39,312.64L547.67,309.75L548.5,315.91L548.78,309.3L549.61,316.32L549.89,312.2L550.17,315.36L550.45,312.08L550.72,313.55L551,313.58L551.28,316.08L551.56,313.83L551.84,308.18L552.39,314.95L552.67,312.28L552.95,312.81L553.23,317.79L553.5,313.16L553.78,313.06L554.06,314.91L554.34,313.69L554.62,312.65L554.89,314.53L555.17,313.99L555.45,310.76L556.56,315.01L556.84,311.36L557.95,317.02L558.23,311.06L559.06,316.84L559.34,314.45L560.18,310.79L560.45,313.12L560.73,314.3L561.01,310.47L561.84,314.45L562.12,313.02L562.4,311.74L562.68,311.88L562.96,314.13L563.51,312.24L563.79,313.62L564.07,313.68L564.35,319.7L564.62,313.47L564.9,312.26L565.46,311.82L566.01,317.73L566.29,310.61L567.13,316.69L567.4,312.48L567.96,314.69L568.24,311.79L568.79,312.42L569.07,313.34L569.35,313.98L569.63,313.28L569.91,313.1L570.46,311.03L570.74,312.81L571.02,315.87L571.85,311.15L572.13,313.91L572.41,310.28L572.68,316.93L573.52,312.52L573.8,317.21L574.35,312.38L574.91,313.82L575.19,315.51L576.3,312.93L576.58,316.56L576.85,312.11L577.41,312.91L577.69,315.7L577.97,311.46L578.52,312.27L578.8,314.66L579.08,314.84L579.36,310.46L579.91,318.29L580.19,315.09L580.47,314.27L580.75,316.51L581.02,307.11L581.86,317.52L582.14,312.15L582.41,312.52L582.69,315.3L582.97,314.43L583.25,317.04L584.08,312.12L584.36,311.75L585.19,315.5L585.47,314.47L585.75,312.54L586.03,316.41L586.31,312.45L586.58,312.43L586.86,312.76L587.14,315.55L587.97,312.75L588.25,313.5L588.53,317.09L588.81,313.12L589.09,311.91L589.64,316.2L589.92,315.95L590.2,312.46L591.03,315.21L591.31,314.32L591.59,314.04L591.87,315.89L592.14,312.29L592.42,318.24L592.7,311.98L592.98,311.96L593.53,314.17L593.81,312.53L594.09,310.89L594.92,314.61L595.2,312.51L595.76,310.81L596.04,315.31L596.31,314.69L596.87,310.47L597.15,312.4L597.43,312.08L597.98,313.7L598.26,312.99L598.54,313.03L598.82,312.64L599.09,314.39L599.37,312.39L599.65,313.7L599.93,314.05L600.21,315.04L600.48,311.64L600.76,314.78L601.04,305.34L601.32,315.15L601.87,310.87L602.15,317.07L602.43,313.37L602.71,315.08L602.99,316.59L603.54,312.18L603.82,310.77L604.1,312.79L604.38,308.1L605.49,316.72L605.77,315.17L606.6,311.97L607.16,312.19L607.43,313.84L607.71,309.97L607.99,313.63L608.27,314.95L608.55,309.22L609.1,311.11L609.38,312.51L609.66,312.12L609.94,313.2L610.21,312.63L610.49,313.01L610.77,313.82L611.05,315.87L611.33,312.24L611.6,319.85L611.88,315.11L612.16,310.82L612.44,314.68L612.99,312.6L613.27,313.37L613.55,313.08L613.83,316.6L614.94,310.64L615.22,315.97L615.77,312.18L616.05,314.63L616.33,312.86L616.61,316.74L616.89,315.16L617.16,312.18L617.44,312.95L617.72,316.55L618,310.99L618.55,314.36L618.83,314.01L619.11,310.75L619.39,314.75L619.67,313.63L619.94,315.98L620.22,312.62L620.5,314.5L620.78,314.95L621.05,314.47L621.33,311.93L621.89,315.55L622.17,314.46L622.44,313.11L622.72,317.1L623.28,315.19L623.56,311.21L624.67,316.79L624.95,312.23L625.5,313.33L625.78,315.3L626.34,312.43L626.61,313.7L626.89,314.9L627.73,311.4L628,311.53L628.28,311.38L629.39,314.28L629.67,313.11L629.95,315.19L630.23,312.53L630.51,315.02L630.78,313.4L631.06,319.59L631.34,312.39L631.62,312.51L632.45,314.54L632.73,310.7L633.84,315.82L634.12,311.75L634.4,314.06L634.68,313.71L634.95,307.19L636.34,315.14L636.62,313.98L636.9,315.57L637.18,313.17L637.46,311.53L638.01,312.54L638.29,308.77L638.57,315.95L638.85,311.74L639.4,313.76L639.68,314.89L639.96,315.38L640.24,312.81L640.79,312.52L641.07,318.21L641.35,312.05L641.9,313.84L642.18,312.91L642.46,315.58L643.02,309.87L643.29,312.9L643.57,313.54L643.85,313.68L644.13,316.51L644.41,309.73L644.96,314.14L645.24,313.66L645.52,311.88L645.8,314.03L646.07,311.98L646.35,314.35L646.63,314.57L646.91,312.05L647.19,313.74L647.46,311.52L647.74,319.35L648.3,312.49L648.58,312.89L648.85,314.54L649.13,315.93L649.41,312.82L649.69,312.02L649.97,312.7L650.24,313.29L650.52,315.29L650.8,312.52L651.08,311.73L651.63,315.68L651.91,312.75L652.19,313.99L652.47,311.78L652.75,313.71L653.02,309.47L653.3,314.93L653.86,314.01L654.14,313.78L654.41,316.39L654.69,315.99L654.97,312.91L655.53,312.02L655.8,315.2L656.36,315.29L656.64,313.01L657.19,316.64L657.47,314.32L657.75,313.14L658.03,315.64L658.31,316.17L658.58,315.73L658.86,312.32L659.14,314.45L659.7,314.26L659.97,313.37L661.09,313.94L661.36,316.72L661.64,313.43L662.2,313.89L662.48,312.57L662.75,312.46L663.03,314.57L663.31,316.54L663.59,311.01L664.42,317.19L664.7,314.01L664.98,314.33L665.26,318.2L665.81,312.84L666.09,314.1L666.37,317.91L667.48,310.65L667.76,316.82L668.04,311.66L668.59,314.72L668.87,313.29L669.15,315.76L669.43,315.5L669.7,310.96L670.54,316.96L670.82,312.5L671.65,313.6L671.93,316.37L672.76,311.75L673.04,315.33L673.32,317.84L673.59,310.99L674.71,314.23L674.98,312.41L675.26,309.91L675.54,313.86L675.82,314.03L676.37,312.42L676.65,313.68L676.93,314.88L677.49,315.48L677.76,311.63L678.32,316.77L678.6,315.27L678.88,315.08L679.15,312.26L679.71,314.27L679.99,315.01L680.54,311.53L680.82,316.3L681.38,316.22L681.66,313.34L682.77,317.94L683.05,312.13L684.16,315.01L684.44,315.43L684.71,312.41L684.99,315.32L685.27,317.74L686.38,312.5L686.66,318.13L687.49,310.9L687.77,316.03L688.05,317.13L688.33,317.02L688.61,314.65L688.88,314.71L689.16,316.84L689.44,316.92L689.72,316.09L690,312.16L690.27,317.76L690.55,316.13L690.83,318.54L691.11,312.98L691.66,316.85L691.94,315.42L692.22,315.4L692.5,314.98L692.78,315.79L693.05,313.15L693.33,316.39L693.61,311.37L693.89,313.53L694.44,315.13L694.72,314.46L695,311.69L695.83,315.95L696.11,314.9L696.39,314.41L696.67,316.87L697.22,317.32L697.78,314.62L698.06,316.67L698.34,318.15L698.61,317.64L698.89,315.44L699.17,316.05L699.45,314.68L699.73,313.6L700,318.31L700.56,316.52L700.84,318.49L701.39,314.95L701.67,317.74L702.23,316.17L702.51,316.58L702.78,317.88L703.62,314.1L703.9,315.85L704.17,316.53L705.29,314.22L705.56,311.61L706.68,319.29L706.95,318.31L707.23,318.35L707.51,317.3L707.79,314.6L708.34,315.88L708.62,316.51L708.9,317.58L709.18,315.34L709.46,316.59L709.73,315.85L710.01,313.41L711.12,316.64L711.4,316.55L711.68,316.72L711.96,314.13L712.79,317.57L713.07,315.85L713.35,317.33L713.9,316.93L714.18,316.86L714.46,313.35L714.74,318.09L715.02,318.67L715.57,313.84L715.85,315.47L716.13,316.78L716.41,318.13L716.68,315.27L716.96,315.08L717.24,313.83L717.8,322.65L718.07,315.99L718.35,314.56L718.63,316.79L718.91,320.21L719.19,312.36L719.74,314.8L720.02,314.14L720.3,318.69L720.58,313.55L720.85,317L721.13,314.99L721.41,312.41L721.69,317.98L721.96,319.97L722.24,316.33L722.8,318.36L723.08,316.1" style="vector-effect: none; fill: none; stroke: rgb(99, 110, 250); stroke-opacity: 1; stroke-width: 1.4px; opacity: 1;"/></g><g class="points"/><g class="text"/></g><g class="trace scatter trace62a6fe" style="stroke-miterlimit: 2; opacity: 1;"><g class="fills"/><g class="errorbars"/><g class="lines"><path class="js-line" d="M0.03,20.6L13.93,259.18L27.83,281.29L41.73,290.25L55.63,295.92L69.53,297.83L83.42,300.66L97.32,303.22L111.22,304.63L125.12,303.06L139.02,305.93L166.82,306.71L180.72,304.63L194.62,303.95L208.52,309.5L222.42,308.37L236.32,305.2L250.22,310.43L264.12,310.51L278.02,307.43L291.92,310.45L305.82,306.45L319.72,309.92L333.61,310.82L347.51,310.57L361.41,310.41L375.31,312.78L403.11,313.4L417.01,312.82L458.71,310.54L472.61,313.03L486.51,313.44L500.41,312.08L528.21,311.78L542.11,313.96L556.01,315.67L569.91,312.71L583.8,312.76L597.7,317.23L611.6,314.4L625.5,313.2L639.4,313.65L653.3,314.99L667.2,313.45L681.1,315.6L695,312.14L708.9,315.41L722.8,317.45" style="vector-effect: none; fill: none; stroke: rgb(239, 85, 59); stroke-opacity: 1; stroke-width: 2px; opacity: 1;"/></g><g class="points"><path class="point" transform="translate(0.03,20.6)" d="M2.5,0A2.5,2.5 0 1,1 0,-2.5A2.5,2.5 0 0,1 2.5,0Z" style="opacity: 1; stroke-width: 0px; fill: rgb(239, 85, 59); fill-opacity: 1;"/><path class="point" transform="translate(13.93,259.18)" d="M2.5,0A2.5,2.5 0 1,1 0,-2.5A2.5,2.5 0 0,1 2.5,0Z" style="opacity: 1; stroke-width: 0px; fill: rgb(239, 85, 59); fill-opacity: 1;"/><path class="point" transform="translate(27.83,281.29)" d="M2.5,0A2.5,2.5 0 1,1 0,-2.5A2.5,2.5 0 0,1 2.5,0Z" style="opacity: 1; stroke-width: 0px; fill: rgb(239, 85, 59); fill-opacity: 1;"/><path class="point" transform="translate(41.73,290.25)" d="M2.5,0A2.5,2.5 0 1,1 0,-2.5A2.5,2.5 0 0,1 2.5,0Z" style="opacity: 1; stroke-width: 0px; fill: rgb(239, 85, 59); fill-opacity: 1;"/><path class="point" transform="translate(55.63,295.92)" d="M2.5,0A2.5,2.5 0 1,1 0,-2.5A2.5,2.5 0 0,1 2.5,0Z" style="opacity: 1; stroke-width: 0px; fill: rgb(239, 85, 59); fill-opacity: 1;"/><path class="point" transform="translate(69.53,297.83)" d="M2.5,0A2.5,2.5 0 1,1 0,-2.5A2.5,2.5 0 0,1 2.5,0Z" style="opacity: 1; stroke-width: 0px; fill: rgb(239, 85, 59); fill-opacity: 1;"/><path class="point" transform="translate(83.42,300.66)" d="M2.5,0A2.5,2.5 0 1,1 0,-2.5A2.5,2.5 0 0,1 2.5,0Z" style="opacity: 1; stroke-width: 0px; fill: rgb(239, 85, 59); fill-opacity: 1;"/><path class="point" transform="translate(97.32,303.22)" d="M2.5,0A2.5,2.5 0 1,1 0,-2.5A2.5,2.5 0 0,1 2.5,0Z" style="opacity: 1; stroke-width: 0px; fill: rgb(239, 85, 59); fill-opacity: 1;"/><path class="point" transform="translate(111.22,304.63)" d="M2.5,0A2.5,2.5 0 1,1 0,-2.5A2.5,2.5 0 0,1 2.5,0Z" style="opacity: 1; stroke-width: 0px; fill: rgb(239, 85, 59); fill-opacity: 1;"/><path class="point" transform="translate(125.12,303.06)" d="M2.5,0A2.5,2.5 0 1,1 0,-2.5A2.5,2.5 0 0,1 2.5,0Z" style="opacity: 1; stroke-width: 0px; fill: rgb(239, 85, 59); fill-opacity: 1;"/><path class="point" transform="translate(139.02,305.93)" d="M2.5,0A2.5,2.5 0 1,1 0,-2.5A2.5,2.5 0 0,1 2.5,0Z" style="opacity: 1; stroke-width: 0px; fill: rgb(239, 85, 59); fill-opacity: 1;"/><path class="point" transform="translate(152.92,305.99)" d="M2.5,0A2.5,2.5 0 1,1 0,-2.5A2.5,2.5 0 0,1 2.5,0Z" style="opacity: 1; stroke-width: 0px; fill: rgb(239, 85, 59); fill-opacity: 1;"/><path class="point" transform="translate(166.82,306.71)" d="M2.5,0A2.5,2.5 0 1,1 0,-2.5A2.5,2.5 0 0,1 2.5,0Z" style="opacity: 1; stroke-width: 0px; fill: rgb(239, 85, 59); fill-opacity: 1;"/><path class="point" transform="translate(180.72,304.63)" d="M2.5,0A2.5,2.5 0 1,1 0,-2.5A2.5,2.5 0 0,1 2.5,0Z" style="opacity: 1; stroke-width: 0px; fill: rgb(239, 85, 59); fill-opacity: 1;"/><path class="point" transform="translate(194.62,303.95)" d="M2.5,0A2.5,2.5 0 1,1 0,-2.5A2.5,2.5 0 0,1 2.5,0Z" style="opacity: 1; stroke-width: 0px; fill: rgb(239, 85, 59); fill-opacity: 1;"/><path class="point" transform="translate(208.52,309.5)" d="M2.5,0A2.5,2.5 0 1,1 0,-2.5A2.5,2.5 0 0,1 2.5,0Z" style="opacity: 1; stroke-width: 0px; fill: rgb(239, 85, 59); fill-opacity: 1;"/><path class="point" transform="translate(222.42,308.37)" d="M2.5,0A2.5,2.5 0 1,1 0,-2.5A2.5,2.5 0 0,1 2.5,0Z" style="opacity: 1; stroke-width: 0px; fill: rgb(239, 85, 59); fill-opacity: 1;"/><path class="point" transform="translate(236.32,305.2)" d="M2.5,0A2.5,2.5 0 1,1 0,-2.5A2.5,2.5 0 0,1 2.5,0Z" style="opacity: 1; stroke-width: 0px; fill: rgb(239, 85, 59); fill-opacity: 1;"/><path class="point" transform="translate(250.22,310.43)" d="M2.5,0A2.5,2.5 0 1,1 0,-2.5A2.5,2.5 0 0,1 2.5,0Z" style="opacity: 1; stroke-width: 0px; fill: rgb(239, 85, 59); fill-opacity: 1;"/><path class="point" transform="translate(264.12,310.51)" d="M2.5,0A2.5,2.5 0 1,1 0,-2.5A2.5,2.5 0 0,1 2.5,0Z" style="opacity: 1; stroke-width: 0px; fill: rgb(239, 85, 59); fill-opacity: 1;"/><path class="point" transform="translate(278.02,307.43)" d="M2.5,0A2.5,2.5 0 1,1 0,-2.5A2.5,2.5 0 0,1 2.5,0Z" style="opacity: 1; stroke-width: 0px; fill: rgb(239, 85, 59); fill-opacity: 1;"/><path class="point" transform="translate(291.92,310.45)" d="M2.5,0A2.5,2.5 0 1,1 0,-2.5A2.5,2.5 0 0,1 2.5,0Z" style="opacity: 1; stroke-width: 0px; fill: rgb(239, 85, 59); fill-opacity: 1;"/><path class="point" transform="translate(305.82,306.45)" d="M2.5,0A2.5,2.5 0 1,1 0,-2.5A2.5,2.5 0 0,1 2.5,0Z" style="opacity: 1; stroke-width: 0px; fill: rgb(239, 85, 59); fill-opacity: 1;"/><path class="point" transform="translate(319.72,309.92)" d="M2.5,0A2.5,2.5 0 1,1 0,-2.5A2.5,2.5 0 0,1 2.5,0Z" style="opacity: 1; stroke-width: 0px; fill: rgb(239, 85, 59); fill-opacity: 1;"/><path class="point" transform="translate(333.61,310.82)" d="M2.5,0A2.5,2.5 0 1,1 0,-2.5A2.5,2.5 0 0,1 2.5,0Z" style="opacity: 1; stroke-width: 0px; fill: rgb(239, 85, 59); fill-opacity: 1;"/><path class="point" transform="translate(347.51,310.57)" d="M2.5,0A2.5,2.5 0 1,1 0,-2.5A2.5,2.5 0 0,1 2.5,0Z" style="opacity: 1; stroke-width: 0px; fill: rgb(239, 85, 59); fill-opacity: 1;"/><path class="point" transform="translate(361.41,310.41)" d="M2.5,0A2.5,2.5 0 1,1 0,-2.5A2.5,2.5 0 0,1 2.5,0Z" style="opacity: 1; stroke-width: 0px; fill: rgb(239, 85, 59); fill-opacity: 1;"/><path class="point" transform="translate(375.31,312.78)" d="M2.5,0A2.5,2.5 0 1,1 0,-2.5A2.5,2.5 0 0,1 2.5,0Z" style="opacity: 1; stroke-width: 0px; fill: rgb(239, 85, 59); fill-opacity: 1;"/><path class="point" transform="translate(389.21,313.25)" d="M2.5,0A2.5,2.5 0 1,1 0,-2.5A2.5,2.5 0 0,1 2.5,0Z" style="opacity: 1; stroke-width: 0px; fill: rgb(239, 85, 59); fill-opacity: 1;"/><path class="point" transform="translate(403.11,313.4)" d="M2.5,0A2.5,2.5 0 1,1 0,-2.5A2.5,2.5 0 0,1 2.5,0Z" style="opacity: 1; stroke-width: 0px; fill: rgb(239, 85, 59); fill-opacity: 1;"/><path class="point" transform="translate(417.01,312.82)" d="M2.5,0A2.5,2.5 0 1,1 0,-2.5A2.5,2.5 0 0,1 2.5,0Z" style="opacity: 1; stroke-width: 0px; fill: rgb(239, 85, 59); fill-opacity: 1;"/><path class="point" transform="translate(430.91,312.17)" d="M2.5,0A2.5,2.5 0 1,1 0,-2.5A2.5,2.5 0 0,1 2.5,0Z" style="opacity: 1; stroke-width: 0px; fill: rgb(239, 85, 59); fill-opacity: 1;"/><path class="point" transform="translate(444.81,311.2)" d="M2.5,0A2.5,2.5 0 1,1 0,-2.5A2.5,2.5 0 0,1 2.5,0Z" style="opacity: 1; stroke-width: 0px; fill: rgb(239, 85, 59); fill-opacity: 1;"/><path class="point" transform="translate(458.71,310.54)" d="M2.5,0A2.5,2.5 0 1,1 0,-2.5A2.5,2.5 0 0,1 2.5,0Z" style="opacity: 1; stroke-width: 0px; fill: rgb(239, 85, 59); fill-opacity: 1;"/><path class="point" transform="translate(472.61,313.03)" d="M2.5,0A2.5,2.5 0 1,1 0,-2.5A2.5,2.5 0 0,1 2.5,0Z" style="opacity: 1; stroke-width: 0px; fill: rgb(239, 85, 59); fill-opacity: 1;"/><path class="point" transform="translate(486.51,313.44)" d="M2.5,0A2.5,2.5 0 1,1 0,-2.5A2.5,2.5 0 0,1 2.5,0Z" style="opacity: 1; stroke-width: 0px; fill: rgb(239, 85, 59); fill-opacity: 1;"/><path class="point" transform="translate(500.41,312.08)" d="M2.5,0A2.5,2.5 0 1,1 0,-2.5A2.5,2.5 0 0,1 2.5,0Z" style="opacity: 1; stroke-width: 0px; fill: rgb(239, 85, 59); fill-opacity: 1;"/><path class="point" transform="translate(514.31,312.25)" d="M2.5,0A2.5,2.5 0 1,1 0,-2.5A2.5,2.5 0 0,1 2.5,0Z" style="opacity: 1; stroke-width: 0px; fill: rgb(239, 85, 59); fill-opacity: 1;"/><path class="point" transform="translate(528.21,311.78)" d="M2.5,0A2.5,2.5 0 1,1 0,-2.5A2.5,2.5 0 0,1 2.5,0Z" style="opacity: 1; stroke-width: 0px; fill: rgb(239, 85, 59); fill-opacity: 1;"/><path class="point" transform="translate(542.11,313.96)" d="M2.5,0A2.5,2.5 0 1,1 0,-2.5A2.5,2.5 0 0,1 2.5,0Z" style="opacity: 1; stroke-width: 0px; fill: rgb(239, 85, 59); fill-opacity: 1;"/><path class="point" transform="translate(556.01,315.67)" d="M2.5,0A2.5,2.5 0 1,1 0,-2.5A2.5,2.5 0 0,1 2.5,0Z" style="opacity: 1; stroke-width: 0px; fill: rgb(239, 85, 59); fill-opacity: 1;"/><path class="point" transform="translate(569.91,312.71)" d="M2.5,0A2.5,2.5 0 1,1 0,-2.5A2.5,2.5 0 0,1 2.5,0Z" style="opacity: 1; stroke-width: 0px; fill: rgb(239, 85, 59); fill-opacity: 1;"/><path class="point" transform="translate(583.8,312.76)" d="M2.5,0A2.5,2.5 0 1,1 0,-2.5A2.5,2.5 0 0,1 2.5,0Z" style="opacity: 1; stroke-width: 0px; fill: rgb(239, 85, 59); fill-opacity: 1;"/><path class="point" transform="translate(597.7,317.23)" d="M2.5,0A2.5,2.5 0 1,1 0,-2.5A2.5,2.5 0 0,1 2.5,0Z" style="opacity: 1; stroke-width: 0px; fill: rgb(239, 85, 59); fill-opacity: 1;"/><path class="point" transform="translate(611.6,314.4)" d="M2.5,0A2.5,2.5 0 1,1 0,-2.5A2.5,2.5 0 0,1 2.5,0Z" style="opacity: 1; stroke-width: 0px; fill: rgb(239, 85, 59); fill-opacity: 1;"/><path class="point" transform="translate(625.5,313.2)" d="M2.5,0A2.5,2.5 0 1,1 0,-2.5A2.5,2.5 0 0,1 2.5,0Z" style="opacity: 1; stroke-width: 0px; fill: rgb(239, 85, 59); fill-opacity: 1;"/><path class="point" transform="translate(639.4,313.65)" d="M2.5,0A2.5,2.5 0 1,1 0,-2.5A2.5,2.5 0 0,1 2.5,0Z" style="opacity: 1; stroke-width: 0px; fill: rgb(239, 85, 59); fill-opacity: 1;"/><path class="point" transform="translate(653.3,314.99)" d="M2.5,0A2.5,2.5 0 1,1 0,-2.5A2.5,2.5 0 0,1 2.5,0Z" style="opacity: 1; stroke-width: 0px; fill: rgb(239, 85, 59); fill-opacity: 1;"/><path class="point" transform="translate(667.2,313.45)" d="M2.5,0A2.5,2.5 0 1,1 0,-2.5A2.5,2.5 0 0,1 2.5,0Z" style="opacity: 1; stroke-width: 0px; fill: rgb(239, 85, 59); fill-opacity: 1;"/><path class="point" transform="translate(681.1,315.6)" d="M2.5,0A2.5,2.5 0 1,1 0,-2.5A2.5,2.5 0 0,1 2.5,0Z" style="opacity: 1; stroke-width: 0px; fill: rgb(239, 85, 59); fill-opacity: 1;"/><path class="point" transform="translate(695,312.14)" d="M2.5,0A2.5,2.5 0 1,1 0,-2.5A2.5,2.5 0 0,1 2.5,0Z" style="opacity: 1; stroke-width: 0px; fill: rgb(239, 85, 59); fill-opacity: 1;"/><path class="point" transform="translate(708.9,315.41)" d="M2.5,0A2.5,2.5 0 1,1 0,-2.5A2.5,2.5 0 0,1 2.5,0Z" style="opacity: 1; stroke-width: 0px; fill: rgb(239, 85, 59); fill-opacity: 1;"/><path class="point" transform="translate(722.8,317.45)" d="M2.5,0A2.5,2.5 0 1,1 0,-2.5A2.5,2.5 0 0,1 2.5,0Z" style="opacity: 1; stroke-width: 0px; fill: rgb(239, 85, 59); fill-opacity: 1;"/></g><g class="text"/></g></g></g></g><g class="zerolinelayer-above"/><path class="xlines-above crisp" d="M83,464.5H836" style="fill: none; stroke-width: 1px; stroke: rgb(207, 213, 223); stroke-opacity: 1;"/><path class="ylines-above crisp" d="M83.5,118V464" style="fill: none; stroke-width: 1px; stroke: rgb(207, 213, 223); stroke-opacity: 1;"/><g class="overlines-above"/><g class="xaxislayer-above"><path class="xtick ticks crisp" d="M0,465v5" transform="translate(84,0)" style="stroke: rgb(207, 213, 223); stroke-opacity: 1; stroke-width: 1px;"/><path class="xtick ticks crisp" d="M0,465v5" transform="translate(225.39,0)" style="stroke: rgb(207, 213, 223); stroke-opacity: 1; stroke-width: 1px;"/><path class="xtick ticks crisp" d="M0,465v5" transform="translate(366.78,0)" style="stroke: rgb(207, 213, 223); stroke-opacity: 1; stroke-width: 1px;"/><path class="xtick ticks crisp" d="M0,465v5" transform="translate(508.18,0)" style="stroke: rgb(207, 213, 223); stroke-opacity: 1; stroke-width: 1px;"/><path class="xtick ticks crisp" d="M0,465v5" transform="translate(649.57,0)" style="stroke: rgb(207, 213, 223); stroke-opacity: 1; stroke-width: 1px;"/><path class="xtick ticks crisp" d="M0,465v5" transform="translate(790.96,0)" style="stroke: rgb(207, 213, 223); stroke-opacity: 1; stroke-width: 1px;"/><g class="xtick"><text text-anchor="middle" x="0" y="484.4" transform="translate(84,0)" style="font-family: -apple-system, BlinkMacSystemFont, 'Segoe UI', sans-serif; font-size: 12px; fill: rgb(107, 114, 128); fill-opacity: 1; white-space: pre;">0</text></g><g class="xtick"><text text-anchor="middle" x="0" y="484.4" style="font-family: -apple-system, BlinkMacSystemFont, 'Segoe UI', sans-serif; font-size: 12px; fill: rgb(107, 114, 128); fill-opacity: 1; white-space: pre;" transform="translate(225.39,0)">2B</text></g><g class="xtick"><text text-anchor="middle" x="0" y="484.4" style="font-family: -apple-system, BlinkMacSystemFont, 'Segoe UI', sans-serif; font-size: 12px; fill: rgb(107, 114, 128); fill-opacity: 1; white-space: pre;" transform="translate(366.78,0)">4B</text></g><g class="xtick"><text text-anchor="middle" x="0" y="484.4" style="font-family: -apple-system, BlinkMacSystemFont, 'Segoe UI', sans-serif; font-size: 12px; fill: rgb(107, 114, 128); fill-opacity: 1; white-space: pre;" transform="translate(508.18,0)">6B</text></g><g class="xtick"><text text-anchor="middle" x="0" y="484.4" style="font-family: -apple-system, BlinkMacSystemFont, 'Segoe UI', sans-serif; font-size: 12px; fill: rgb(107, 114, 128); fill-opacity: 1; white-space: pre;" transform="translate(649.57,0)">8B</text></g><g class="xtick"><text text-anchor="middle" x="0" y="484.4" style="font-family: -apple-system, BlinkMacSystemFont, 'Segoe UI', sans-serif; font-size: 12px; fill: rgb(107, 114, 128); fill-opacity: 1; white-space: pre;" transform="translate(790.96,0)">10B tokens</text></g></g><g class="yaxislayer-above"><path class="ytick ticks crisp" d="M83,0h-5" transform="translate(0,464)" style="stroke: rgb(207, 213, 223); stroke-opacity: 1; stroke-width: 1px;"/><path class="ytick ticks crisp" d="M83,0h-5" transform="translate(0,425.56)" style="stroke: rgb(207, 213, 223); stroke-opacity: 1; stroke-width: 1px;"/><path class="ytick ticks crisp" d="M83,0h-5" transform="translate(0,387.11)" style="stroke: rgb(207, 213, 223); stroke-opacity: 1; stroke-width: 1px;"/><path class="ytick ticks crisp" d="M83,0h-5" transform="translate(0,348.66999999999996)" style="stroke: rgb(207, 213, 223); stroke-opacity: 1; stroke-width: 1px;"/><path class="ytick ticks crisp" d="M83,0h-5" transform="translate(0,310.22)" style="stroke: rgb(207, 213, 223); stroke-opacity: 1; stroke-width: 1px;"/><path class="ytick ticks crisp" d="M83,0h-5" transform="translate(0,271.78)" style="stroke: rgb(207, 213, 223); stroke-opacity: 1; stroke-width: 1px;"/><path class="ytick ticks crisp" d="M83,0h-5" transform="translate(0,233.32999999999998)" style="stroke: rgb(207, 213, 223); stroke-opacity: 1; stroke-width: 1px;"/><path class="ytick ticks crisp" d="M83,0h-5" transform="translate(0,194.89)" style="stroke: rgb(207, 213, 223); stroke-opacity: 1; stroke-width: 1px;"/><path class="ytick ticks crisp" d="M83,0h-5" transform="translate(0,156.44)" style="stroke: rgb(207, 213, 223); stroke-opacity: 1; stroke-width: 1px;"/><path class="ytick ticks crisp" d="M83,0h-5" transform="translate(0,118)" style="stroke: rgb(207, 213, 223); stroke-opacity: 1; stroke-width: 1px;"/><g class="ytick"><text text-anchor="end" x="75.6" y="4.199999999999999" transform="translate(0,464)" style="font-family: -apple-system, BlinkMacSystemFont, 'Segoe UI', sans-serif; font-size: 12px; fill: rgb(107, 114, 128); fill-opacity: 1; white-space: pre;">2</text></g><g class="ytick"><text text-anchor="end" x="75.6" y="4.199999999999999" style="font-family: -apple-system, BlinkMacSystemFont, 'Segoe UI', sans-serif; font-size: 12px; fill: rgb(107, 114, 128); fill-opacity: 1; white-space: pre;" transform="translate(0,425.56)">3</text></g><g class="ytick"><text text-anchor="end" x="75.6" y="4.199999999999999" style="font-family: -apple-system, BlinkMacSystemFont, 'Segoe UI', sans-serif; font-size: 12px; fill: rgb(107, 114, 128); fill-opacity: 1; white-space: pre;" transform="translate(0,387.11)">4</text></g><g class="ytick"><text text-anchor="end" x="75.6" y="4.199999999999999" style="font-family: -apple-system, BlinkMacSystemFont, 'Segoe UI', sans-serif; font-size: 12px; fill: rgb(107, 114, 128); fill-opacity: 1; white-space: pre;" transform="translate(0,348.66999999999996)">5</text></g><g class="ytick"><text text-anchor="end" x="75.6" y="4.199999999999999" style="font-family: -apple-system, BlinkMacSystemFont, 'Segoe UI', sans-serif; font-size: 12px; fill: rgb(107, 114, 128); fill-opacity: 1; white-space: pre;" transform="translate(0,310.22)">6</text></g><g class="ytick"><text text-anchor="end" x="75.6" y="4.199999999999999" style="font-family: -apple-system, BlinkMacSystemFont, 'Segoe UI', sans-serif; font-size: 12px; fill: rgb(107, 114, 128); fill-opacity: 1; white-space: pre;" transform="translate(0,271.78)">7</text></g><g class="ytick"><text text-anchor="end" x="75.6" y="4.199999999999999" style="font-family: -apple-system, BlinkMacSystemFont, 'Segoe UI', sans-serif; font-size: 12px; fill: rgb(107, 114, 128); fill-opacity: 1; white-space: pre;" transform="translate(0,233.32999999999998)">8</text></g><g class="ytick"><text text-anchor="end" x="75.6" y="4.199999999999999" style="font-family: -apple-system, BlinkMacSystemFont, 'Segoe UI', sans-serif; font-size: 12px; fill: rgb(107, 114, 128); fill-opacity: 1; white-space: pre;" transform="translate(0,194.89)">9</text></g><g class="ytick"><text text-anchor="end" x="75.6" y="4.199999999999999" style="font-family: -apple-system, BlinkMacSystemFont, 'Segoe UI', sans-serif; font-size: 12px; fill: rgb(107, 114, 128); fill-opacity: 1; white-space: pre;" transform="translate(0,156.44)">10</text></g><g class="ytick"><text text-anchor="end" x="75.6" y="4.199999999999999" style="font-family: -apple-system, BlinkMacSystemFont, 'Segoe UI', sans-serif; font-size: 12px; fill: rgb(107, 114, 128); fill-opacity: 1; white-space: pre;" transform="translate(0,118)">11</text></g></g><g class="overaxes-above"/></g></g><g class="polarlayer"/><g class="smithlayer"/><g class="ternarylayer"/><g class="geolayer"/><g class="funnelarealayer"/><g class="pielayer"/><g class="iciclelayer"/><g class="treemaplayer"/><g class="sunburstlayer"/><g class="glimages"/><defs id="topdefs-295966"><g class="clips"/></defs><g class="layer-above"><g class="imagelayer"/><g class="shapelayer"><g class="shape-group" data-index="0"><path data-index="0" fill-rule="evenodd" d="M 90.94782608695652,463.69107142857143 L 829.0521739130436,463.69107142857143 Q 835.591304347826,463.69107142857143 835.591304347826,458.7482142857143 L 835.591304347826,123.25178571428569 Q 835.591304347826,118.30892857142857 829.0521739130436,118.30892857142857 L 90.94782608695652,118.30892857142857 Q 84.40869565217392,118.30892857142857 84.40869565217392,123.25178571428569 L 84.40869565217392,458.7482142857143 Q 84.40869565217392,463.69107142857143 90.94782608695652,463.69107142857143 Z" style="opacity: 1; stroke: rgb(217, 221, 231); stroke-opacity: 1; fill: rgb(0, 0, 0); fill-opacity: 0; stroke-width: 1px;"/></g></g></g><g class="infolayer"><g class="g-gtitle"/><g class="g-xtitle"/><g class="g-ytitle"><text class="ytitle" transform="rotate(-90,43.074609375,291)" x="43.074609375" y="291" text-anchor="middle" style="opacity: 1; font-family: -apple-system, BlinkMacSystemFont, 'Segoe UI', sans-serif; font-size: 14px; fill: rgb(107, 114, 128); fill-opacity: 1; white-space: pre;">loss</text></g><g class="annotation" data-index="0" style="opacity: 1;"><g class="annotation-text-g" transform="rotate(0,313.16,49.96000000000002)"><g class="cursor-pointer" transform="translate(50,35)"><rect class="bg" x="0.5" y="0.5" width="525" height="29" style="stroke-width: 1px; stroke: rgb(0, 0, 0); stroke-opacity: 0; fill: rgb(0, 0, 0); fill-opacity: 0;"/><text class="annotation-text" text-anchor="middle" x="263.1328125" y="23" style="font-family: -apple-system, BlinkMacSystemFont, 'Segoe UI', sans-serif; font-size: 22px; fill: rgb(31, 41, 55); fill-opacity: 1; white-space: pre;"><tspan style="font-weight:bold">Esme-214M-Base: loss over the 10B-token pretrain</tspan></text></g></g></g><g class="annotation" data-index="1" style="opacity: 1;"><g class="annotation-text-g" transform="rotate(0,395.66,81.79000000000002)"><g class="cursor-pointer" transform="translate(50,71)"><rect class="bg" x="0.5" y="0.5" width="690" height="20" style="stroke-width: 1px; stroke: rgb(0, 0, 0); stroke-opacity: 0; fill: rgb(0, 0, 0); fill-opacity: 0;"/><text class="annotation-text" text-anchor="middle" x="345.546875" y="16" style="font-family: -apple-system, BlinkMacSystemFont, 'Segoe UI', sans-serif; font-size: 14px; fill: rgb(107, 114, 128); fill-opacity: 1; white-space: pre;">Train and validation cross-entropy vs training tokens - FineWeb-Edu sample-10BT, 26,015 steps, one B200</text></g></g></g><g class="annotation" data-index="2" style="opacity: 1;"><g class="annotation-text-g" transform="rotate(0,383.66,518.51)"><g class="cursor-pointer" transform="translate(50,509)"><rect class="bg" x="0.5" y="0.5" width="666" height="18" style="stroke-width: 1px; stroke: rgb(0, 0, 0); stroke-opacity: 0; fill: rgb(0, 0, 0); fill-opacity: 0;"/><text class="annotation-text" text-anchor="middle" x="333.515625" y="14" style="font-family: -apple-system, BlinkMacSystemFont, 'Segoe UI', sans-serif; font-size: 12px; fill: rgb(107, 114, 128); fill-opacity: 1; white-space: pre;">Conclusion: validation loss tracks training loss down to 2.74 with no divergence through the full 10.23B-token budget.</text></g></g></g><g class="annotation" data-index="3" style="opacity: 1;"><g class="annotation-text-g" transform="rotate(0,800.8,393.45)"><g class="cursor-pointer" transform="translate(774,383)"><rect class="bg" x="0.5" y="0.5" width="53" height="19" style="stroke-width: 1px; stroke: rgb(0, 0, 0); stroke-opacity: 0; fill: rgb(0, 0, 0); fill-opacity: 0;"/><text class="annotation-text" text-anchor="middle" x="27.0546875" y="15" style="font-family: -apple-system, BlinkMacSystemFont, 'Segoe UI', sans-serif; font-size: 13px; fill: rgb(31, 41, 55); fill-opacity: 1; white-space: pre;"><tspan style="font-weight:bold">val 2.74</tspan></text></g></g><g class="annotation-arrow-g" style="opacity: 1;"><path d="M802.1571428571428,402.95L806.8,435.45" style="stroke-width: 1px; stroke: rgb(207, 213, 223); stroke-opacity: 1; stroke-dasharray: 0px, 0px, 32.83px, 32.83px;"/></g></g><g class="annotation" data-index="4" style="opacity: 1;"><g class="annotation-text-g" transform="rotate(0,453.69,364.03999999999996)"><g class="cursor-pointer" transform="translate(388,354)"><rect class="bg" x="0.5" y="0.5" width="131" height="19" style="stroke-width: 1px; stroke: rgb(0, 0, 0); stroke-opacity: 0; fill: rgb(0, 0, 0); fill-opacity: 0;"/><text class="annotation-text" text-anchor="middle" x="66.046875" y="15" style="font-family: -apple-system, BlinkMacSystemFont, 'Segoe UI', sans-serif; font-size: 13px; fill: rgb(99, 110, 250); fill-opacity: 1; white-space: pre;">train (every 10 steps)</text></g></g></g><g class="annotation" data-index="5" style="opacity: 1;"><g class="annotation-text-g" transform="rotate(0,474.19,387.11)"><g class="cursor-pointer" transform="translate(388,377)"><rect class="bg" x="0.5" y="0.5" width="172" height="19" style="stroke-width: 1px; stroke: rgb(0, 0, 0); stroke-opacity: 0; fill: rgb(0, 0, 0); fill-opacity: 0;"/><text class="annotation-text" text-anchor="middle" x="86.5" y="15" style="font-family: -apple-system, BlinkMacSystemFont, 'Segoe UI', sans-serif; font-size: 13px; fill: rgb(239, 85, 59); fill-opacity: 1; white-space: pre;">validation (every 500 steps)</text></g></g></g></g></svg>