<svg class="main-svg" xmlns="http://www.w3.org/2000/svg" xmlns:xlink="http://www.w3.org/1999/xlink" width="920" height="560" style="" viewBox="0 0 920 560"><rect x="0" y="0" width="920" height="560" style="fill: rgb(255, 255, 255); fill-opacity: 1;"/><defs id="defs-cef0f0"><g class="clips"><clipPath id="clipcef0f0xyplot" class="plotclip"><rect width="752" height="346"/></clipPath><clipPath id="clipcef0f0xy2plot" class="plotclip"><rect width="752" height="346"/></clipPath><clipPath class="axesclip" id="clipcef0f0x"><rect x="84" y="0" width="752" height="560"/></clipPath><clipPath class="axesclip" id="clipcef0f0y"><rect x="0" y="118" width="920" height="346"/></clipPath><clipPath class="axesclip" id="clipcef0f0xy"><rect x="84" y="118" width="752" height="346"/></clipPath><clipPath class="axesclip" id="clipcef0f0y2"><rect x="0" y="118" width="920" height="346"/></clipPath><clipPath class="axesclip" id="clipcef0f0xy2"><rect x="84" y="118" width="752" height="346"/></clipPath></g><g class="gradients"/><g class="patterns"/></defs><g class="bglayer"/><g class="layer-below"><g class="imagelayer"/><g class="shapelayer"/></g><g class="cartesianlayer"><g class="subplot xy"><g class="layer-subplot"><g class="shapelayer"/><g class="imagelayer"/></g><g class="minor-gridlayer"><g class="x"/><g class="y"/><g class="y2"/></g><g class="gridlayer"><g class="x"><path class="xgrid crisp" transform="translate(225.39,0)" d="M0,118v346" style="stroke: rgb(238, 241, 246); stroke-opacity: 1; stroke-width: 1px;"/><path class="xgrid crisp" transform="translate(366.78,0)" d="M0,118v346" style="stroke: rgb(238, 241, 246); stroke-opacity: 1; stroke-width: 1px;"/><path class="xgrid crisp" transform="translate(508.18,0)" d="M0,118v346" style="stroke: rgb(238, 241, 246); stroke-opacity: 1; stroke-width: 1px;"/><path class="xgrid crisp" transform="translate(649.57,0)" d="M0,118v346" style="stroke: rgb(238, 241, 246); stroke-opacity: 1; stroke-width: 1px;"/><path class="xgrid crisp" transform="translate(790.96,0)" d="M0,118v346" style="stroke: rgb(238, 241, 246); stroke-opacity: 1; stroke-width: 1px;"/></g><g class="y"><path class="ygrid crisp" transform="translate(0,397.46)" d="M84,0h752" style="stroke: rgb(238, 241, 246); stroke-opacity: 1; stroke-width: 1px;"/><path class="ygrid crisp" transform="translate(0,330.91999999999996)" d="M84,0h752" style="stroke: rgb(238, 241, 246); stroke-opacity: 1; stroke-width: 1px;"/><path class="ygrid crisp" transform="translate(0,264.38)" d="M84,0h752" style="stroke: rgb(238, 241, 246); stroke-opacity: 1; stroke-width: 1px;"/><path class="ygrid crisp" transform="translate(0,197.85)" d="M84,0h752" style="stroke: rgb(238, 241, 246); stroke-opacity: 1; stroke-width: 1px;"/><path class="ygrid crisp" transform="translate(0,131.31)" d="M84,0h752" style="stroke: rgb(238, 241, 246); stroke-opacity: 1; stroke-width: 1px;"/></g><g class="y2"/></g><g class="zerolinelayer"/><g class="layer-between"><g class="shapelayer"/><g class="imagelayer"/></g><path class="xlines-below"/><path class="ylines-below"/><g class="overlines-below"><path class="xy2-x"/><path class="xy2-y"/></g><g class="xaxislayer-below"/><g class="yaxislayer-below"/><g class="overaxes-below"><g class="xy2-x"/><g class="xy2-y"/></g><g class="overplot"><g class="xy" transform="translate(84,118)" clip-path="url(#clipcef0f0xyplot)"><g class="scatterlayer mlayer"><g class="trace scatter trace4c0cf7" style="stroke-miterlimit: 2; opacity: 0.28;"><g class="fills"/><g class="errorbars"/><g class="lines"><path class="js-line" d="M0.31,62.7L0.58,65.45L0.86,86.12L1.14,65.44L1.42,70.24L1.7,98L1.97,63.25L2.53,63.67L2.81,127.17L3.64,61.45L3.92,89.41L4.2,87.28L4.48,70.73L5.59,61.71L5.87,62.83L6.14,62.31L6.42,66.1L6.7,63.06L6.98,63.1L7.81,67.15L8.09,63.42L8.37,64.02L8.65,71.67L9.2,56.44L9.48,64.16L9.76,61.81L10.59,69.72L10.87,64.46L11.15,61.93L11.43,63.62L11.7,66.96L12.26,60.24L12.82,61.06L13.09,59.63L13.37,69.2L13.93,63.47L14.21,64.38L14.48,64.48L14.76,68.49L15.04,60.72L15.32,66.45L15.6,69.3L15.87,63.3L16.43,64.17L16.71,65.71L16.99,67.59L17.26,62.9L17.54,62.29L17.82,64.34L18.1,62.6L18.38,65.05L18.65,87.21L19.49,63.37L19.77,64.62L20.04,64.14L20.32,66.58L21.15,61.75L21.43,64.06L21.71,65.85L21.99,61.54L22.27,67.38L22.54,64.53L22.82,106.54L23.66,63.93L24.21,69.4L24.49,64.07L25.6,76.54L25.88,70.74L26.16,68.87L26.44,77.66L26.71,86.2L26.99,69.77L27.27,102.63L27.55,69.17L27.83,74.57L28.1,66.03L28.38,72.5L28.66,131.81L29.22,68.88L29.49,71.23L29.77,69.59L30.05,63.79L30.33,69.32L30.61,69.98L30.88,64.86L31.44,66.07L31.72,65.64L32,64.71L32.27,60.09L32.55,80.01L32.83,71.05L33.11,64.02L33.66,65.07L33.94,62.79L34.22,62.61L34.5,68.04L34.78,68.55L35.05,65.9L35.33,62.97L35.89,63.4L36.17,67.47L36.44,84.87L36.72,66.63L37,65.22L37.56,59.64L37.83,63.81L38.39,61.25L38.67,64.01L38.95,71.18L39.5,67.29L39.78,63.39L40.06,64.42L40.34,63.49L40.61,62.52L40.89,63.86L41.17,62.2L41.45,63.21L41.73,73.37L42,62.36L42.28,63.96L42.56,73.39L42.84,69.99L43.12,91.75L43.95,62.53L44.23,64.75L44.78,62.4L45.06,72.31L45.34,63.84L46.17,81.6L46.45,69.49L47.29,59.83L47.56,60.25L47.84,62.29L48.4,65.14L48.68,62.89L48.95,62.72L49.23,63.55L50.07,60.26L50.34,67.8L50.9,62.6L51.18,63.81L51.46,62.08L52.01,65.52L52.29,64.99L52.57,63.64L52.85,62.31L53.12,62.44L53.4,63.57L53.68,64.83L53.96,62.43L54.51,64.3L54.79,97.63L55.35,53.98L55.63,54.15L55.9,57.72L56.46,54.16L56.74,55.85L57.02,55.59L57.29,82.38L57.57,58.21L57.85,56.77L58.13,62.5L58.41,61.92L58.68,56.32L59.52,113.04L59.8,58.11L60.63,55.49L60.91,59.98L61.19,79.51L61.46,57.14L61.74,56.17L62.02,52.02L62.3,57.63L62.58,55.36L62.85,54.21L63.13,56.8L63.41,59.3L63.69,56.14L63.97,57.29L64.52,58.82L64.8,57.41L65.36,51.85L65.63,56.08L65.91,79.31L66.19,68.94L66.47,60.94L67.02,163.94L67.3,84.41L68.41,65.11L68.69,61.07L69.25,64.1L69.53,51.2L70.36,62.29L70.64,57.71L70.91,56.09L71.19,60.54L71.47,56.93L71.75,58.46L72.03,61.76L72.3,79.54L72.58,58.88L72.86,56.79L73.14,58.07L73.42,55.58L73.69,56.24L73.97,80.73L74.81,53.86L75.08,59.03L75.36,59.96L75.64,57.43L75.92,54.81L76.2,61.49L76.47,60.43L76.75,54.39L77.03,61.31L77.59,59.15L77.86,59.13L78.42,51.24L78.7,66.03L78.98,73.76L79.25,73.36L79.53,64.89L80.09,51.53L80.37,57.71L80.64,65.24L81.76,54.23L82.03,55.3L82.31,55.85L82.59,58.29L82.87,71.95L83.42,67.76L83.7,57.4L83.98,55.74L84.26,58.01L84.54,66.44L85.09,56.93L85.37,66.05L85.65,56.29L86.2,59.66L86.48,60.35L86.76,64.74L87.04,49.76L87.59,62.84L87.87,58.29L88.15,57.1L88.43,59.62L88.71,58.96L88.98,57.3L89.26,55.57L89.54,59.84L90.1,60.59L90.37,57.77L90.65,65.31L90.93,57.84L91.21,89.87L91.49,41.56L92.04,57.92L92.32,53.38L93.43,60.82L93.71,58.43L93.99,59.22L94.27,58.52L94.54,57.82L95.38,60.54L95.66,56.77L95.93,58.48L96.21,56.86L96.49,56.54L96.77,57.01L97.05,59.63L97.6,54.4L97.88,73.7L98.44,55.59L98.71,55.66L98.99,57.13L99.27,58.29L99.55,54.44L100.1,52.86L100.38,65.52L100.66,61.48L100.94,57.79L101.22,56.86L101.49,81.44L102.33,57.03L102.61,57.3L103.16,54.75L103.44,74.4L104.27,56.92L104.55,57.64L104.83,56.29L105.11,60.38L105.39,57.76L105.66,88.1L105.94,64.06L106.5,65.82L106.78,59.85L107.33,65.7L107.61,64.77L107.89,59.64L108.17,59.39L108.44,51.98L109.28,85.61L109.56,59.57L110.11,55.06L110.39,57.2L110.67,56.51L110.95,67.61L111.22,55.04L111.5,64.15L111.78,56.33L112.06,59.34L112.34,54.31L112.61,74.83L113.45,43.67L113.73,55.19L114.56,61.61L114.84,57.95L115.12,56.52L115.39,58.38L115.67,59.89L116.51,55.76L116.78,57.73L117.06,57.9L117.34,60.61L117.62,57.21L118.17,58.43L118.45,59.09L119.01,55.16L119.29,57.59L119.56,59.07L119.84,57.57L120.12,58.15L120.4,70.5L120.67,55.6L120.95,59.95L121.23,67.44L121.51,72.69L121.79,58.98L122.06,55.04L122.34,55.82L122.62,62.53L123.18,54.88L123.45,61.48L123.73,61.21L124.01,58.41L124.57,60.07L124.84,94.55L125.96,55.87L126.23,58.45L126.51,58.43L126.79,67.44L127.35,55.36L127.9,58.44L128.18,55.35L129.29,60L129.57,57.71L129.85,58.85L130.13,56.77L130.4,58.25L130.68,64.24L131.79,54.35L132.07,53.01L132.63,59.54L132.91,58.16L133.18,57.29L133.46,56.73L133.74,91.8L134.02,54.69L134.57,60.57L134.85,58.15L135.41,56.26L135.69,58.93L135.96,63.2L136.24,57.33L136.52,55.83L136.8,57.89L137.08,55.34L137.35,57.2L137.63,65.8L137.91,55.04L138.47,58.19L138.74,57.61L139.02,57.33L139.3,59.11L139.58,63.34L139.86,57.76L140.13,59.23L140.41,57.89L140.69,113.98L140.97,55.98L141.52,59.17L141.8,59.14L142.08,53.98L142.36,56.83L142.64,60.79L142.91,56.29L143.19,58.95L143.47,62.58L144.58,55.65L144.86,57.41L145.42,63.25L145.69,76.79L146.81,59.78L147.08,60.19L147.36,61.63L147.64,67.65L147.92,61.72L148.47,63.16L148.75,70.23L149.31,55.86L149.59,57.38L149.86,59.51L150.14,58.46L150.42,48.27L151.25,58.54L151.53,56.6L151.81,59.25L152.09,58.79L152.37,55.16L152.92,59.22L153.2,54.15L153.76,61.15L154.03,60.31L154.31,69.56L154.59,50.33L155.15,57.04L155.42,59.3L155.7,57.15L155.98,58.84L156.26,59.71L156.54,61.09L156.81,53.58L157.93,92.83L158.2,56.61L158.48,54.64L158.76,56.92L159.04,55.46L159.32,58.87L159.87,59.19L160.15,56.51L160.43,58.23L160.71,58.2L160.98,57.03L161.26,57.3L161.54,54.31L162.1,62.49L162.37,60.3L162.65,57.35L163.21,56.8L163.49,58.17L163.76,98.8L164.04,58.2L164.32,56.63L164.6,58.15L164.88,54.84L165.15,56.65L165.43,55.8L165.71,55.13L166.27,55.02L166.82,57.73L167.1,68.85L167.38,53.52L167.93,57.96L168.21,58.56L168.49,58.08L168.77,60.82L169.05,58.73L169.6,60.18L169.88,60.74L170.43,58.05L170.71,59.42L170.99,61.97L171.27,58.89L171.55,65.15L172.38,51.83L172.66,55.09L172.94,54.72L173.21,57.89L173.49,79.91L173.77,59.34L174.33,60.09L174.6,57.03L175.16,61.77L175.44,57.7L176.27,73.31L176.55,56.98L176.83,56.44L177.11,57.77L177.38,60.71L177.66,56.7L177.94,54.01L179.05,59.38L179.33,57.69L180.16,66.31L180.44,59.1L181,61.95L181.28,57.93L181.55,54.79L181.83,57.87L182.11,58.43L182.67,58.27L182.94,60.24L183.22,58.15L183.5,57.98L183.78,59.91L184.06,59.15L184.33,65.23L184.61,67.6L184.89,95.2L185.72,60.71L186,70.38L186.84,58.99L187.11,60.92L187.95,63.06L188.23,94.99L188.5,51.91L189.06,58.28L189.34,60.99L189.62,57.44L189.89,60.92L190.17,68.7L191.56,48.37L191.84,59.04L192.12,53.98L192.4,59.18L192.67,60.71L193.51,64.16L193.79,57.77L194.06,53.45L194.62,55.45L194.9,67.14L196.01,54.65L196.29,57.56L197.12,61.93L197.4,58.2L197.68,52.25L197.96,57.4L198.23,57.85L198.51,60.55L198.79,59.95L199.07,56.73L199.9,60.92L200.18,59.5L200.46,144.29L200.74,57.31L201.01,59.38L201.29,61.83L201.57,54.18L202.4,63.67L202.68,60.07L202.96,58.71L203.24,58.61L203.52,61.46L203.79,59.35L204.07,82.26L204.91,51.87L205.18,62.47L206.3,52.85L206.57,63.83L206.85,55.75L207.41,56.66L207.69,58.45L207.96,58.86L208.24,71.3L208.52,55.32L209.08,56.54L209.35,58.96L209.63,58.9L209.91,56.09L210.19,61.36L210.74,58.03L211.02,55.72L211.3,60.28L211.58,57.53L211.86,75.96L212.41,57.51L212.69,57.89L212.97,60.67L213.25,59.39L213.52,45.5L213.8,63.82L214.08,57.72L214.36,50.94L214.91,63.52L215.19,52.52L216.3,60.96L216.58,60.2L217.42,57.74L217.69,61.29L217.97,62.7L218.25,97.28L218.81,57.02L219.08,57.33L219.36,55.24L220.47,59.73L220.75,53L221.58,59.28L221.86,59.08L222.14,56.12L222.42,54.98L222.7,66.68L222.97,58.29L223.53,59.71L223.81,58.98L224.09,33.31L224.36,76.08L224.64,64.21L225.2,61.19L225.48,61.74L225.75,64.09L226.03,58.64L226.31,63.8L226.59,80.7L227.42,58.58L227.7,59.09L227.98,58.96L228.26,55.96L228.81,58.06L229.09,54.76L229.92,59.93L230.2,79.86L230.76,54.02L231.31,54.76L231.59,61.56L232.15,54.69L232.43,60.54L232.7,65.63L232.98,58.21L233.26,61.9L233.54,57.09L234.09,59.26L234.37,57.72L234.65,58.65L234.93,56.32L235.48,55.97L235.76,58L236.04,73.38L236.32,86.39L236.6,56.88L237.15,61.84L237.43,56.61L237.71,56.49L237.99,58.99L238.26,85.71L238.54,56.28L238.82,58.4L239.1,63.89L239.38,58.41L239.65,57.55L239.93,58.25L240.21,56.67L240.49,61.01L241.04,60.47L241.32,57.16L241.6,62.14L241.88,54.78L242.16,56.61L242.43,83.43L242.71,59.82L242.99,59.65L243.82,54.5L244.1,60.85L244.66,56.57L244.94,62.85L245.21,57.57L245.77,60.11L246.05,58.43L246.33,60.68L246.6,57.67L246.88,59.78L247.16,57.17L247.44,60.09L247.72,54.99L247.99,60.74L248.55,57.86L248.83,57.13L249.38,56.48L249.66,51.28L249.94,51.64L250.22,57.04L250.5,60.05L250.77,58.32L251.05,57.71L251.33,63.9L251.61,58.71L251.89,56.08L252.16,56.45L252.44,60.61L252.72,55.24L253,55.9L253.28,63.41L254.39,54.45L254.67,58.46L254.94,58.5L255.22,56.38L256.33,61.89L256.61,58.36L256.89,54.5L257.17,57.37L257.45,85.1L258.56,49.82L258.84,57.24L259.11,58.2L259.67,57.46L259.95,53.42L260.23,58.27L260.5,55.98L260.78,81.64L261.06,53.81L261.62,56.22L261.89,79.57L262.45,57.1L262.73,59.75L263.01,60.74L263.28,54.42L263.56,57.89L263.84,59.56L264.12,82.93L264.4,60.87L264.67,61.5L265.23,62.6L265.51,60.59L265.79,64.64L266.06,60.47L266.34,55.94L267.18,65.09L267.45,56.93L267.73,59.03L268.01,56.9L268.29,57.03L268.57,59.18L268.84,58.84L269.12,93.16L269.96,57.73L270.23,61.18L270.51,61.2L270.79,58.24L271.07,55.53L271.62,56.81L271.9,59.24L272.18,54.23L272.46,61.97L272.73,78.31L273.01,57.22L273.57,58.19L273.85,56.51L274.12,74.95L274.4,56.86L274.68,58.41L274.96,84.43L275.24,56.67L275.51,54.06L275.79,60.98L276.35,58.05L276.63,54.31L277.46,58.8L277.74,55.76L278.02,56.32L278.29,52.69L278.57,63.06L279.13,57.57L279.41,55.41L279.68,62.16L279.96,58.54L280.24,56.62L280.52,57.66L280.8,53.77L281.63,57.76L281.91,53.9L283.3,59.74L283.58,58.86L283.85,58.59L284.69,56.82L284.97,89.9L285.52,57.05L285.8,57.31L286.08,54.42L286.91,113.37L287.19,57.58L287.47,59.6L287.75,55.93L288.02,61.56L288.3,61.47L288.58,55.62L289.41,58.04L289.69,63.18L289.97,55.29L290.25,70.44L290.8,58.61L291.08,61.06L291.36,55.92L291.92,59.26L292.19,57.66L292.47,55.81L292.75,54.6L293.03,58.75L293.86,60.15L294.14,59.63L294.7,55.47L294.97,59.25L295.53,58.33L295.81,65.26L296.09,64.26L296.36,54.53L296.64,60.52L296.92,99.71L297.48,57.48L297.75,60.2L298.03,55.76L298.59,62.35L298.87,59.14L299.14,60.44L299.42,61.71L299.7,53.18L300.81,59.38L301.09,59.52L301.37,59.49L301.65,57.15L301.92,55.93L302.2,68.17L302.76,56.28L303.04,58.05L303.31,114.97L303.59,64.63L304.15,67.95L304.43,59.06L304.7,62.91L305.26,60.67L305.54,58.18L306.09,66.19L306.37,60.47L306.65,60.51L306.93,64.51L308.04,50.78L308.32,61.43L308.6,63.2L308.87,61.43L309.15,78.99L309.43,53.01L309.99,57.62L310.26,58.81L310.54,67.93L310.82,58.85L311.1,59.62L311.38,114.77L311.65,60.37L311.93,58.19L312.21,55.44L312.49,60.04L312.77,59.14L313.32,56.75L313.6,57.67L313.88,57.85L314.16,55.77L314.43,57.96L314.71,59.19L314.99,56.43L315.27,59.44L315.55,58.83L315.82,60.18L316.1,59.24L316.38,59.04L316.66,60.92L316.94,58.56L317.21,58.86L317.49,56.5L317.77,59.15L318.05,58.19L318.33,57.82L318.6,58.9L318.88,57.84L319.16,69.44L319.99,57.46L320.27,58.07L320.83,57.18L321.1,54.55L321.38,55.94L321.66,38.62L322.22,61.54L322.49,55.99L322.77,55.13L323.33,61.06L323.61,58.89L323.88,58.38L324.16,53.55L324.44,57.75L324.72,58.33L325,59.65L325.27,58.55L325.55,56.48L325.83,55.38L326.11,60.54L326.39,57.37L326.94,59.64L327.22,98.71L328.05,50.99L328.33,54.2L328.61,62.07L329.17,59.3L329.44,54.11L329.72,58.43L330.28,55.85L330.56,59.39L330.83,59.39L331.11,53.85L331.67,59.21L331.95,57.64L332.22,52.93L332.5,79.46L332.78,70.9L333.06,55.74L333.61,54.18L333.89,67.64L334.45,55.05L334.73,59.78L335,56.1L335.28,61.87L335.56,57.71L335.84,57.6L336.12,57.5L336.39,66.68L337.23,55.43L337.51,44.9L338.34,58.62L338.62,56.34L338.9,56.87L339.17,54.79L339.45,106.11L339.73,62.76L340.01,56.57L340.29,54.59L340.56,67.56L341.68,54.75L341.95,60.27L342.23,59.87L342.51,54.39L343.07,75.79L343.34,65.13L343.62,66.93L343.9,60.79L344.18,61.42L344.46,58.2L344.73,66.39L345.29,65.28L345.57,61.5L345.85,62.18L346.12,71.99L346.4,60.4L346.96,66.92L347.24,56.92L348.07,64.97L348.35,56.31L348.63,53.1L348.9,56.07L349.18,61.13L349.46,57.4L349.74,59.3L350.02,61.21L350.29,55.44L350.85,57.04L351.13,56.14L351.41,59.57L351.68,85.65L352.8,56.52L353.07,52.4L353.35,52.46L353.63,55.9L353.91,59.8L354.19,59.68L354.46,54.54L355.02,59.53L355.3,54.87L355.85,58.92L356.13,57.16L356.41,57.01L356.69,53.06L356.97,62.09L358.08,53.4L358.36,58.06L358.91,59.08L359.19,53.98L359.47,57.53L359.75,61.44L360.02,58.55L360.3,53.44L360.58,77.64L360.86,60.22L361.14,57.6L361.41,57.1L361.69,54.05L361.97,58.08L362.53,56.52L362.8,56.78L363.08,56.1L363.36,60.07L363.64,56.97L363.92,101.17L364.19,54.99L364.75,58.14L365.03,57.59L365.31,58.54L365.58,56.95L365.86,55.7L366.14,83.71L366.42,59.08L366.7,58.99L367.53,56.64L367.81,57.8L368.09,57.77L368.36,56.12L368.92,55.88L369.2,58.59L369.48,56.99L369.75,57.01L370.03,62.89L370.31,52.95L370.59,64.5L370.86,59.82L371.14,64.1L371.7,53.95L371.98,63.25L372.53,54.89L372.81,56.53L373.09,57.49L373.37,58.1L373.64,57.15L373.92,57.06L374.48,56.53L374.76,62.67L375.31,53.43L375.59,61.67L375.87,53.04L376.15,58.84L376.42,59.52L377.54,56.14L377.81,57.62L378.09,54.03L378.37,56.52L378.65,70.86L379.48,54.41L379.76,63.75L380.87,55.11L381.15,59.13L381.43,64.21L381.71,58.32L381.98,94.64L382.26,56.63L382.54,57.1L382.82,93.3L383.37,59.04L383.65,64.39L383.93,65.28L384.21,65.53L384.49,51.25L385.04,61.57L385.32,61.42L385.6,58.53L385.88,64.29L386.15,58.36L386.43,58.34L386.99,55.55L387.27,55.8L387.54,55.87L387.82,58.9L388.1,100.26L388.66,53.95L388.93,58.57L389.21,58.56L389.49,65.51L389.77,59.09L390.05,55.16L390.88,61.7L391.16,60.81L391.44,55.82L391.71,58.63L392.27,57.5L392.55,58.69L393.1,52.91L393.38,57.14L393.66,57.39L393.94,56.17L394.22,94.95L394.49,59.12L394.77,55.15L395.88,68.31L396.16,71.97L396.72,58.95L397,65.75L397.27,63.02L397.55,62.79L397.83,67.09L399.22,56.92L399.5,62.82L400.61,54.4L400.89,60.78L401.17,76.11L401.44,58.21L401.72,60.78L402,55.83L402.56,58.9L402.83,58.54L403.11,60.49L403.39,53.95L404.5,64.1L404.78,55.37L405.61,59.84L405.89,58.1L406.17,57.54L406.45,114.12L407.28,58.21L407.56,63.01L408.67,55.27L408.95,61.89L410.06,58.5L410.34,78.93L411.17,56.8L411.45,56.98L412.01,60.68L412.29,55.39L412.56,66.33L412.84,54.46L413.12,53.33L413.4,61.6L413.95,57.17L414.23,57.48L414.51,57.12L414.79,58.02L415.34,57.51L415.62,58.64L415.9,58.69L416.18,60.65L416.73,76.52L417.01,63.04L417.57,73.65L417.85,58.17L418.12,54.19L418.4,57.86L418.68,105.99L419.24,44.8L419.51,58.85L419.79,66.74L420.07,58.01L420.63,58.92L420.9,63.07L421.18,55.5L421.74,59.1L422.01,55.89L422.29,54.79L422.57,59.3L423.13,56.94L423.4,60.26L423.68,59.25L423.96,59.79L424.24,61.43L424.79,56.93L425.07,62.23L425.35,57.7L425.91,58.6L426.18,59.51L426.74,58.01L427.02,55.37L427.3,57.94L427.85,56.73L428.13,58.31L428.41,56.22L428.96,56.43L429.24,57.15L429.52,55.74L429.8,58.4L430.35,56.77L430.63,59.75L430.91,59.26L431.19,61.09L431.74,53.6L432.02,55.96L432.3,58.01L432.58,61.8L432.86,56.34L433.13,57.63L433.41,60.85L433.69,58.94L433.97,57.84L434.25,64.97L434.52,57.3L434.8,58.79L435.36,63.35L435.64,57.33L435.91,57.33L436.19,58.85L436.47,57.86L436.75,94.06L437.58,55.41L437.86,66.66L438.42,55.51L438.69,56.64L438.97,57.13L439.25,58.41L439.53,55.44L439.81,55.3L440.08,63.34L440.64,74.33L440.92,58.35L441.2,55.19L441.47,56.82L441.75,65.81L442.03,91.16L442.59,74.49L442.86,70.36L443.7,56.95L443.98,59.69L444.25,56.88L444.53,58.35L444.81,60.4L445.37,79.14L445.64,70.49L445.92,59.73L446.2,75.37L446.48,69.73L446.76,56.33L447.31,58.94L447.59,63.66L448.15,62.38L448.42,59.48L448.7,57.96L448.98,97.2L449.81,61.11L450.09,114.72L450.37,55.62L450.93,59.93L451.2,59.03L451.48,56.07L451.76,63.34L452.32,59.07L452.59,72.48L452.87,72.85L453.15,71.87L453.43,76.36L453.71,61.82L453.98,58.24L454.26,70.12L454.54,103.62L454.82,66.73L455.1,58.33L455.65,65.55L455.93,56.76L456.21,57.58L456.49,55.65L457.04,70.6L457.32,61.45L457.6,68.38L458.15,57.19L458.71,58.52L458.99,66.34L459.27,58.16L459.82,61.61L460.1,60.89L460.93,75.93L461.21,99.9L461.49,58.43L462.05,71.22L462.32,64.05L463.16,60.42L463.44,57.46L463.71,54.93L463.99,58.48L464.27,66.4L465.1,56.18L465.38,63.16L466.22,57.37L466.49,65.04L466.77,59.51L467.33,61.49L467.61,59.25L467.88,58.13L468.16,59.94L468.44,62.69L469,56.95L469.27,60.15L469.55,60.49L470.11,58.35L470.39,59.24L470.66,61.31L470.94,60.94L471.22,58.23L471.77,56.31L472.05,63.01L472.61,58.67L472.89,66.59L473.16,57.58L473.44,103.31L474.28,56.06L474.55,115.95L475.39,50.34L475.67,57.85L475.94,60.84L476.5,60.77L476.78,48.31L477.61,76.01L477.89,72.97L478.17,62.56L478.45,66.52L478.72,57.99L479.28,58.6L479.56,57.84L479.84,59.86L480.11,59.27L480.39,56.08L481.5,60.83L481.78,60.63L482.06,55.55L482.34,57.37L482.62,59.91L482.89,56.38L483.17,60.05L483.45,59.66L483.73,125.8L484.01,52.9L484.28,63.2L484.56,63.62L484.84,65.41L485.12,58.32L485.67,60.96L485.95,57.69L486.79,61.12L487.06,57.99L487.34,59.11L487.9,58.83L488.18,64.4L488.45,57.86L488.73,59.99L489.01,73.18L489.84,54.76L490.12,58.7L490.4,54.98L490.68,65.59L490.96,58.62L491.23,78.88L492.35,59.53L492.62,58.7L492.9,59.08L493.18,54.83L493.46,55.05L493.74,61.11L494.29,50.98L494.57,58.32L495.68,54.27L495.96,56.41L496.24,97.16L496.52,93.84L496.79,57.92L497.07,53.91L497.35,55.52L497.63,59.21L498.74,55.74L499.02,56.72L499.3,58.21L499.57,54.42L499.85,58.99L500.13,58.66L500.41,55.28L500.69,65.9L500.96,55.77L501.24,54.77L502.08,61.94L502.35,73.22L502.91,58.08L503.19,58.89L503.47,62.06L503.74,103.18L504.02,66.41L504.3,58.45L504.86,56.15L505.13,57.73L505.41,63.49L505.69,49.94L505.97,59.91L506.52,54.71L506.8,58.03L507.08,70.19L507.36,57.96L507.64,60.42L508.19,53.83L508.47,59.81L509.3,56.23L509.58,57.93L509.86,59.34L510.14,57.12L510.42,66.37L510.69,62.7L510.97,76.17L512.08,55.15L512.36,59.11L512.64,68.25L512.92,57.79L513.2,61.93L513.47,56.6L514.03,58.56L514.31,60.29L514.59,69.93L514.86,56.71L515.14,62.23L515.42,53.61L515.7,60.29L515.98,91.8L516.25,59.85L516.81,62.3L517.09,63.24L517.64,51.31L517.92,58.99L518.2,61.34L518.48,62.57L519.03,61.63L519.31,60.19L520.15,55.65L520.42,45.83L520.98,61.61L521.26,59.94L521.53,55.97L522.37,60.65L522.65,58.34L522.92,54.86L523.2,59.36L523.48,59.98L524.31,52.52L524.59,55.41L524.87,61.28L525.15,61.06L525.43,64.65L525.98,58.54L526.26,59.68L526.54,58.16L526.82,55.61L527.09,59L527.37,56.53L527.65,59.38L527.93,62.51L528.21,94.71L528.76,57.36L529.04,63.24L529.32,74.9L529.6,57.75L530.15,60.06L530.43,59.64L530.71,57.22L530.99,59.37L531.26,61.3L531.54,60.07L531.82,64.48L532.38,56.1L532.65,69.72L533.49,55.79L533.77,58.28L534.04,58.49L534.32,57.65L534.6,70.05L535.16,78.37L535.43,62.27L535.71,60.48L535.99,66.04L536.82,56.14L537.1,66.84L537.66,77.59L537.94,65.7L538.49,60.29L538.77,61.56L539.05,62.78L539.33,61.92L539.6,57.11L539.88,62.99L540.16,62.54L540.44,57.8L540.72,60.11L541.27,60L541.55,58.72L541.83,57.02L542.11,61.91L542.38,62.87L542.66,59.1L542.94,62.37L543.22,57.42L543.5,57.37L543.77,58.54L544.05,56.17L544.33,56.45L544.61,58.6L544.89,59.8L545.16,59.63L545.44,58.27L545.72,59.22L546,186.53L547.11,56.61L547.39,61.06L548.22,57.04L548.5,58.61L548.78,62.18L549.06,56.26L549.33,56.26L549.61,55.11L549.89,61.07L550.17,55.25L550.45,58.45L550.72,59.97L551.28,58.98L551.56,53.34L552.11,58.61L552.39,53.41L553.5,73.96L553.78,53.09L554.34,51.79L554.62,59.17L554.89,42.18L555.17,58.92L555.73,57.21L556.01,60.36L556.28,64.64L556.56,51.26L556.84,57.98L557.4,55.61L557.67,56.24L557.95,55.66L558.23,73.33L558.51,96.41L558.79,59.9L559.06,64.06L559.34,58.77L559.9,61.08L560.18,68.62L561.29,58.39L561.57,94.85L561.84,59.69L562.4,68.51L562.68,59.29L563.79,67.94L564.07,56.51L564.35,59.45L564.62,79.55L564.9,57.02L565.46,59.95L565.74,55.91L566.57,74.79L566.85,69.87L567.4,57.75L567.68,60.09L567.96,56.82L568.24,63.56L568.52,59.75L568.79,52.48L569.63,58.31L569.91,54.81L570.46,60.42L570.74,93.74L571.29,56.71L571.57,60.82L571.85,67.91L572.68,56.79L572.96,60.36L573.24,63.56L573.52,59.76L573.8,57.94L574.07,59.87L574.63,59.47L574.91,57.5L575.19,58.92L575.46,57.88L575.74,57.77L576.3,59.12L576.58,58.1L576.85,57.46L577.13,57.76L577.41,73.68L577.69,51.77L578.24,58.62L578.52,57.57L578.8,60.74L579.08,56.51L579.36,47.68L579.63,59.19L580.19,56.32L580.47,59.93L580.75,58.85L581.02,60.1L581.3,60.18L581.58,56.77L581.86,59.62L582.14,62.82L582.41,61.83L582.69,95.44L583.8,42.99L584.08,64.9L584.92,55.1L585.19,64.44L586.31,51.14L586.58,59.08L586.86,56.65L587.14,60.46L587.42,68.94L587.97,60.13L588.25,76.35L588.81,57.77L589.36,59.62L589.64,58.06L589.92,56.72L590.2,66.42L591.31,56.79L591.59,61.81L591.87,55.19L592.14,62.55L592.42,59.11L592.7,60.39L592.98,56.37L593.53,57.64L593.81,55.44L594.65,60.75L594.92,60.24L595.2,59.9L595.48,56.58L595.76,58.77L596.04,57.24L596.31,55.65L596.59,57.52L596.87,110.76L597.7,57.07L597.98,58.05L598.26,56.77L598.54,75.26L598.82,58.02L599.37,59.87L599.65,65.9L600.21,59.45L600.48,61.72L600.76,129.81L601.6,58.48L601.87,65.19L602.15,58.19L602.43,59.85L602.71,57.77L602.99,65.37L603.26,56.62L603.82,60.85L604.1,70.77L604.38,68.1L604.65,56.69L604.93,57.93L605.21,56.51L605.49,56.22L605.77,55.91L606.04,60.13L606.32,57.65L606.6,63.37L607.43,55.7L607.71,57.63L607.99,64.01L608.55,61.56L608.82,57.32L609.1,57.63L609.38,55.53L609.66,55.89L609.94,52.79L610.21,58.5L610.77,54.84L611.05,58.69L611.6,50.75L611.88,61.03L612.16,54.48L612.72,55.53L612.99,125.83L613.55,56.35L613.83,57.7L614.11,60.43L614.38,57.93L614.94,58.32L615.22,57.42L615.77,55.48L616.05,56.57L616.33,59.39L616.89,53.48L617.16,57.17L617.44,56.96L617.72,51.97L618.28,58.29L618.83,57.95L619.11,55.66L619.94,58.91L620.22,55.07L620.78,58.99L621.05,56.64L621.33,58.08L621.61,57.09L621.89,60.21L622.17,55.09L622.72,57.6L623,59.14L623.83,61.67L624.11,57.02L624.39,58.75L624.67,57.89L624.95,76.54L625.78,55.85L626.06,58.63L626.34,60.25L626.89,59.63L627.17,59.46L627.45,58.84L627.73,60.45L628,61.39L628.28,59.07L628.56,58.98L628.84,60.61L629.39,54.57L629.67,54.9L629.95,58.17L630.51,57.04L630.78,59.23L631.62,60.28L631.9,53.62L633.01,59.15L633.29,57.75L633.84,60.21L634.12,58.78L634.4,54.86L634.68,55.64L634.95,61.12L635.23,62.5L635.51,58.58L635.79,57.55L636.07,59.24L636.34,60.93L636.9,56.74L637.18,109.52L637.46,56.35L638.01,58.28L638.29,67.6L638.85,56.67L639.12,57.62L639.4,59.32L639.68,70.28L639.96,57.97L640.24,58.45L641.07,56.45L641.35,57.5L642.18,59.72L642.46,55.17L643.29,58.51L643.57,57.77L643.85,59.01L644.41,51.6L644.68,62.43L644.96,56.48L645.24,57.16L645.52,60.74L645.8,55.58L646.35,57.7L646.63,56.78L647.46,59.75L647.74,54.83L648.02,57.8L648.58,57.25L648.85,56.5L649.41,56.94L649.69,56.13L649.97,59.9L650.24,57.08L650.52,56.25L650.8,63.42L651.08,44.62L651.91,77.76L652.19,73.02L652.47,58.82L652.75,59.79L653.02,66.89L653.3,54.72L653.58,72.54L653.86,66.3L654.14,73.21L654.41,61.86L654.69,56.31L655.25,92.17L655.53,57.64L655.8,56.95L656.08,53.77L656.64,75.67L656.92,60.98L657.19,60.81L657.47,64.87L657.75,55.01L658.86,65.54L659.14,59.77L659.97,55.75L660.25,57.61L660.53,60.91L660.81,55.14L661.92,57.79L662.2,55.59L662.48,54.21L662.75,59.92L663.31,106.61L663.59,104.2L663.87,70.42L664.14,62.25L664.42,68.67L664.7,78.35L665.53,55.93L665.81,57.13L666.09,60.51L666.37,64.72L666.65,61.19L666.92,58.38L667.2,55.88L667.48,80.36L668.04,53.67L668.31,61.1L668.59,66.73L669.7,57.04L669.98,58.8L670.54,61.59L670.82,58.01L671.65,59.07L671.93,64.09L672.48,59.18L672.76,59.43L673.04,59.2L673.32,67.82L673.59,55.24L673.87,57.6L674.15,67.84L674.43,63.67L674.71,57.54L674.98,58.84L675.26,52.35L675.54,60.12L676.1,56.97L676.37,59.66L676.65,56.41L676.93,61.08L677.21,59.19L677.76,54.89L678.04,60.04L678.32,60.75L678.6,57.52L678.88,66.93L679.15,58.76L679.43,58.1L679.71,97.5L679.99,62.29L680.27,56.8L680.82,58.95L681.1,58.31L681.38,65.12L681.66,72.04L681.93,60.32L682.21,58.96L682.49,57.79L682.77,43.55L683.32,60.3L683.6,60.07L683.88,56.07L684.44,61.07L684.71,56.64L684.99,58.92L685.27,58.79L685.55,81.35L686.1,55.62L686.38,59.38L686.66,57.11L687.49,57.56L687.77,55.36L688.33,58.4L688.61,66.1L688.88,56.56L689.44,59.15L689.72,66.3L690.55,57.75L690.83,59.92L691.11,56.55L691.66,56.64L691.94,84.62L692.78,57.29L693.05,59.91L693.61,60.05L693.89,56.61L694.17,58L694.44,67.4L694.72,56.62L695,56.37L695.83,59.5L696.11,57.78L696.39,55.47L696.67,57.37L696.95,59.32L697.22,55.36L697.78,56.59L698.06,58.77L698.34,59.04L698.61,57.28L698.89,59.21L699.45,58.22L699.73,57.71L700,57.42L700.28,55.97L701.12,59.04L701.39,57.98L701.67,59.89L701.95,56.23L702.23,58.03L702.51,55.87L702.78,57.36L703.06,56.53L703.34,55.26L703.62,59.01L703.9,72.31L704.17,57.01L704.45,57.98L704.73,57.52L705.01,63.36L706.12,52.98L706.4,59.56L706.95,53.15L707.23,58.09L707.51,59.3L708.07,58.12L708.34,58.59L708.62,58.81L708.9,57.42L709.18,67.24L709.46,60.17L709.73,83.94L710.57,59.74L710.85,62.76L711.12,58.02L711.68,60.83L711.96,62.25L712.79,58.56L713.07,65.75L713.35,61.2L713.63,68.9L714.46,59.06L714.74,64.86L715.02,58.56L715.57,60.04L715.85,59.2L716.13,65.02L716.41,64.29L716.68,59.67L716.96,57.18L717.24,65.04L717.52,61.46L717.8,68.03L718.07,77.33L718.35,71.53L718.63,61.87L718.91,57.9L719.46,59.29L719.74,61.07L720.58,55.55L720.85,60.39L721.41,63.04L721.69,59.88L721.96,59.5L722.24,61.88L722.8,56.1L723.08,63.77" style="vector-effect: none; fill: none; stroke: rgb(0, 204, 150); stroke-opacity: 1; stroke-width: 1px; opacity: 1;"/></g><g class="points"/><g class="text"/></g><g class="trace scatter tracef50e7b" style="stroke-miterlimit: 2; opacity: 1;"><g class="fills"/><g class="errorbars"/><g class="lines"><path class="js-line" d="M0.31,65.45L0.86,65.95L1.14,68.09L1.42,68.36L1.7,67.35L2.81,65.7L3.09,65.95L5.87,64.02L6.14,64.06L10.87,64.06L11.15,64.06L21.15,64.62L21.43,65.05L22.82,65.7L23.1,65.85L25.05,69.17L25.32,69.4L27.83,69.47L28.1,69.47L30.61,68.88L30.88,66.4L32.27,65.9L32.55,65.64L34.5,65.07L34.78,64.76L35.61,64.02L35.89,64.76L37,64.01L37.28,63.81L43.39,64.78L43.67,65.33L46.45,64.75L46.73,63.84L49.51,63.21L49.79,62.9L53.96,62.6L54.24,62.44L56.46,61.92L56.74,58.21L59.8,57.14L60.07,57.63L65.08,57.96L65.36,58.82L67.3,62.25L67.58,62.25L70.08,61.76L70.36,61.07L70.91,60.54L71.19,58.88L73.97,58.07L74.25,58.46L75.36,58.79L75.64,58.79L81.76,59L82.03,59.61L82.87,59L83.15,59L86.76,58.29L87.04,58.19L88.15,58.29L88.43,58.29L98.16,57.79L98.44,57.49L102.88,57.79L103.16,58.13L104.27,58.82L104.55,59.64L110.11,59.34L110.39,58.8L111.22,57.94L111.5,57.94L111.78,57.31L112.06,57.94L112.34,57.94L117.34,57.96L117.62,58.15L121.51,58.8L121.79,58.98L123.18,58.98L123.45,59.95L124.29,59.95L124.57,59.22L125.96,58.92L126.23,58.8L128.46,58.44L128.74,58.43L134.3,57.77L134.57,57.33L135.69,57.77L135.96,57.77L142.08,57.93L142.36,58.95L145.14,60.19L145.42,60.79L146.81,60.94L147.08,60.19L149.31,59.51L149.59,59.25L151.53,58.46L151.81,58.18L152.09,58.18L152.37,57.38L152.64,57.38L152.92,58.18L154.59,58.84L154.87,58.84L157.65,58.2L157.93,57.3L158.48,57.3L158.76,58.2L159.32,58.2L159.59,57.35L164.6,57.17L164.88,57.17L167.1,58.08L167.38,58.08L169.88,58.73L170.16,58.89L173.21,59.34L173.49,58.97L174.88,58.88L175.16,57.94L176.27,57.94L176.55,58.82L178.22,58.82L178.5,57.94L181,58.43L181.28,58.82L183.5,60.15L183.78,60.15L186.84,61.63L187.11,62.02L187.95,62.02L188.23,61.63L189.34,60.92L189.62,60.92L191.56,59.73L191.84,59.18L194.34,59.04L194.62,58.2L196.01,58.01L196.29,58.01L197.68,58.2L197.96,59.09L198.23,59.09L198.51,58.2L199.62,59.38L199.9,59.38L203.52,59.35L203.79,58.71L206.02,58.61L206.3,58.61L208.24,58.03L208.52,58.45L214.36,58.03L214.64,59L215.47,58.6L215.75,58.03L216.58,58.03L216.86,57.74L217.97,58.03L218.25,58.03L222.7,58.74L222.97,58.98L224.64,59.28L224.92,59.28L226.31,59.09L226.59,59.49L227.7,59.93L227.98,59.49L229.92,58.96L230.2,58.59L239.1,58.41L239.38,58.99L243.27,58.43L243.55,59.49L244.1,59.49L244.38,58.43L246.05,58.31L246.33,57.86L247.72,57.71L247.99,57.86L248.27,58.32L248.83,57.86L249.11,57.86L251.05,57.13L251.33,57.71L253,57.71L253.28,58.32L258,57.69L258.28,57.46L261.89,58.2L262.17,58.27L263.56,60.47L263.84,60.59L265.23,60.47L265.51,59.75L266.34,60.47L266.62,59.56L267.45,60.59L267.73,60.47L268.84,58.84L269.12,58.84L273.01,58.19L273.29,58.05L278.29,57.57L278.57,56.67L281.63,56.82L281.91,57.57L282.74,56.82L283.02,57.05L283.3,57.05L285.8,57.58L286.08,57.89L288.02,58.04L288.3,58.04L293.31,58.75L293.58,59.11L294.97,58.47L295.25,58.75L296.92,59.14L297.2,58.47L298.87,59.14L299.14,59.38L299.7,58.05L299.98,59.14L303.59,59.73L303.87,60.47L306.09,60.88L306.37,61.43L307.21,60.88L307.48,60.67L310.26,59.14L310.54,58.85L315.82,58.83L316.1,58.83L319.44,58.19L319.72,58.07L328.61,57.64L328.89,57.52L329.44,58.34L329.72,57.64L330.83,57.52L331.11,56.62L331.67,56.62L331.95,57.64L339.45,58.05L339.73,58.62L341.12,59.01L341.4,59.87L342.51,60.79L342.79,61.42L343.34,60.79L343.62,61.42L347.51,61.13L347.79,60.4L349.18,60.28L349.46,59.57L350.02,59.13L350.29,57.4L350.57,57.4L350.85,59.13L351.68,57.4L351.96,57.4L352.52,58.14L352.8,58.01L353.07,58.01L354.19,57.16L354.46,57.34L356.97,57.53L357.24,58.01L358.91,57.53L359.19,57.16L360.86,57.1L361.14,57.53L378.37,57.62L378.65,58.28L380.59,58.32L380.87,59.04L381.43,59.13L381.71,60.19L382.82,60.66L383.1,60.66L384.49,59.04L384.76,59.04L387.27,58.53L387.54,58.53L389.21,58.34L389.49,57.5L390.88,57.39L391.16,57.5L393.1,57.5L393.38,57.5L394.49,58.69L394.77,58.69L395.33,59.12L395.61,61.36L399.22,61.36L399.5,60.78L400.33,60.49L400.61,59.85L401.17,59.85L401.44,59.06L403.11,58.83L403.39,58.9L411.17,58.5L411.45,58.42L415.07,58.42L415.34,58.64L424.24,58.6L424.52,58.09L425.35,58.01L425.63,58.01L433.41,58.01L433.69,58.79L433.97,58.79L434.25,58.01L439.81,58.41L440.08,59.16L440.92,58.41L441.2,58.41L441.47,58.41L441.75,59.69L443.7,64.39L443.98,61.83L444.25,61.83L444.53,63.21L445.09,63.21L445.37,62.38L446.76,62.38L447.03,61.11L448.15,61.11L448.42,62.38L449.26,60.55L449.54,61.11L450.65,61.82L450.93,62.38L451.76,61.82L452.04,62.59L452.32,63.34L452.59,62.59L452.87,61.82L453.15,61.11L453.43,61.82L453.71,61.82L453.98,61.82L454.26,63.34L455.1,65.28L455.37,65.28L456.21,65.28L456.49,61.82L457.32,61.61L457.6,64.59L457.88,64.59L458.15,61.61L458.43,61.61L458.71,64.59L459.27,62.83L459.54,63.87L459.82,63.87L460.1,63.87L460.38,62.83L461.49,60.89L461.77,60.89L462.32,61.61L462.6,60.89L463.44,60.89L463.71,60.67L464.27,60.42L464.55,59.79L471.77,59.24L472.05,58.67L473.72,59.24L474,59.47L477.33,59.27L477.61,58.6L479,59.27L479.28,59.76L480.11,59.27L480.39,59.66L482.06,58.6L482.34,59.27L491.51,59.06L491.79,58.7L494.85,58.32L495.13,57.92L496.52,57.08L496.79,57.37L499.3,57.37L499.57,57.92L510.14,58.54L510.42,59.11L510.69,58.56L511.25,59.11L511.53,59.11L513.47,60.29L513.75,61.93L514.86,59.85L515.14,59.85L516.25,60.29L516.53,60.29L521.81,59.01L522.09,59.01L525.43,59.01L525.7,59.36L532.1,60.07L532.38,60.23L534.04,60.71L534.32,61.3L535.16,62.67L535.43,62.27L535.99,62.67L536.27,62.27L536.55,62.27L537.66,62.54L537.94,62.54L539.33,61.91L539.6,61.91L540.44,61.56L540.72,60.29L543.22,59.1L543.5,59.1L544.33,58.72L544.61,59.1L545.72,58.61L546,58.6L547.67,58.61L547.94,58.98L554.06,58.45L554.34,57.98L554.89,57.21L555.17,57.98L556.56,58.67L556.84,58.77L557.95,59.17L558.23,59.9L559.34,60.36L559.62,60.91L561.01,61.08L561.29,62.11L561.84,62.11L562.12,61.08L562.68,61.08L562.96,62.11L563.51,62.88L563.79,62.48L564.07,62.11L564.35,62.11L564.62,60.62L564.9,62.48L565.18,60.62L565.46,60.62L566.85,59.45L567.13,59.45L567.68,59.45L567.96,58.52L568.24,58.52L568.52,59.75L569.35,58.33L569.63,58.33L579.08,58.85L579.36,58.99L581.3,59.19L581.58,59.02L582.97,59.19L583.25,59.08L584.92,59.62L585.19,60.13L586.31,59.52L586.58,59.08L594.09,58.9L594.37,58.77L595.2,58.05L595.48,58.05L596.87,58.77L597.15,59.45L598.26,59.87L598.54,59.87L598.82,59.45L599.37,59.85L599.65,59.87L600.76,59.87L601.04,60.85L601.87,60.85L602.15,59.87L603.54,59.45L603.82,58.48L605.21,57.93L605.49,57.92L607.43,57.63L607.71,57.63L608.82,57.44L609.1,57.63L612.44,57.42L612.72,56.68L613.55,57.7L613.83,57.42L615.22,57.17L615.5,57.17L620.78,57.6L621.05,57.95L623.56,58.63L623.83,58.75L626.61,58.98L626.89,58.84L628.84,58.98L629.12,58.98L639.4,58.45L639.68,58.28L642.46,57.62L642.74,57.5L651.36,57.8L651.63,58.2L652.47,58.82L652.75,58.82L654.14,61.86L654.41,60.98L656.36,60.81L656.64,59.77L657.19,59.77L657.47,58.74L658.58,57.83L658.86,57.79L661.36,58.16L661.64,58.74L663.03,58.74L663.31,59.92L664.98,60.51L665.26,61.1L667.2,61.1L667.48,60.51L668.59,59.07L668.87,59.39L683.32,58.79L683.6,58.31L685.55,57.56L685.83,57.45L689.44,57.75L689.72,58.4L690,57.75L690.27,58.4L690.55,58.4L693.05,58.43L693.33,58L706.4,58.12L706.68,58.59L708.9,59.56L709.18,59.56L710.01,60.17L710.29,60.55L712.79,61.2L713.07,61.58L713.9,60.83L714.18,61.2L714.46,61.2L715.57,61.46L715.85,61.46L717.8,60.39L718.07,60.39L723.08,60.39" style="vector-effect: none; fill: none; stroke: rgb(0, 204, 150); stroke-opacity: 1; stroke-width: 2.4px; opacity: 1;"/></g><g class="points"/><g class="text"/></g></g></g><g class="xy2" transform="translate(84,118)" clip-path="url(#clipcef0f0xy2plot)"><g class="scatterlayer mlayer"><g class="trace scatter trace0abd2d" style="stroke-miterlimit: 2; opacity: 1;"><g class="fills"/><g class="errorbars"/><g class="lines"/><g class="points"><path class="point" transform="translate(0.31,62.7)" d="M3,0A3,3 0 1,1 0,-3A3,3 0 0,1 3,0Z" style="opacity: 0; stroke-width: 0px; fill: rgb(0, 204, 150); fill-opacity: 1;"/></g><g class="text"/></g></g></g></g><g class="zerolinelayer-above"/><path class="xlines-above crisp" d="M83,464.5H837" style="fill: none; stroke-width: 1px; stroke: rgb(207, 213, 223); stroke-opacity: 1;"/><path class="ylines-above crisp" d="M83.5,118V464" style="fill: none; stroke-width: 1px; stroke: rgb(207, 213, 223); stroke-opacity: 1;"/><g class="overlines-above"><path class="xy2-x crisp" d="M0,0" style="fill: none;"/><path class="xy2-y crisp" d="M836.5,118V464" style="fill: none; stroke-width: 1px; stroke: rgb(207, 213, 223); stroke-opacity: 1;"/></g><g class="xaxislayer-above"><path class="xtick ticks crisp" d="M0,465v5" transform="translate(84,0)" style="stroke: rgb(207, 213, 223); stroke-opacity: 1; stroke-width: 1px;"/><path class="xtick ticks crisp" d="M0,465v5" transform="translate(225.39,0)" style="stroke: rgb(207, 213, 223); stroke-opacity: 1; stroke-width: 1px;"/><path class="xtick ticks crisp" d="M0,465v5" transform="translate(366.78,0)" style="stroke: rgb(207, 213, 223); stroke-opacity: 1; stroke-width: 1px;"/><path class="xtick ticks crisp" d="M0,465v5" transform="translate(508.18,0)" style="stroke: rgb(207, 213, 223); stroke-opacity: 1; stroke-width: 1px;"/><path class="xtick ticks crisp" d="M0,465v5" transform="translate(649.57,0)" style="stroke: rgb(207, 213, 223); stroke-opacity: 1; stroke-width: 1px;"/><path class="xtick ticks crisp" d="M0,465v5" transform="translate(790.96,0)" style="stroke: rgb(207, 213, 223); stroke-opacity: 1; stroke-width: 1px;"/><g class="xtick"><text text-anchor="middle" x="0" y="484.4" transform="translate(84,0)" style="font-family: -apple-system, BlinkMacSystemFont, 'Segoe UI', sans-serif; font-size: 12px; fill: rgb(107, 114, 128); fill-opacity: 1; white-space: pre;">0</text></g><g class="xtick"><text text-anchor="middle" x="0" y="484.4" style="font-family: -apple-system, BlinkMacSystemFont, 'Segoe UI', sans-serif; font-size: 12px; fill: rgb(107, 114, 128); fill-opacity: 1; white-space: pre;" transform="translate(225.39,0)">2B</text></g><g class="xtick"><text text-anchor="middle" x="0" y="484.4" style="font-family: -apple-system, BlinkMacSystemFont, 'Segoe UI', sans-serif; font-size: 12px; fill: rgb(107, 114, 128); fill-opacity: 1; white-space: pre;" transform="translate(366.78,0)">4B</text></g><g class="xtick"><text text-anchor="middle" x="0" y="484.4" style="font-family: -apple-system, BlinkMacSystemFont, 'Segoe UI', sans-serif; font-size: 12px; fill: rgb(107, 114, 128); fill-opacity: 1; white-space: pre;" transform="translate(508.18,0)">6B</text></g><g class="xtick"><text text-anchor="middle" x="0" y="484.4" style="font-family: -apple-system, BlinkMacSystemFont, 'Segoe UI', sans-serif; font-size: 12px; fill: rgb(107, 114, 128); fill-opacity: 1; white-space: pre;" transform="translate(649.57,0)">8B</text></g><g class="xtick"><text text-anchor="middle" x="0" y="484.4" style="font-family: -apple-system, BlinkMacSystemFont, 'Segoe UI', sans-serif; font-size: 12px; fill: rgb(107, 114, 128); fill-opacity: 1; white-space: pre;" transform="translate(790.96,0)">10B tokens</text></g></g><g class="yaxislayer-above"><path class="ytick ticks crisp" d="M83,0h-5" transform="translate(0,464)" style="stroke: rgb(207, 213, 223); stroke-opacity: 1; stroke-width: 1px;"/><path class="ytick ticks crisp" d="M83,0h-5" transform="translate(0,397.46)" style="stroke: rgb(207, 213, 223); stroke-opacity: 1; stroke-width: 1px;"/><path class="ytick ticks crisp" d="M83,0h-5" transform="translate(0,330.91999999999996)" style="stroke: rgb(207, 213, 223); stroke-opacity: 1; stroke-width: 1px;"/><path class="ytick ticks crisp" d="M83,0h-5" transform="translate(0,264.38)" style="stroke: rgb(207, 213, 223); stroke-opacity: 1; stroke-width: 1px;"/><path class="ytick ticks crisp" d="M83,0h-5" transform="translate(0,197.85)" style="stroke: rgb(207, 213, 223); stroke-opacity: 1; stroke-width: 1px;"/><path class="ytick ticks crisp" d="M83,0h-5" transform="translate(0,131.31)" style="stroke: rgb(207, 213, 223); stroke-opacity: 1; stroke-width: 1px;"/><g class="ytick"><text text-anchor="end" x="75.6" y="4.199999999999999" transform="translate(0,464)" style="font-family: -apple-system, BlinkMacSystemFont, 'Segoe UI', sans-serif; font-size: 12px; fill: rgb(107, 114, 128); fill-opacity: 1; white-space: pre;">0</text></g><g class="ytick"><text text-anchor="end" x="75.6" y="4.199999999999999" style="font-family: -apple-system, BlinkMacSystemFont, 'Segoe UI', sans-serif; font-size: 12px; fill: rgb(107, 114, 128); fill-opacity: 1; white-space: pre;" transform="translate(0,397.46)">50K</text></g><g class="ytick"><text text-anchor="end" x="75.6" y="4.199999999999999" style="font-family: -apple-system, BlinkMacSystemFont, 'Segoe UI', sans-serif; font-size: 12px; fill: rgb(107, 114, 128); fill-opacity: 1; white-space: pre;" transform="translate(0,330.91999999999996)">100K</text></g><g class="ytick"><text text-anchor="end" x="75.6" y="4.199999999999999" style="font-family: -apple-system, BlinkMacSystemFont, 'Segoe UI', sans-serif; font-size: 12px; fill: rgb(107, 114, 128); fill-opacity: 1; white-space: pre;" transform="translate(0,264.38)">150K</text></g><g class="ytick"><text text-anchor="end" x="75.6" y="4.199999999999999" style="font-family: -apple-system, BlinkMacSystemFont, 'Segoe UI', sans-serif; font-size: 12px; fill: rgb(107, 114, 128); fill-opacity: 1; white-space: pre;" transform="translate(0,197.85)">200K</text></g><g class="ytick"><text text-anchor="end" x="75.6" y="4.199999999999999" style="font-family: -apple-system, BlinkMacSystemFont, 'Segoe UI', sans-serif; font-size: 12px; fill: rgb(107, 114, 128); fill-opacity: 1; white-space: pre;" transform="translate(0,131.31)">250K</text></g></g><g class="overaxes-above"><g class="xy2-x"/><g class="xy2-y"><path class="y2tick ticks crisp" d="M837,0h5" transform="translate(0,464)" style="stroke: rgb(207, 213, 223); stroke-opacity: 1; stroke-width: 1px;"/><path class="y2tick ticks crisp" d="M837,0h5" transform="translate(0,387.56)" style="stroke: rgb(207, 213, 223); stroke-opacity: 1; stroke-width: 1px;"/><path class="y2tick ticks crisp" d="M837,0h5" transform="translate(0,311.12)" style="stroke: rgb(207, 213, 223); stroke-opacity: 1; stroke-width: 1px;"/><path class="y2tick ticks crisp" d="M837,0h5" transform="translate(0,234.69)" style="stroke: rgb(207, 213, 223); stroke-opacity: 1; stroke-width: 1px;"/><path class="y2tick ticks crisp" d="M837,0h5" transform="translate(0,158.25)" style="stroke: rgb(207, 213, 223); stroke-opacity: 1; stroke-width: 1px;"/><g class="y2tick"><text text-anchor="start" x="844.4" y="4.199999999999999" transform="translate(0,464)" style="font-family: -apple-system, BlinkMacSystemFont, 'Segoe UI', sans-serif; font-size: 12px; fill: rgb(107, 114, 128); fill-opacity: 1; white-space: pre;">0%</text></g><g class="y2tick"><text text-anchor="start" x="844.4" y="4.199999999999999" style="font-family: -apple-system, BlinkMacSystemFont, 'Segoe UI', sans-serif; font-size: 12px; fill: rgb(107, 114, 128); fill-opacity: 1; white-space: pre;" transform="translate(0,387.56)">4%</text></g><g class="y2tick"><text text-anchor="start" x="844.4" y="4.199999999999999" style="font-family: -apple-system, BlinkMacSystemFont, 'Segoe UI', sans-serif; font-size: 12px; fill: rgb(107, 114, 128); fill-opacity: 1; white-space: pre;" transform="translate(0,311.12)">8%</text></g><g class="y2tick"><text text-anchor="start" x="844.4" y="4.199999999999999" style="font-family: -apple-system, BlinkMacSystemFont, 'Segoe UI', sans-serif; font-size: 12px; fill: rgb(107, 114, 128); fill-opacity: 1; white-space: pre;" transform="translate(0,234.69)">12%</text></g><g class="y2tick"><text text-anchor="start" x="844.4" y="4.199999999999999" style="font-family: -apple-system, BlinkMacSystemFont, 'Segoe UI', sans-serif; font-size: 12px; fill: rgb(107, 114, 128); fill-opacity: 1; white-space: pre;" transform="translate(0,158.25)">16%</text></g></g></g></g><g class="subplot xy2"/></g><g class="polarlayer"/><g class="smithlayer"/><g class="ternarylayer"/><g class="geolayer"/><g class="funnelarealayer"/><g class="pielayer"/><g class="iciclelayer"/><g class="treemaplayer"/><g class="sunburstlayer"/><g class="glimages"/><defs id="topdefs-cef0f0"><g class="clips"/></defs><g class="layer-above"><g class="imagelayer"/><g class="shapelayer"><g class="shape-group" data-index="0"><path data-index="0" fill-rule="evenodd" d="M 90.94782608695652,463.69107142857143 L 829.0521739130436,463.69107142857143 Q 835.591304347826,463.69107142857143 835.591304347826,458.7482142857143 L 835.591304347826,123.25178571428569 Q 835.591304347826,118.30892857142857 829.0521739130436,118.30892857142857 L 90.94782608695652,118.30892857142857 Q 84.40869565217392,118.30892857142857 84.40869565217392,123.25178571428569 L 84.40869565217392,458.7482142857143 Q 84.40869565217392,463.69107142857143 90.94782608695652,463.69107142857143 Z" style="opacity: 1; stroke: rgb(217, 221, 231); stroke-opacity: 1; fill: rgb(0, 0, 0); fill-opacity: 0; stroke-width: 1px;"/></g></g></g><g class="infolayer"><g class="g-gtitle"/><g class="g-xtitle"/><g class="g-ytitle"><text class="ytitle" transform="rotate(-90,25.933984375,291)" x="25.933984375" y="291" text-anchor="middle" style="opacity: 1; font-family: -apple-system, BlinkMacSystemFont, 'Segoe UI', sans-serif; font-size: 14px; fill: rgb(107, 114, 128); fill-opacity: 1; white-space: pre;">tokens/sec</text></g><g class="g-y2title"><text class="y2title" transform="rotate(-90,893.012890625,291)" x="893.012890625" y="291" text-anchor="middle" style="opacity: 1; font-family: -apple-system, BlinkMacSystemFont, 'Segoe UI', sans-serif; font-size: 14px; fill: rgb(107, 114, 128); fill-opacity: 1; white-space: pre;">MFU</text></g><g class="annotation" data-index="0" style="opacity: 1;"><g class="annotation-text-g" transform="rotate(0,326.16,49.96000000000002)"><g class="cursor-pointer" transform="translate(50,35)"><rect class="bg" x="0.5" y="0.5" width="551" height="29" style="stroke-width: 1px; stroke: rgb(0, 0, 0); stroke-opacity: 0; fill: rgb(0, 0, 0); fill-opacity: 0;"/><text class="annotation-text" text-anchor="middle" x="275.8984375" y="23" style="font-family: -apple-system, BlinkMacSystemFont, 'Segoe UI', sans-serif; font-size: 22px; fill: rgb(31, 41, 55); fill-opacity: 1; white-space: pre;"><tspan style="font-weight:bold">Esme-214M-Base: throughput held steady end to end</tspan></text></g></g></g><g class="annotation" data-index="1" style="opacity: 1;"><g class="annotation-text-g" transform="rotate(0,442.16,81.79000000000002)"><g class="cursor-pointer" transform="translate(50,71)"><rect class="bg" x="0.5" y="0.5" width="783" height="20" style="stroke-width: 1px; stroke: rgb(0, 0, 0); stroke-opacity: 0; fill: rgb(0, 0, 0); fill-opacity: 0;"/><text class="annotation-text" text-anchor="middle" x="391.78125" y="16" style="font-family: -apple-system, BlinkMacSystemFont, 'Segoe UI', sans-serif; font-size: 14px; fill: rgb(107, 114, 128); fill-opacity: 1; white-space: pre;">Tokens/sec per 10-step window with rolling median - MFU vs the 2,250 TFLOP/s B200 bf16 peak - compile step excluded</text></g></g></g><g class="annotation" data-index="2" style="opacity: 1;"><g class="annotation-text-g" transform="rotate(0,484.66,518.51)"><g class="cursor-pointer" transform="translate(50,509)"><rect class="bg" x="0.5" y="0.5" width="868" height="18" style="stroke-width: 1px; stroke: rgb(0, 0, 0); stroke-opacity: 0; fill: rgb(0, 0, 0); fill-opacity: 0;"/><text class="annotation-text" text-anchor="middle" x="434.25" y="14" style="font-family: -apple-system, BlinkMacSystemFont, 'Segoe UI', sans-serif; font-size: 12px; fill: rgb(107, 114, 128); fill-opacity: 1; white-space: pre;">Conclusion: throughput stayed near 216K tokens/s (15.0% MFU) for the whole run; dips are brief and recover immediately, with no sustained degradation.</text></g></g></g><g class="annotation" data-index="3" style="opacity: 1;"><g class="annotation-text-g" transform="rotate(0,445.69,130.94)"><g class="cursor-pointer" transform="translate(330,121)"><rect class="bg" x="0.5" y="0.5" width="230" height="19" style="stroke-width: 1px; stroke: rgb(0, 0, 0); stroke-opacity: 0; fill: rgb(0, 0, 0); fill-opacity: 0;"/><text class="annotation-text" text-anchor="middle" x="115.4296875" y="15" style="font-family: -apple-system, BlinkMacSystemFont, 'Segoe UI', sans-serif; font-size: 13px; fill: rgb(31, 41, 55); fill-opacity: 1; white-space: pre;"><tspan style="font-weight:bold">steady 216K tokens/s = 15.0% MFU</tspan></text></g></g><g class="annotation-arrow-g" style="opacity: 1;"><path d="M445.69,140.44L445.69,176.94" style="stroke-width: 1px; stroke: rgb(207, 213, 223); stroke-opacity: 1; stroke-dasharray: 0px, 0px, 36.5px, 36.5px;"/></g></g></g></svg>