<svg class="main-svg" xmlns="http://www.w3.org/2000/svg" xmlns:xlink="http://www.w3.org/1999/xlink" width="920" height="560" style="" viewBox="0 0 920 560"><rect x="0" y="0" width="920" height="560" style="fill: rgb(255, 255, 255); fill-opacity: 1;"/><defs id="defs-d7f038"><g class="clips"><clipPath id="clipd7f038xyplot" class="plotclip"><rect width="752" height="346"/></clipPath><clipPath class="axesclip" id="clipd7f038x"><rect x="84" y="0" width="752" height="560"/></clipPath><clipPath class="axesclip" id="clipd7f038y"><rect x="0" y="118" width="920" height="346"/></clipPath><clipPath class="axesclip" id="clipd7f038xy"><rect x="84" y="118" width="752" height="346"/></clipPath></g><g class="gradients"/><g class="patterns"/></defs><g class="bglayer"/><g class="layer-below"><g class="imagelayer"/><g class="shapelayer"/></g><g class="cartesianlayer"><g class="subplot xy"><g class="layer-subplot"><g class="shapelayer"/><g class="imagelayer"/></g><g class="minor-gridlayer"><g class="x"/><g class="y"/></g><g class="gridlayer"><g class="x"><path class="xgrid crisp" transform="translate(225.39,0)" d="M0,118v346" style="stroke: rgb(238, 241, 246); stroke-opacity: 1; stroke-width: 1px;"/><path class="xgrid crisp" transform="translate(366.78,0)" d="M0,118v346" style="stroke: rgb(238, 241, 246); stroke-opacity: 1; stroke-width: 1px;"/><path class="xgrid crisp" transform="translate(508.18,0)" d="M0,118v346" style="stroke: rgb(238, 241, 246); stroke-opacity: 1; stroke-width: 1px;"/><path class="xgrid crisp" transform="translate(649.57,0)" d="M0,118v346" style="stroke: rgb(238, 241, 246); stroke-opacity: 1; stroke-width: 1px;"/><path class="xgrid crisp" transform="translate(790.96,0)" d="M0,118v346" style="stroke: rgb(238, 241, 246); stroke-opacity: 1; stroke-width: 1px;"/></g><g class="y"><path class="ygrid crisp" transform="translate(0,421.42)" d="M84,0h752" style="stroke: rgb(238, 241, 246); stroke-opacity: 1; stroke-width: 1px;"/><path class="ygrid crisp" transform="translate(0,354.24)" d="M84,0h752" style="stroke: rgb(238, 241, 246); stroke-opacity: 1; stroke-width: 1px;"/><path class="ygrid crisp" transform="translate(0,302.13)" d="M84,0h752" style="stroke: rgb(238, 241, 246); stroke-opacity: 1; stroke-width: 1px;"/><path class="ygrid crisp" transform="translate(0,223.55)" d="M84,0h752" style="stroke: rgb(238, 241, 246); stroke-opacity: 1; stroke-width: 1px;"/><path class="ygrid crisp" transform="translate(0,140.26)" d="M84,0h752" style="stroke: rgb(238, 241, 246); stroke-opacity: 1; stroke-width: 1px;"/></g></g><g class="zerolinelayer"/><g class="layer-between"><g class="shapelayer"/><g class="imagelayer"/></g><path class="xlines-below"/><path class="ylines-below"/><g class="overlines-below"/><g class="xaxislayer-below"/><g class="yaxislayer-below"/><g class="overaxes-below"/><g class="overplot"><g class="xy" transform="translate(84,118)" clip-path="url(#clipd7f038xyplot)"><g class="scatterlayer mlayer"><g class="trace scatter tracea40791" style="stroke-miterlimit: 2; opacity: 0.35;"><g class="fills"/><g class="errorbars"/><g class="lines"><path class="js-line" d="M0.03,10.11L1.42,86.44L1.7,99.79L3.64,141.17L3.92,142.57L4.75,155.2L5.03,154.51L5.31,150.06L6.42,168.07L6.7,170.8L7.26,172.61L7.53,176.12L7.81,176.51L8.09,182.73L8.92,185.91L9.2,184.53L10.59,200.69L10.87,196.38L11.98,205.85L12.26,213.02L12.54,210.16L13.09,211.95L13.37,218.5L13.65,214.98L13.93,221.15L14.21,224.77L14.48,219.64L14.76,222.8L15.04,223.25L15.87,235.97L16.15,227.75L16.71,230.95L16.99,237.7L17.26,236.29L17.54,237.89L17.82,244.24L18.1,234.26L18.65,240.72L18.93,246.88L19.21,247.94L19.49,247.23L19.77,244.49L20.32,236.74L20.6,245.77L21.15,252.06L21.43,244.47L21.71,248.2L21.99,236.25L22.82,253.93L23.1,252.75L23.38,250.26L23.93,246.35L24.21,251.46L24.77,257.23L25.05,245.96L26.44,265.25L26.71,260.8L26.99,258.21L27.27,257.51L27.55,260.17L27.83,259.07L28.1,260.86L28.38,262.37L28.66,261.89L28.94,258.54L29.22,258.22L29.49,260.8L29.77,257.34L30.05,263.94L30.88,262.04L31.16,264.8L31.44,259.12L31.72,267.82L32,264.77L32.55,265.23L33.11,258.86L33.39,270.33L33.94,264.33L34.22,265.53L34.5,268.32L34.78,267.28L35.05,275.91L35.89,264.36L36.17,265.79L36.44,266.72L36.72,263.63L37,268.5L37.28,267.68L38.11,264.26L38.39,270.37L38.95,273.56L39.22,268.25L39.78,266.08L40.06,269.1L40.34,268.07L40.61,278.98L40.89,266.46L41.45,269.14L41.73,271.96L42,270.91L42.28,276.97L42.56,276.73L42.84,267.1L43.39,269.8L43.67,268.98L43.95,278.01L45.06,266.47L45.34,271.28L45.62,275.41L45.9,270.47L46.17,272.61L46.45,274.39L46.73,270.67L47.29,270.96L47.56,274.38L47.84,277.7L48.12,271.58L48.4,269.73L48.68,274.63L48.95,271.04L49.23,280.04L49.51,282.86L49.79,274.38L50.07,275.95L50.34,269.15L51.18,285.19L51.46,281.87L51.73,275.47L52.01,275.09L52.29,277.9L52.57,275.14L52.85,282.19L53.12,283.63L53.4,276.19L53.68,274.29L53.96,279.2L54.24,279.54L54.51,277.14L54.79,283.18L55.07,279.23L55.35,279.01L55.9,276.4L56.46,286.29L56.74,281.95L57.29,278.69L57.57,273.07L58.41,286.05L58.68,278.08L58.96,283.37L59.24,276.03L59.52,277.46L60.35,283.82L60.63,273.1L61.74,288.6L62.02,286.98L63.13,276.43L63.41,279.72L63.69,281.15L64.24,280.49L64.52,277.26L65.08,282.5L65.36,289.93L65.91,284.43L66.19,276.21L67.3,289.05L67.58,280.16L67.86,278.39L68.14,280.08L68.41,283.32L68.69,283.18L68.97,291.4L69.53,282.37L69.8,283.95L70.08,289.46L70.36,281.55L70.64,284.14L70.91,287.91L71.75,280.06L72.03,284.81L72.3,289.12L72.86,287.88L73.14,285.65L73.42,278.82L73.69,285.88L73.97,286.12L74.25,290.66L74.53,288.44L74.81,286.11L75.08,287.75L75.36,281.88L76.47,291.41L76.75,288.94L77.03,279.95L77.31,286.74L77.59,288.86L77.86,296.28L78.14,289.06L78.42,287.29L78.7,283.13L78.98,285.2L79.25,291.37L79.53,290.12L79.81,290.97L80.09,285.46L80.37,285.6L80.64,290.62L80.92,285.19L81.2,290.47L81.48,294.36L82.31,281.49L82.59,286.19L82.87,286.42L83.15,296.33L83.7,282.99L84.26,283.65L84.54,288.36L85.09,295.04L85.37,288.85L85.93,279.52L86.2,288.14L86.48,288.24L86.76,293.08L87.04,280.32L87.32,285.96L87.59,292.2L87.87,287.8L88.15,288.81L88.43,295.01L88.71,302.21L88.98,288.58L89.26,292.64L89.54,284.53L89.82,285.49L90.1,290.68L90.37,295.25L90.65,265.32L90.93,289.8L91.49,283.81L91.76,289.52L92.04,302.79L92.32,286.61L92.6,286.02L92.88,285.58L93.15,292.92L93.71,303.76L93.99,289.23L94.27,290.17L94.54,287.79L94.82,284.84L95.1,289.94L95.66,300.64L95.93,290.63L96.21,286.62L96.77,288.22L97.05,290.96L97.32,298.05L97.6,284.53L98.71,296.36L98.99,303.11L100.1,285.57L100.38,295.09L100.66,293.39L100.94,302.07L101.77,289.57L102.05,293.03L102.33,285.17L102.61,299.81L102.88,299.7L103.16,296.49L103.44,281.76L103.72,287.48L104,292.47L104.27,303.33L104.55,298.89L104.83,288.48L105.39,287.06L105.66,293.64L105.94,288.03L106.22,301.53L106.5,294.6L106.78,288.05L108.17,304.26L108.44,290.41L109,286.97L109.28,288.26L109.56,288.82L109.83,307.96L110.39,295.27L110.67,294.76L110.95,291.63L111.22,294.49L111.5,294.44L111.78,300.48L112.06,293.5L112.34,294.56L112.61,294.93L112.89,289.64L113.73,306.78L114,293.97L114.28,290.83L114.56,293.68L114.84,297.07L115.39,307.4L115.67,294.03L115.95,294.19L116.23,296.65L116.51,300.67L116.78,293.24L117.06,302.38L117.34,302.21L117.62,292.39L118.17,291.78L118.45,295.01L118.73,292.4L119.01,304.27L119.56,293.93L119.84,296.73L120.12,296.8L120.4,291.39L120.67,304.04L120.95,303.04L121.23,297.22L121.51,293.6L122.06,294.65L122.34,299.62L122.62,306.9L122.9,295.63L123.18,291.83L123.45,292.15L123.73,294.2L124.29,307.97L124.57,291.62L125.12,291.05L125.68,295.53L125.96,309.07L127.07,289.36L127.35,298.67L127.62,295.2L127.9,307.77L128.46,295.09L129.01,296.38L129.29,294.65L129.85,308.36L130.13,298.25L130.68,283.68L130.96,296.45L131.24,298.55L131.52,307.94L132.63,293.02L132.91,298.49L133.18,310.09L133.46,297.86L133.74,295.89L134.02,295.3L134.3,296.67L134.57,292.29L134.85,311.06L135.69,293.08L135.96,293.37L136.24,298.28L136.8,313.44L137.08,295.86L137.35,301.94L137.63,290.6L138.47,311.54L138.74,306.01L139.02,296.49L139.3,297.43L139.58,293.37L140.13,312.59L140.41,308.54L140.69,297.19L140.97,291.31L141.25,299.09L141.52,299.26L141.8,295.95L142.08,306.72L143.19,294.6L143.47,300.02L144.03,305.94L144.3,299.96L144.58,294.51L144.86,298.57L145.14,303.2L145.69,305.68L145.97,299.91L146.25,298.9L146.53,299.85L146.81,301.3L147.08,301.07L147.36,308.42L148.2,299.76L148.47,294.95L149.31,306.35L149.59,292.23L150.14,296.37L150.42,305.24L151.25,297.99L151.53,301.89L151.81,293.29L152.37,297.95L152.64,310.67L152.92,311.63L153.2,299.26L153.48,291.6L154.03,295.57L154.31,304.58L154.59,310L154.87,296.46L155.15,296.19L155.42,298.81L155.98,300.87L156.26,307.98L156.54,311.04L156.81,299.57L157.09,299.34L157.37,293.28L158.2,307.54L158.48,303.31L158.76,302.57L159.04,294.63L159.32,296.81L159.59,302.25L159.87,308.35L160.15,299.71L160.43,304.34L160.71,298.47L160.98,296.48L161.26,296.74L161.54,308.04L161.82,306.27L162.1,289.72L162.37,300.98L162.93,298.71L163.21,303.16L163.49,317.66L163.76,295.42L164.04,299.95L164.32,301.25L164.6,297.6L165.15,300.59L165.43,313.49L166.54,299.95L166.82,310.77L167.1,316L167.38,299.78L167.66,296.02L167.93,302.55L168.49,297.3L168.77,307.79L169.6,297.59L169.88,301.71L170.16,299.95L170.43,305.88L170.71,309.24L170.99,305.36L171.27,294.62L172.1,302.04L172.38,308L172.94,293.66L173.49,297.76L173.77,302.19L174.05,314.17L174.33,310.19L174.6,296.66L175.16,303.23L175.44,299.81L175.72,297.93L175.99,310.31L176.27,300.25L176.55,297.55L176.83,297.8L177.11,303.5L177.38,299.31L177.66,311.81L178.77,292.56L179.05,297.21L179.33,310.62L179.61,296.87L179.89,301.4L180.16,299.13L180.44,303.42L181,306.9L181.28,316.8L181.55,299.14L182.11,301.75L182.39,298.92L182.94,314.77L183.22,311.14L183.5,301.84L183.78,293.41L184.06,303.92L184.33,305.9L184.61,309.32L184.89,307.52L185.17,301.51L185.45,302.27L185.72,299.67L186.28,301.53L186.56,311.33L187.39,298.04L187.67,299.73L188.5,314.71L188.78,300.47L189.34,301.7L189.62,300.29L189.89,297.98L190.17,309.16L190.45,302.43L190.73,309.38L191.01,309.18L191.28,302.41L191.56,306.16L191.84,311.4L192.12,317.74L192.4,300.6L192.95,296.71L193.23,301.26L193.51,299.98L193.79,315.33L194.62,291.66L194.9,303.58L195.45,313.89L195.73,297.44L196.29,299.12L196.57,291.76L197.4,313.98L197.68,305.3L197.96,297.13L198.51,301.43L198.79,303.94L199.07,313.84L199.35,298.98L199.62,301.7L199.9,294.72L200.18,303.78L200.46,301.72L200.74,315.52L201.01,302.49L201.29,300.2L201.57,296.83L201.85,301.33L202.13,303.81L202.68,313.59L202.96,301.75L203.24,294.99L203.52,300.01L203.79,302.18L204.35,318.38L204.63,306.36L204.91,297.85L205.46,302.12L205.74,300.84L206.02,312.68L206.57,304.38L206.85,300.16L207.96,319.47L208.24,302.6L208.52,300.49L208.8,291.71L209.63,319.08L209.91,309.36L210.19,298.1L210.47,297.22L210.74,306.46L211.02,303.9L211.3,317.68L211.58,300.43L212.13,300.9L212.41,296.58L213.25,317.06L213.52,303.69L213.8,298.33L214.36,301.11L214.64,306.92L214.91,320.43L215.19,295.38L216.58,315.54L216.86,307.22L217.14,296.97L217.69,302.14L217.97,295.18L218.53,317.99L218.81,304.55L219.08,300.4L219.64,301.67L219.92,317.65L220.2,320.85L220.47,297.7L220.75,295.91L221.03,302.61L221.58,310.6L221.86,312.89L222.7,297.19L222.97,300.36L223.25,301.95L223.53,310.04L223.81,303.94L224.09,293.24L224.36,294.59L224.64,303.5L224.92,304.97L225.2,314.64L226.03,300.57L226.31,302.38L226.59,308.71L226.87,316.22L227.14,316.08L227.42,302.52L227.98,300.9L228.26,307.23L228.53,319.26L228.81,314.32L229.09,307.51L229.37,302.66L229.65,307.16L229.92,307.66L230.2,308.73L230.48,315.91L231.31,301.64L231.59,313.24L233.26,291.05L233.54,306.17L234.37,296.56L234.65,305.98L234.93,308.32L235.21,302.04L235.48,299.79L235.76,301.81L236.04,303.96L236.32,301.66L236.6,304.33L236.87,306.87L237.15,299.75L237.43,308.49L237.71,306.09L237.99,302.25L238.26,302.87L238.54,306.34L239.1,302.31L239.38,305.34L239.65,305.39L239.93,299.9L240.77,309.54L241.04,305.07L241.32,304.73L241.6,298.64L241.88,303.19L242.16,306.46L242.43,305.49L242.71,305.66L242.99,310.84L243.82,300.04L244.1,301.16L244.38,307.9L244.66,303.88L244.94,309.79L245.21,307.49L245.49,300.43L245.77,302.76L246.05,310.09L246.33,294.02L246.88,300.26L247.16,305.92L247.99,315.21L248.27,304.59L248.55,314.84L248.83,305.98L249.11,306.72L249.94,296.62L250.22,310.69L251.05,296.58L251.33,301.85L251.61,311.24L251.89,306.82L252.16,295.91L252.44,308.99L253,304.38L253.28,307.22L253.55,301.1L253.83,308.52L254.11,305.1L254.39,305.66L254.67,299.99L254.94,304.21L255.22,305.4L256.06,299.44L256.33,302.11L256.61,306.27L256.89,310.42L257.17,301.56L257.45,303.72L257.72,297.22L258.28,306.66L258.56,300.7L258.84,299.77L259.11,306.05L259.67,301.82L259.95,301.27L261.06,307.47L261.34,304.72L261.62,307.04L261.89,305.55L262.17,302.26L262.45,306.6L263.01,304.54L263.28,304.81L263.56,306.84L263.84,299.81L264.12,299.05L264.4,307.74L264.67,298.44L265.23,302.25L265.51,300.31L266.06,308.59L266.34,303.79L266.62,303.02L267.45,308.05L267.73,300.94L268.01,301.95L268.29,308.57L268.57,304.7L268.84,310.01L269.12,305.91L269.4,311.96L270.51,297.54L270.79,299.3L271.07,302.02L271.34,307.97L271.9,304.71L272.18,306.44L273.01,301L273.29,307.96L273.57,316.13L273.85,306.59L274.12,300.2L275.24,309.37L275.51,307.7L276.07,303.63L276.35,308.91L276.63,303.89L276.9,305.44L277.18,310.02L278.02,302.77L278.29,310.1L278.85,302.13L279.13,309.1L279.41,310.33L279.68,305.71L280.52,309.63L280.8,304.48L281.07,305.33L281.35,300.87L282.46,307.76L282.74,301.85L283.02,307.55L283.58,303.89L283.85,300.88L284.69,311.21L284.97,305.72L285.24,310.83L285.52,305.2L285.8,307.21L286.08,307.53L286.36,303.11L286.63,300.8L286.91,305.28L287.19,311.48L287.47,308.87L287.75,304.85L288.02,306.7L288.3,303.29L288.58,312.35L288.86,311.82L289.14,304.66L289.69,304.17L289.97,311.99L290.25,310.97L290.53,307L290.8,306.48L291.08,302.95L291.36,307.33L291.64,302.57L291.92,302.57L292.19,302.84L292.47,309.18L293.03,303.86L293.31,312.23L294.14,300.63L294.42,306.33L294.7,306.35L294.97,307.53L295.25,308.87L295.53,308.64L295.81,302.94L296.09,301.59L296.36,317.57L296.64,300.71L297.2,305.3L297.48,308.81L298.87,302.72L299.14,309.38L299.42,303.91L299.98,306.31L300.26,307.38L300.81,309.36L301.09,308.93L301.37,298.97L301.65,310.43L302.2,302.41L302.48,307.97L303.04,307.67L303.31,306.4L303.59,313.56L303.87,304.65L304.15,307.18L304.43,312.03L304.7,304.49L304.98,303.39L305.82,310.77L306.09,302.99L306.37,301.86L306.65,306.11L307.21,312.69L307.48,297.53L308.04,315.82L308.6,310.77L308.87,300.5L309.71,313.2L309.99,304.92L310.26,303.95L310.54,307.91L310.82,311.48L311.1,309.17L311.38,303.13L312.21,309.94L312.49,305.27L312.77,302.87L313.04,303.89L313.32,309.15L314.16,304.78L314.43,305.65L314.71,308.55L314.99,310.7L315.27,303.07L315.55,301.34L315.82,302.76L316.1,307.88L316.38,308.58L316.66,300.84L316.94,308.48L317.49,307.98L317.77,307.23L318.05,302.69L318.33,307.41L318.6,305.2L318.88,307.35L319.16,304.42L319.44,305.32L319.72,310.44L320.55,303.86L320.83,307.73L321.1,299.83L321.38,311.66L321.66,314.97L321.94,304.81L322.49,308.4L322.77,317.91L323.61,295.72L323.88,315.45L324.72,304.12L325,304.19L325.27,303.86L325.83,309.05L326.11,303.76L326.39,312.74L326.94,308.7L327.22,301.71L327.5,301.71L327.78,308.64L328.05,312.74L328.33,309.25L328.61,305.97L328.89,306.45L329.17,301.53L329.44,313.6L330,305.74L330.28,307L330.83,298.56L331.11,310.52L331.39,296.69L331.67,309.8L331.95,307.93L332.22,312.04L332.5,303.43L332.78,303.46L333.06,305.48L333.61,310.77L333.89,307.33L334.17,305.3L334.45,305.93L334.73,307.75L335,301.14L335.28,313.01L336.12,307.1L336.39,306.84L336.67,306.39L336.95,312.44L337.23,302.17L337.78,307.21L338.06,303.35L338.34,298.49L338.62,304.4L338.9,314.28L340.01,303.28L340.29,309.65L340.56,305.69L341.12,307.21L341.4,310.72L341.68,310.14L341.95,305.24L342.79,312.43L343.07,310.98L343.34,296.05L344.18,317.35L344.46,310.3L345.01,302.28L345.29,306.48L345.57,308.39L346.68,300.75L346.96,310.89L347.24,313.81L347.51,308.87L347.79,306.28L348.63,310.15L348.9,301.13L349.74,311.88L350.02,311.63L350.29,307.1L350.57,311.83L350.85,309.04L351.13,308.21L351.41,306.24L351.68,306.82L351.96,311.33L352.8,306.55L353.07,309.31L353.63,299.76L353.91,307.68L354.74,304.36L355.02,306.12L355.3,311.7L355.58,303.04L356.13,305L356.41,318.24L356.69,305L357.24,305.42L357.52,305.41L358.08,313.85L358.36,307.61L358.63,302.55L359.47,312.66L359.75,309.3L360.02,308.48L360.3,313.08L360.58,318.73L360.86,310.48L361.14,306.09L361.69,305.94L362.25,314.8L362.53,304.85L363.36,310.82L363.64,306.85L363.92,302.87L364.19,310.07L364.47,304.63L364.75,313.73L365.03,306.51L365.31,310.63L365.86,306.55L366.14,309.64L366.42,308.77L366.97,309.54L367.25,304.9L367.53,314.28L367.81,313.45L368.09,303.69L368.64,313.56L368.92,311.66L369.2,306.29L369.48,305.99L369.75,312.48L370.03,303.77L370.31,314.93L370.59,309.56L370.86,310.1L371.14,310.06L371.42,312.05L371.98,307.8L372.25,308.47L372.53,309.44L373.09,313.75L373.37,312.62L373.64,311.66L373.92,305.6L374.2,309.23L374.48,320.74L375.03,307.35L375.31,308L375.59,316.94L375.87,307.59L376.42,309L376.7,316.71L376.98,309.17L377.54,312.86L377.81,308.22L378.09,308.69L378.37,315.86L379.48,298.87L379.76,307.15L380.32,306.38L380.59,313.26L380.87,311.75L381.15,303.92L381.43,303.61L381.71,310.13L382.26,313.31L382.54,301.59L383.65,311.7L383.93,315.43L385.04,305.95L385.32,305.56L386.43,312.98L386.71,307.94L387.27,316.11L387.54,302.18L388.66,314.86L388.93,305.07L389.49,316.57L389.77,312.73L390.05,312.02L390.32,312.06L390.6,308.04L390.88,312.46L391.16,299.29L391.44,313.13L391.99,312.46L392.27,311.65L392.55,316.6L392.83,310.17L393.1,304.04L393.94,316.94L394.22,307.8L394.49,308.53L394.77,307.7L395.05,314.75L395.61,307.03L395.88,309.04L396.16,310.64L396.72,312.93L397,305.21L397.27,305.93L397.55,312.95L397.83,312.98L398.11,308.35L398.39,305.85L398.66,308.54L398.94,308.08L399.22,314.88L399.78,311L400.05,313.99L401.17,304.46L401.44,309.45L401.72,310.11L402,309.69L402.28,307.32L403.11,312.93L403.39,309.6L403.95,305.69L404.22,310.34L404.5,312.75L404.78,307.72L405.06,313.67L405.61,311.43L405.89,315.33L406.17,315.53L406.45,311.32L406.73,309.74L407,313.6L407.56,300.3L407.84,301.83L408.12,313.67L408.39,307.15L408.95,307.71L409.23,305.67L409.78,305.63L410.06,314.98L410.34,305.24L411.45,318.77L411.73,303.81L412.01,301.46L412.29,316.54L412.56,316.75L412.84,311.27L413.12,304.53L413.4,310.79L413.68,312.23L413.95,315.09L414.23,310.66L414.51,306.4L415.62,312.49L415.9,309.72L416.46,308.64L416.73,312.88L417.01,307.13L417.29,311.16L417.57,312.01L417.85,315.25L418.12,310.89L418.4,311.99L419.24,296.17L419.51,313.31L419.79,307.59L420.35,310.07L420.63,308.47L420.9,312.1L421.18,308.71L421.46,306.97L422.29,312.79L422.57,306.79L422.85,309.85L423.13,303.87L423.68,311.21L424.24,309.74L424.52,307.74L425.07,316.99L425.35,312.77L425.63,312.94L425.91,313.91L426.18,310.09L426.46,316.57L427.02,313.07L427.3,316.35L428.41,308.86L428.69,309.43L428.96,311.5L429.24,307.72L429.8,308.22L430.08,308.91L430.35,310.24L430.63,307.08L430.91,305.73L431.19,312.1L431.47,316.49L431.74,311.51L432.02,309.9L432.3,309.26L432.58,313.33L432.86,313.22L433.13,314.18L433.41,309.02L433.69,318.36L434.8,306.67L435.08,314.9L435.36,315.15L435.64,312.29L435.91,309.21L436.19,311.09L436.47,316.67L436.75,308.2L437.3,310.19L437.58,308.87L437.86,315.65L438.14,308.64L438.42,313.86L438.69,310.56L438.97,312.11L439.25,310.91L439.53,309.62L439.81,307.17L440.08,311.2L440.36,309.98L441.2,317.33L441.47,316.8L441.75,314.78L442.03,309.11L442.31,310.79L442.59,317.84L442.86,305.63L443.42,313.86L443.7,313L443.98,307.71L444.25,314.24L444.53,310.12L444.81,311.72L445.64,305.88L445.92,308.76L446.48,316.82L446.76,308.64L447.03,303.74L447.31,307.82L447.59,310.63L447.87,314.1L448.15,309.66L448.42,312.73L448.7,314.45L449.26,309.34L449.54,310.1L449.81,309.42L450.37,314.48L450.65,310.8L451.2,306.91L451.48,312.21L451.76,311.95L452.04,307.99L452.32,313.22L452.59,305.66L452.87,310.65L453.15,307.16L453.98,315.51L454.26,311.46L454.54,312.8L454.82,307.91L455.1,310.1L455.37,315.04L455.93,307.66L456.21,313.55L457.04,311.78L457.32,313.63L457.6,307.99L458.15,309.02L458.43,312.81L458.71,313.96L458.99,305.94L459.27,312.9L459.82,312.6L460.1,312.87L460.38,313.76L460.66,311.29L460.93,310.19L461.21,314L461.77,306.67L462.05,320.51L462.32,308.51L462.88,310.64L463.16,312.49L463.99,306.27L464.27,312.98L464.55,317.3L464.83,309.75L465.1,310.15L465.38,312.22L466.22,307.75L466.49,319.06L467.61,309.24L467.88,311.33L468.16,307.95L468.44,311.5L468.72,310.19L469,317.97L469.83,297.24L470.11,314.39L470.39,314.82L470.66,309.48L470.94,314.7L471.22,312.98L471.5,304.78L472.61,311.48L472.89,315.38L473.16,315.95L473.44,314.68L473.72,311.09L474,315.6L474.28,313.48L474.55,316.35L474.83,306.09L475.11,313.68L475.39,318.16L475.67,317.15L475.94,312.6L476.22,316.67L476.78,316.25L477.06,317.94L477.33,306.01L477.89,313.52L478.17,316.43L479.56,302.19L479.84,309.44L480.11,307.66L480.39,313.89L480.67,314.57L480.95,311.28L481.23,313.53L481.5,307.39L482.34,317.5L482.62,312.14L483.17,318.42L483.45,308.33L484.01,318.37L484.28,311.51L484.56,314L484.84,313.62L485.12,307.87L486.23,315.68L486.51,310.95L487.62,316.61L487.9,314.83L488.73,308.01L489.01,316.47L489.57,308.32L489.84,313.46L490.12,317.59L490.4,318.34L490.68,317.87L490.96,309.33L492.07,315.45L492.35,309.1L492.62,307.53L492.9,307.8L493.18,309.49L493.46,312.95L493.74,312.69L494.01,309.08L494.29,318.43L494.57,316.24L494.85,309.09L495.13,314.14L495.68,313.19L495.96,311.02L496.24,307.22L496.52,312.84L496.79,313.78L497.35,310.81L497.63,312.52L497.91,316.11L498.46,304.75L498.74,309.96L499.02,308.93L499.3,306.04L499.57,313.07L499.85,316.74L500.13,312.65L500.41,309.78L501.24,314.83L501.52,309.44L502.35,314.51L502.63,310.33L502.91,313.03L503.19,311.79L503.47,308.85L504.3,316.79L504.58,305.21L505.41,317.13L505.69,313.82L505.97,307.58L506.25,314.39L506.8,311.53L507.08,314.76L507.64,310.04L507.91,314.78L508.19,315.42L508.47,305.88L509.03,316.5L509.58,316.21L509.86,313.39L510.14,309.98L510.69,311.01L510.97,315.04L511.25,309.76L511.81,312.07L512.08,311.38L512.36,312.44L512.64,308.82L512.92,314.72L513.47,311.16L513.75,313.19L514.31,318.05L514.59,310.95L514.86,311.16L515.14,310.43L515.42,314.98L515.98,312.77L516.25,316.97L516.53,311.31L516.81,320.28L517.09,313.42L517.37,315.47L517.92,315.28L518.2,321.66L518.48,315.89L518.76,315.93L519.03,304.47L519.87,314.41L520.15,311.45L520.7,319.72L520.98,315.26L521.26,312.9L521.53,318.85L521.81,310.74L522.09,309.61L522.92,315.75L523.2,313.25L523.48,311.17L523.76,317.31L524.59,311.05L524.87,311.51L525.15,317.59L525.7,314.85L525.98,304.04L526.82,321.66L527.09,311.53L527.65,318.74L527.93,315.63L528.21,315.4L529.04,310.98L529.32,318.88L530.15,309.44L530.43,312.09L530.71,312.91L530.99,318.01L531.54,316.7L531.82,311.98L532.1,317.52L532.38,312.28L532.65,305.34L532.93,312.87L533.49,311.81L533.77,309.93L534.32,315.26L534.6,310.03L534.88,320.43L535.43,314.71L535.71,313.3L535.99,312.43L536.27,307.1L536.82,319.76L537.1,313.67L537.38,313.98L537.66,317.03L537.94,306.87L538.21,315.28L538.77,313.06L539.05,317.69L539.88,307.67L540.16,314.65L540.44,307.27L540.72,311.06L540.99,312.78L541.55,316.41L541.83,315.05L542.11,312.83L542.66,316.59L542.94,303.33L543.22,316.57L543.77,311.5L544.05,319.23L544.61,307.68L544.89,317.62L545.16,309.91L545.44,320.38L545.72,316.4L546,310.17L546.28,316.86L546.55,313.77L546.83,315.23L547.11,325.96L547.39,313.96L547.67,307.91L548.5,320.99L548.78,306.97L549.61,321.89L549.89,313.03L550.17,319.78L550.45,312.77L550.72,315.9L551,315.95L551.28,321.34L551.56,316.49L551.84,304.69L552.39,318.89L552.67,313.19L552.95,314.3L553.23,325.13L553.5,315.06L553.78,314.84L554.06,318.82L554.34,316.18L554.62,313.98L554.89,317.99L555.17,316.83L555.45,310L556.56,319.02L556.84,311.26L557.95,323.43L558.23,310.62L558.79,314.38L559.06,323.02L560.18,310.06L560.45,314.98L560.73,317.49L561.01,309.41L561.84,317.81L562.12,314.75L562.4,312.05L562.68,312.35L562.96,317.13L563.51,313.11L563.79,316.04L564.07,316.17L564.35,329.41L564.9,313.15L565.18,320.45L565.46,312.22L566.01,324.99L566.29,309.69L567.13,322.7L567.4,313.6L567.96,318.34L568.24,312.16L568.52,312.02L568.79,313.49L569.35,316.81L569.63,315.31L569.91,314.94L570.46,310.57L570.74,314.31L571.02,320.89L571.29,312.28L571.57,313.38L571.85,310.83L572.13,316.66L572.41,309.01L572.68,323.22L573.52,313.7L573.8,323.83L574.35,313.39L574.91,316.46L575.19,320.11L576.3,314.56L576.58,322.4L576.85,312.83L577.41,314.53L577.69,320.52L577.97,311.46L578.52,313.17L578.8,318.27L579.08,318.66L579.36,309.38L579.91,326.24L580.19,319.2L580.47,317.43L580.75,322.3L581.02,302.52L581.86,324.51L582.14,312.92L582.41,313.7L582.69,319.65L582.97,317.77L583.25,323.46L584.08,312.84L584.36,312.06L585.19,320.1L585.47,317.86L585.75,313.74L586.03,322.07L586.31,313.54L586.58,313.51L586.86,314.21L587.14,320.19L587.97,314.19L588.25,315.78L588.53,323.58L588.81,314.96L589.09,312.42L589.64,321.61L589.92,321.06L590.2,313.56L591.03,319.46L591.31,317.54L591.59,316.93L591.87,320.95L592.14,313.22L592.42,326.12L592.7,312.55L592.98,312.52L593.53,317.22L593.81,313.73L594.09,310.28L594.37,315.52L594.65,315.83L594.92,318.15L595.2,313.68L595.76,310.1L596.04,319.69L596.31,318.34L596.87,309.41L597.15,313.45L597.43,312.78L597.98,316.2L598.26,314.7L598.54,314.79L598.82,313.96L599.09,317.69L599.37,313.41L599.65,316.21L599.93,316.96L600.21,319.08L600.48,311.84L600.76,318.53L601.04,298.98L601.32,319.33L601.87,310.23L602.15,323.54L602.43,315.51L602.71,319.17L602.99,322.46L603.26,320.51L603.54,312.98L604.1,314.26L604.38,304.52L604.65,311.46L605.49,322.75L605.77,319.38L606.04,316.62L606.6,312.53L607.16,312.99L607.43,316.5L607.71,308.37L607.99,316.05L608.27,318.89L608.55,306.82L609.1,310.74L609.38,313.69L609.66,312.85L609.94,315.15L610.21,313.92L610.49,314.74L610.77,316.47L611.05,320.9L611.33,313.1L611.6,329.74L611.88,319.24L612.16,310.12L612.44,318.31L612.99,313.86L613.27,315.51L613.55,314.88L613.83,322.48L614.94,309.75L615.22,321.12L615.77,312.99L616.05,318.2L616.33,314.42L616.61,322.81L616.89,319.35L617.16,312.97L617.44,314.61L617.72,322.38L618,310.48L618.55,317.62L618.83,316.88L619.11,309.98L619.39,318.46L619.67,316.07L619.94,321.13L620.22,313.92L620.5,317.93L620.78,318.9L621.05,317.86L621.33,312.45L621.89,320.2L622.17,317.84L622.44,314.96L622.72,323.6L623.28,319.42L623.56,310.94L624.67,322.9L624.95,313.09L625.5,315.41L625.78,319.66L626.34,313.5L626.61,316.2L626.89,318.79L627.73,311.33L628,311.62L628.28,311.3L629.39,317.45L629.67,314.94L629.95,319.41L630.23,313.72L630.51,319.06L630.78,315.56L631.06,329.15L631.34,313.42L631.62,313.67L632.45,318.01L632.73,309.89L633.84,320.78L634.12,312.07L634.4,316.98L634.68,316.23L634.95,302.69L636.34,319.31L636.62,316.81L636.9,320.23L637.18,315.08L637.46,311.61L638.01,313.74L638.29,305.9L638.57,321.06L638.85,312.06L639.4,316.34L639.68,318.76L639.96,319.82L640.24,314.32L640.79,313.71L641.07,326.06L641.35,312.71L641.9,316.51L642.18,314.51L642.46,320.26L642.74,309.51L643.02,308.16L643.29,314.5L643.85,316.17L644.13,322.3L644.41,307.86L644.96,317.14L645.24,316.12L645.52,312.35L645.8,316.92L646.07,312.55L646.35,317.6L646.63,318.07L646.91,312.7L647.19,316.28L647.46,311.6L647.74,328.63L648.3,313.63L648.58,314.48L648.85,318.01L649.13,321.04L649.41,314.33L649.69,312.63L649.97,314.09L650.24,315.33L650.52,319.64L650.8,313.7L651.08,312.03L651.63,320.49L651.91,314.19L652.19,316.82L652.47,312.14L652.75,316.23L653.02,307.34L653.3,318.85L653.86,316.88L654.14,316.38L654.41,322.04L654.69,321.16L654.97,314.53L655.53,312.65L655.8,319.45L656.08,319.23L656.36,319.63L656.64,314.73L657.19,322.59L657.47,317.54L657.75,315.02L658.03,320.39L658.31,321.55L658.58,320.6L658.86,313.28L659.14,317.82L659.7,317.4L659.97,315.51L660.25,315.71L660.53,314.79L661.09,316.72L661.36,322.76L661.64,315.64L662.2,316.61L662.48,313.8L662.75,313.56L663.03,318.08L663.31,322.36L663.59,310.53L664.42,323.79L664.7,316.87L664.98,317.57L665.26,326.04L665.81,314.37L666.09,317.07L666.37,325.39L667.48,309.77L667.76,322.99L668.04,311.89L668.59,318.4L668.87,315.33L669.15,320.66L669.43,320.09L669.7,310.43L670.54,323.28L670.82,313.66L671.65,315.99L671.93,322L672.76,312.06L673.04,319.71L673.32,325.24L673.59,310.49L674.71,317.34L674.98,313.47L675.26,308.23L675.54,316.55L675.82,316.91L676.37,313.48L676.65,316.16L676.93,318.73L677.49,320.05L677.76,311.82L678.32,322.88L678.6,319.58L678.88,319.19L679.15,313.14L679.43,314.95L679.71,317.43L679.99,319.02L680.27,315.98L680.54,311.62L680.82,321.83L681.1,321.4L681.38,321.66L681.66,315.43L682.77,325.47L683.05,312.87L684.16,319.03L684.44,319.93L684.71,313.46L684.99,319.71L685.27,325L686.38,313.66L686.66,325.88L687.49,310.3L687.77,321.25L688.05,323.66L688.33,323.41L688.61,318.25L688.88,318.38L689.16,323.01L689.44,323.19L689.72,321.37L690,312.93L690.27,325.06L690.55,321.46L690.83,326.81L691.11,314.67L691.66,323.05L691.94,319.91L692.22,319.88L692.5,318.96L692.78,320.72L693.33,322.04L693.61,311.29L693.89,315.85L694.44,319.28L694.72,317.83L695,311.94L695.83,321.07L696.11,318.79L696.39,317.73L696.67,323.09L697.22,324.09L697.78,318.18L698.06,322.64L698.34,325.93L698.61,324.79L698.89,319.95L699.17,321.29L699.45,318.32L699.73,316L700,326.28L700.56,322.31L700.84,326.69L701.39,318.91L701.67,325.02L702.23,321.55L702.51,322.44L702.78,325.33L703.62,317.07L703.9,320.86L704.17,322.34L704.45,320.89L704.73,321.09L705.29,317.32L705.56,311.79L706.68,328.48L706.95,326.29L707.23,326.36L707.51,324.03L707.79,318.15L708.34,320.92L708.62,322.29L708.9,324.67L709.18,319.75L709.46,322.48L709.73,320.85L710.01,315.6L711.12,322.59L711.4,322.39L711.68,322.76L711.96,317.13L712.79,324.63L713.07,320.86L713.35,324.11L713.9,323.21L714.18,323.07L714.46,315.46L714.74,325.8L715.02,327.08L715.57,316.51L715.85,320.03L716.13,322.88L716.41,325.87L716.68,319.59L716.96,319.19L717.24,316.49L717.8,336.18L718.07,321.16L718.35,318.05L718.63,322.91L718.91,330.56L719.19,313.37L719.74,318.58L720.02,317.15L720.3,327.14L720.58,315.88L720.85,323.37L721.13,318.97L721.41,313.47L721.69,325.54L721.96,330.03L722.24,321.89L722.8,326.4L723.08,321.4" style="vector-effect: none; fill: none; stroke: rgb(99, 110, 250); stroke-opacity: 1; stroke-width: 1px; opacity: 1;"/></g><g class="points"/><g class="text"/></g><g class="trace scatter trace4f4853" style="stroke-miterlimit: 2; opacity: 1;"><g class="fills"/><g class="errorbars"/><g class="lines"><path class="js-line" d="M0.03,99.79L2.53,128.85L2.81,130.65L5.03,154.51L5.31,155.2L6.98,171.55L7.26,172.61L8.92,185.42L9.2,185.91L12.54,211.43L12.82,211.95L13.37,214.98L13.65,218.5L16.43,230.95L16.71,234.26L17.82,237.7L18.1,237.89L19.77,244.47L20.04,244.49L21.43,247.94L21.71,247.94L23.1,248.96L23.38,250.26L23.66,250.27L23.93,251.46L27.83,259.07L28.1,259.12L29.22,260.86L29.49,261.26L30.33,261.89L30.61,262.04L34.22,265.79L34.5,265.79L35.33,266.22L35.61,266.72L42.84,269.8L43.12,270.47L45.62,271.58L45.9,271.58L46.45,272.01L46.73,272.61L47.56,273.25L47.84,273.59L49.23,274.39L49.51,274.63L52.01,277.14L52.29,277.9L53.12,277.9L53.4,279.01L54.51,279.2L54.79,279.01L57.85,279.23L58.13,280.53L62.85,281.15L63.13,282.22L67.02,282.5L67.3,283.18L70.91,284.81L71.19,285.45L73.14,286.11L73.42,286.12L74.53,286.74L74.81,287.75L79.25,288.47L79.53,287.29L80.64,286.74L80.92,286.42L84.26,286.42L84.54,287.8L87.32,288.36L87.59,288.58L90.37,288.81L90.65,289.23L91.76,289.52L92.04,289.52L95.93,289.94L96.21,290.17L96.49,290.63L97.05,290.17L97.32,290.17L98.71,291.28L98.99,291.21L99.55,291.28L99.83,293.03L105.39,293.03L105.66,292.47L105.94,292.47L106.22,290.56L106.78,290.56L107.05,292.47L107.89,293.64L108.17,293.64L109,293.84L109.28,294.44L112.89,294.56L113.17,294.76L114.84,294.44L115.12,294.56L116.23,294.03L116.51,294.19L116.78,295.01L117.06,294.19L117.34,294.19L118.17,296.65L118.45,295.01L119.01,294.71L119.29,295.01L119.56,295.63L120.67,294.71L120.95,294.71L122.62,294.71L122.9,295.53L125.68,296.38L125.96,295.63L126.51,296.38L126.79,298.22L127.35,298.22L127.62,296.45L127.9,296.45L128.18,298.25L129.29,298.67L129.57,298.55L137.63,298.28L137.91,298.78L138.74,298.78L139.02,298.28L142.36,298.78L142.64,299.09L143.19,299.26L143.47,299.85L145.69,300.02L145.97,300.82L148.75,300.82L149.03,299.91L149.31,299.91L149.59,300.82L150.14,300.82L150.42,299.76L151.81,297.99L152.09,298.81L156.54,299.54L156.81,299.57L158.76,299.71L159.04,300.87L159.32,300.87L159.59,299.71L160.71,299.95L160.98,300.98L161.26,300.98L161.54,299.95L170.71,300.12L170.99,301.71L171.27,301.71L171.55,300.63L172.1,301.71L172.38,300.63L172.66,301.71L172.94,300.63L173.21,300.63L174.33,300.25L174.6,300.25L175.44,300.92L175.72,300.63L175.99,300.63L176.83,300.63L177.11,300.92L179.89,301.4L180.16,301.75L193.23,302.43L193.51,302.55L193.79,302.55L194.06,303.58L194.34,303.58L194.62,302.55L194.9,302.55L195.18,301.43L196.57,301.7L196.84,302.55L197.68,302.49L197.96,301.72L203.79,302.18L204.07,302.49L204.35,302.49L204.63,303.26L207.13,303.26L207.41,304.26L208.24,303.26L208.52,303.9L208.8,303.9L216.86,303.67L217.14,303.05L217.69,302.62L217.97,303.67L219.36,304.39L219.64,302.62L221.31,302.61L221.58,303.5L222.14,303.5L222.42,302.61L222.97,302.61L223.25,303.5L226.31,303.94L226.59,304.97L227.7,307.16L227.98,307.16L230.2,307.16L230.48,306.17L231.04,305.24L231.31,305.98L231.59,306.17L234.65,303.96L234.93,303.96L235.21,303.96L235.48,302.96L237.43,302.96L237.71,303.96L238.26,303.96L238.54,303.19L239.93,305.07L240.21,305.34L241.32,304.73L241.6,305.07L242.71,305.34L242.99,305.07L244.94,305.78L245.21,305.92L248.55,305.98L248.83,305.92L251.05,305.66L251.33,305.1L252.44,304.38L252.72,304.21L253.28,304.38L253.55,305.1L254.39,304.21L254.67,304.38L254.94,305.1L255.22,304.38L255.5,304.21L256.33,304.21L256.61,303.82L259.67,304.54L259.95,304.72L266.34,304.81L266.62,305.36L270.23,305.36L270.51,305.91L270.79,305.91L271.07,304.97L271.9,305.91L272.18,306.1L273.85,305.05L274.12,305.05L274.96,305.44L275.24,305.05L276.35,305.71L276.63,306.03L282.19,305.72L282.46,306.53L282.74,306.53L283.02,305.72L284.97,305.72L285.24,306.7L286.36,307.17L286.63,307.17L289.41,306.48L289.69,305.28L290.53,306.7L290.8,306.66L291.92,306.66L292.19,306.66L293.86,306.33L294.14,306.33L300.53,306.81L300.81,307.18L311.93,307.19L312.21,307L313.04,307L313.32,305.79L314.16,307L314.43,307L314.71,305.79L314.99,307L315.27,307L315.55,307L315.82,305.65L316.1,305.65L316.38,307L316.94,306.8L317.21,305.66L317.77,305.66L318.05,306.8L318.33,306.8L318.6,305.66L319.72,307.35L319.99,307.23L322.77,307.5L323.05,307.73L324.44,308.4L324.72,308.64L326.11,308.38L326.39,307.5L326.66,306.45L327.22,307L327.5,306.45L328.33,306.45L328.61,307L328.89,307.5L329.17,307L329.44,306.45L332.22,306.45L332.5,306.92L335,306.92L335.28,306.84L340.84,307.35L341.12,307.81L343.07,307.81L343.34,307.35L344.18,308.16L344.46,307.81L344.73,308.18L350.85,308.21L351.13,308.07L352.52,307.62L352.8,307.1L353.07,307.62L353.35,307.1L353.63,306.89L356.69,306.59L356.97,306.89L357.8,307.61L358.08,307.61L358.36,307.61L358.63,308.48L359.47,309L359.75,309.3L361.14,309.68L361.41,310.07L361.69,309.3L361.97,310.07L362.25,310.07L363.36,309L363.64,309.54L364.75,309L365.03,308.8L366.14,308.8L366.42,308.8L367.25,308.8L367.53,309.54L368.64,309.54L368.92,308.8L370.03,309.56L370.31,310.06L374.48,309.44L374.76,309.23L375.31,309.44L375.59,310.71L376.15,310.71L376.42,309.23L379.48,309L379.76,309.17L380.87,309.41L381.15,308.88L383.37,308.88L383.65,309.41L384.21,309.41L384.49,308.88L388.38,308.58L388.66,311.11L390.32,311.65L390.6,311.65L391.44,310.17L391.71,311.65L393.38,311.51L393.66,310.64L393.94,310.17L394.49,310.64L394.77,310.64L396.44,308.54L396.72,309.04L397,308.54L397.55,309.04L397.83,309.04L398.39,310.11L398.66,309.69L398.94,309.45L400.05,309.69L400.33,309.6L407.56,310.34L407.84,310.71L408.39,310.71L408.67,309.85L409.51,310.71L409.78,309.85L410.06,309.85L410.34,310.71L417.01,310.66L417.29,310.35L423.68,310.09L423.96,310.88L425.07,311.21L425.35,311.21L426.18,311.21L426.46,311.21L427.57,310.54L427.85,311.5L428.69,311.5L428.96,310.54L429.52,310.54L429.8,311.5L430.63,310.54L430.91,310.54L431.74,310.42L432.02,311.5L436.19,311.87L436.47,311.25L440.64,311.2L440.92,312.11L441.75,311.72L442.03,311.2L442.86,311.2L443.14,311.72L443.98,311.72L444.25,310.79L447.59,310.1L447.87,309.72L449.26,310.1L449.54,310.63L450.09,310.1L450.37,310.45L450.65,310.63L453.15,310.8L453.43,311.41L460.38,311.59L460.66,311.29L463.99,311L464.27,310.69L465.1,310.69L465.38,310.69L470.66,311.33L470.94,311.48L471.5,311.5L471.77,312.98L472.89,313.48L473.16,313.48L474.28,313.68L474.55,313.52L476.22,313.68L476.5,313.52L478.45,313.32L478.72,312.6L481.5,312.14L481.78,311.51L482.62,312.14L482.89,313.08L495.13,312.52L495.4,312.18L495.96,311.02L496.24,312.18L497.35,312.52L497.63,312.52L501.24,311.79L501.52,310.85L501.8,310.85L502.08,311.79L502.91,312.52L503.19,312.04L503.47,311.79L505.97,312.52L506.25,312.89L509.03,312.89L509.3,312.44L510.42,313.02L510.69,313.02L511.53,313.02L511.81,312.44L512.36,313.02L512.64,312.77L512.92,312.77L513.47,312.44L513.75,312.77L514.03,313.02L514.86,313.42L515.14,314.43L517.37,314.43L517.64,314.43L519.31,314.41L519.59,315.26L520.42,314.41L520.7,315.26L520.98,315.25L521.26,314.41L522.65,314.17L522.92,314.17L524.87,315.36L525.15,315.25L527.65,314.85L527.93,313.47L528.76,314.85L529.04,313.47L530.43,312.58L530.71,312.87L534.04,313.07L534.32,313.3L535.71,313.06L535.99,313.3L542.11,313.69L542.38,314.03L543.22,314.03L543.5,314.65L544.61,315.05L544.89,314.03L547.94,313.96L548.22,315.23L549.06,313.96L549.33,313.77L551.84,315.9L552.11,315.06L552.39,315.06L552.67,315.9L553.5,315.9L553.78,315.06L562.12,314.99L562.4,315.56L563.51,315.71L563.79,315.81L565.18,315.71L565.46,315.02L566.29,315.71L566.57,315.43L566.85,315.43L569.91,314.94L570.18,314.31L571.85,314.94L572.13,315.31L572.96,314.94L573.24,314.94L573.52,314.92L573.8,316.46L576.85,317.04L577.13,317.26L577.97,317.04L578.24,316.46L578.52,317.04L578.8,314.92L579.63,314.82L579.91,317.26L580.75,314.82L581.02,314.82L581.3,314.39L581.58,314.82L581.86,316.87L582.14,317.43L582.69,316.87L582.97,316.87L583.25,316.87L583.53,314.82L584.64,314.82L584.92,315.78L585.19,316.22L585.75,315.78L586.03,315.78L586.58,315.78L586.86,314.96L588.53,316.22L588.81,315.78L589.92,315.78L590.2,316.22L592.7,315.83L592.98,316.93L594.09,315.52L594.37,315.68L594.92,315.52L595.2,314.79L596.31,314.79L596.59,315.52L597.7,315.52L597.98,315.68L598.54,314.7L598.82,314.79L599.09,314.79L599.93,315.51L600.21,315.51L601.32,314.79L601.6,314.7L602.15,315.51L602.43,316.21L603.54,315.51L603.82,314.4L604.65,315.51L604.93,315.51L605.77,315.51L606.04,314.4L607.43,314.4L607.71,314.74L608.27,315.15L608.55,315.72L609.66,314.74L609.94,315.15L616.33,314.88L616.61,315.51L616.89,314.88L617.16,316.07L617.44,316.07L618.55,317.62L618.83,317.62L621.89,317.62L622.17,316.88L622.72,317.84L623,316.37L624.95,316.19L625.22,315.41L629.39,315.17L629.67,315.37L634.4,315.08L634.68,314.02L634.95,314.02L635.23,315.08L636.07,314.02L636.34,314.84L638.01,314.84L638.29,314.32L639.4,314.84L639.68,314.84L640.79,314.51L641.07,314.51L641.63,314.84L641.9,315.86L642.18,314.84L642.46,315.86L642.74,315.86L643.29,315.86L643.57,314.51L644.41,315.86L644.68,314.51L645.52,314.51L645.8,315.86L646.63,314.5L646.91,315.33L647.19,315.33L647.46,314.48L648.02,314.48L648.3,315.19L649.13,314.48L649.41,314.48L650.8,315.19L651.08,315.33L652.75,315.33L653.02,316.16L655.8,316.88L656.08,317.54L658.03,317.4L658.31,316.73L665.53,317.07L665.81,317.57L666.37,318.08L666.65,317.57L666.92,317.57L667.2,318.4L667.48,317.57L667.76,317.57L669.15,316.3L669.43,316.3L672.76,315.99L673.04,315.19L673.87,316.01L674.15,316.01L677.49,316.55L677.76,316.91L678.88,317.43L679.15,317.43L679.99,318.73L680.27,318.73L681.93,318.58L682.21,318.58L683.05,317.43L683.32,318.58L684.16,317.39L684.44,317.39L684.99,317.39L685.27,318.25L686.94,318.93L687.22,319.03L688.61,321.25L688.88,319.91L689.16,319.91L689.44,320.72L691.11,320.72L691.39,319.91L696.67,319.62L696.95,319.62L697.5,319.95L697.78,320.58L698.89,321.32L699.17,321.55L700,322.01L700.28,321.91L701.95,321.29L702.23,321.09L708.9,320.92L709.18,322.29L711.68,322.39L711.96,322.39L712.24,322.39L712.51,320.86L713.35,322.39L713.63,322.39L716.96,322.49L717.24,321.16L717.52,321.16L717.8,320.03L718.63,320.03L718.91,321.16L719.46,322.88L719.74,321.89L720.02,321.64L720.85,322.91L721.13,322.4L721.41,321.89L721.96,322.91L722.24,322.63L722.52,321.89L722.8,322.63L723.08,321.89" style="vector-effect: none; fill: none; stroke: rgb(99, 110, 250); stroke-opacity: 1; stroke-width: 2.4px; opacity: 1;"/></g><g class="points"/><g class="text"/></g><g class="trace scatter trace387f7a" style="stroke-miterlimit: 2; opacity: 1;"><g class="fills"/><g class="errorbars"/><g class="lines"><path class="js-line" d="M0.03,11.66L13.93,221.62L27.83,255.51L41.73,270.78L55.63,280.98L69.53,284.51L83.42,289.86L97.32,294.81L111.22,297.56L125.12,294.48L139.02,300.15L152.92,300.28L166.82,301.72L180.72,297.58L194.62,296.24L208.52,307.39L222.42,305.08L236.32,298.7L250.22,309.33L264.12,309.48L278.02,303.17L291.92,309.36L305.82,301.19L319.72,308.26L333.61,310.14L361.41,309.27L375.31,314.26L403.11,315.56L417.01,314.33L458.71,309.55L472.61,314.79L486.51,315.66L500.41,312.77L514.31,313.14L528.21,312.13L542.11,316.76L556.01,320.45L569.91,314.1L583.8,314.2L597.7,323.89L611.6,317.71L625.5,315.14L639.4,316.1L653.3,318.99L667.2,315.68L681.1,320.31L695,312.9L708.9,319.89L722.8,324.37" style="vector-effect: none; fill: none; stroke: rgb(239, 85, 59); stroke-opacity: 1; stroke-width: 2px; opacity: 1;"/></g><g class="points"><path class="point" transform="translate(0.03,11.66)" d="M2.5,0A2.5,2.5 0 1,1 0,-2.5A2.5,2.5 0 0,1 2.5,0Z" style="opacity: 1; stroke-width: 0px; fill: rgb(239, 85, 59); fill-opacity: 1;"/><path class="point" transform="translate(13.93,221.62)" d="M2.5,0A2.5,2.5 0 1,1 0,-2.5A2.5,2.5 0 0,1 2.5,0Z" style="opacity: 1; stroke-width: 0px; fill: rgb(239, 85, 59); fill-opacity: 1;"/><path class="point" transform="translate(27.83,255.51)" d="M2.5,0A2.5,2.5 0 1,1 0,-2.5A2.5,2.5 0 0,1 2.5,0Z" style="opacity: 1; stroke-width: 0px; fill: rgb(239, 85, 59); fill-opacity: 1;"/><path class="point" transform="translate(41.73,270.78)" d="M2.5,0A2.5,2.5 0 1,1 0,-2.5A2.5,2.5 0 0,1 2.5,0Z" style="opacity: 1; stroke-width: 0px; fill: rgb(239, 85, 59); fill-opacity: 1;"/><path class="point" transform="translate(55.63,280.98)" d="M2.5,0A2.5,2.5 0 1,1 0,-2.5A2.5,2.5 0 0,1 2.5,0Z" style="opacity: 1; stroke-width: 0px; fill: rgb(239, 85, 59); fill-opacity: 1;"/><path class="point" transform="translate(69.53,284.51)" d="M2.5,0A2.5,2.5 0 1,1 0,-2.5A2.5,2.5 0 0,1 2.5,0Z" style="opacity: 1; stroke-width: 0px; fill: rgb(239, 85, 59); fill-opacity: 1;"/><path class="point" transform="translate(83.42,289.86)" d="M2.5,0A2.5,2.5 0 1,1 0,-2.5A2.5,2.5 0 0,1 2.5,0Z" style="opacity: 1; stroke-width: 0px; fill: rgb(239, 85, 59); fill-opacity: 1;"/><path class="point" transform="translate(97.32,294.81)" d="M2.5,0A2.5,2.5 0 1,1 0,-2.5A2.5,2.5 0 0,1 2.5,0Z" style="opacity: 1; stroke-width: 0px; fill: rgb(239, 85, 59); fill-opacity: 1;"/><path class="point" transform="translate(111.22,297.56)" d="M2.5,0A2.5,2.5 0 1,1 0,-2.5A2.5,2.5 0 0,1 2.5,0Z" style="opacity: 1; stroke-width: 0px; fill: rgb(239, 85, 59); fill-opacity: 1;"/><path class="point" transform="translate(125.12,294.48)" d="M2.5,0A2.5,2.5 0 1,1 0,-2.5A2.5,2.5 0 0,1 2.5,0Z" style="opacity: 1; stroke-width: 0px; fill: rgb(239, 85, 59); fill-opacity: 1;"/><path class="point" transform="translate(139.02,300.15)" d="M2.5,0A2.5,2.5 0 1,1 0,-2.5A2.5,2.5 0 0,1 2.5,0Z" style="opacity: 1; stroke-width: 0px; fill: rgb(239, 85, 59); fill-opacity: 1;"/><path class="point" transform="translate(152.92,300.28)" d="M2.5,0A2.5,2.5 0 1,1 0,-2.5A2.5,2.5 0 0,1 2.5,0Z" style="opacity: 1; stroke-width: 0px; fill: rgb(239, 85, 59); fill-opacity: 1;"/><path class="point" transform="translate(166.82,301.72)" d="M2.5,0A2.5,2.5 0 1,1 0,-2.5A2.5,2.5 0 0,1 2.5,0Z" style="opacity: 1; stroke-width: 0px; fill: rgb(239, 85, 59); fill-opacity: 1;"/><path class="point" transform="translate(180.72,297.58)" d="M2.5,0A2.5,2.5 0 1,1 0,-2.5A2.5,2.5 0 0,1 2.5,0Z" style="opacity: 1; stroke-width: 0px; fill: rgb(239, 85, 59); fill-opacity: 1;"/><path class="point" transform="translate(194.62,296.24)" d="M2.5,0A2.5,2.5 0 1,1 0,-2.5A2.5,2.5 0 0,1 2.5,0Z" style="opacity: 1; stroke-width: 0px; fill: rgb(239, 85, 59); fill-opacity: 1;"/><path class="point" transform="translate(208.52,307.39)" d="M2.5,0A2.5,2.5 0 1,1 0,-2.5A2.5,2.5 0 0,1 2.5,0Z" style="opacity: 1; stroke-width: 0px; fill: rgb(239, 85, 59); fill-opacity: 1;"/><path class="point" transform="translate(222.42,305.08)" d="M2.5,0A2.5,2.5 0 1,1 0,-2.5A2.5,2.5 0 0,1 2.5,0Z" style="opacity: 1; stroke-width: 0px; fill: rgb(239, 85, 59); fill-opacity: 1;"/><path class="point" transform="translate(236.32,298.7)" d="M2.5,0A2.5,2.5 0 1,1 0,-2.5A2.5,2.5 0 0,1 2.5,0Z" style="opacity: 1; stroke-width: 0px; fill: rgb(239, 85, 59); fill-opacity: 1;"/><path class="point" transform="translate(250.22,309.33)" d="M2.5,0A2.5,2.5 0 1,1 0,-2.5A2.5,2.5 0 0,1 2.5,0Z" style="opacity: 1; stroke-width: 0px; fill: rgb(239, 85, 59); fill-opacity: 1;"/><path class="point" transform="translate(264.12,309.48)" d="M2.5,0A2.5,2.5 0 1,1 0,-2.5A2.5,2.5 0 0,1 2.5,0Z" style="opacity: 1; stroke-width: 0px; fill: rgb(239, 85, 59); fill-opacity: 1;"/><path class="point" transform="translate(278.02,303.17)" d="M2.5,0A2.5,2.5 0 1,1 0,-2.5A2.5,2.5 0 0,1 2.5,0Z" style="opacity: 1; stroke-width: 0px; fill: rgb(239, 85, 59); fill-opacity: 1;"/><path class="point" transform="translate(291.92,309.36)" d="M2.5,0A2.5,2.5 0 1,1 0,-2.5A2.5,2.5 0 0,1 2.5,0Z" style="opacity: 1; stroke-width: 0px; fill: rgb(239, 85, 59); fill-opacity: 1;"/><path class="point" transform="translate(305.82,301.19)" d="M2.5,0A2.5,2.5 0 1,1 0,-2.5A2.5,2.5 0 0,1 2.5,0Z" style="opacity: 1; stroke-width: 0px; fill: rgb(239, 85, 59); fill-opacity: 1;"/><path class="point" transform="translate(319.72,308.26)" d="M2.5,0A2.5,2.5 0 1,1 0,-2.5A2.5,2.5 0 0,1 2.5,0Z" style="opacity: 1; stroke-width: 0px; fill: rgb(239, 85, 59); fill-opacity: 1;"/><path class="point" transform="translate(333.61,310.14)" d="M2.5,0A2.5,2.5 0 1,1 0,-2.5A2.5,2.5 0 0,1 2.5,0Z" style="opacity: 1; stroke-width: 0px; fill: rgb(239, 85, 59); fill-opacity: 1;"/><path class="point" transform="translate(347.51,309.6)" d="M2.5,0A2.5,2.5 0 1,1 0,-2.5A2.5,2.5 0 0,1 2.5,0Z" style="opacity: 1; stroke-width: 0px; fill: rgb(239, 85, 59); fill-opacity: 1;"/><path class="point" transform="translate(361.41,309.27)" d="M2.5,0A2.5,2.5 0 1,1 0,-2.5A2.5,2.5 0 0,1 2.5,0Z" style="opacity: 1; stroke-width: 0px; fill: rgb(239, 85, 59); fill-opacity: 1;"/><path class="point" transform="translate(375.31,314.26)" d="M2.5,0A2.5,2.5 0 1,1 0,-2.5A2.5,2.5 0 0,1 2.5,0Z" style="opacity: 1; stroke-width: 0px; fill: rgb(239, 85, 59); fill-opacity: 1;"/><path class="point" transform="translate(389.21,315.25)" d="M2.5,0A2.5,2.5 0 1,1 0,-2.5A2.5,2.5 0 0,1 2.5,0Z" style="opacity: 1; stroke-width: 0px; fill: rgb(239, 85, 59); fill-opacity: 1;"/><path class="point" transform="translate(403.11,315.56)" d="M2.5,0A2.5,2.5 0 1,1 0,-2.5A2.5,2.5 0 0,1 2.5,0Z" style="opacity: 1; stroke-width: 0px; fill: rgb(239, 85, 59); fill-opacity: 1;"/><path class="point" transform="translate(417.01,314.33)" d="M2.5,0A2.5,2.5 0 1,1 0,-2.5A2.5,2.5 0 0,1 2.5,0Z" style="opacity: 1; stroke-width: 0px; fill: rgb(239, 85, 59); fill-opacity: 1;"/><path class="point" transform="translate(430.91,312.95)" d="M2.5,0A2.5,2.5 0 1,1 0,-2.5A2.5,2.5 0 0,1 2.5,0Z" style="opacity: 1; stroke-width: 0px; fill: rgb(239, 85, 59); fill-opacity: 1;"/><path class="point" transform="translate(444.81,310.92)" d="M2.5,0A2.5,2.5 0 1,1 0,-2.5A2.5,2.5 0 0,1 2.5,0Z" style="opacity: 1; stroke-width: 0px; fill: rgb(239, 85, 59); fill-opacity: 1;"/><path class="point" transform="translate(458.71,309.55)" d="M2.5,0A2.5,2.5 0 1,1 0,-2.5A2.5,2.5 0 0,1 2.5,0Z" style="opacity: 1; stroke-width: 0px; fill: rgb(239, 85, 59); fill-opacity: 1;"/><path class="point" transform="translate(472.61,314.79)" d="M2.5,0A2.5,2.5 0 1,1 0,-2.5A2.5,2.5 0 0,1 2.5,0Z" style="opacity: 1; stroke-width: 0px; fill: rgb(239, 85, 59); fill-opacity: 1;"/><path class="point" transform="translate(486.51,315.66)" d="M2.5,0A2.5,2.5 0 1,1 0,-2.5A2.5,2.5 0 0,1 2.5,0Z" style="opacity: 1; stroke-width: 0px; fill: rgb(239, 85, 59); fill-opacity: 1;"/><path class="point" transform="translate(500.41,312.77)" d="M2.5,0A2.5,2.5 0 1,1 0,-2.5A2.5,2.5 0 0,1 2.5,0Z" style="opacity: 1; stroke-width: 0px; fill: rgb(239, 85, 59); fill-opacity: 1;"/><path class="point" transform="translate(514.31,313.14)" d="M2.5,0A2.5,2.5 0 1,1 0,-2.5A2.5,2.5 0 0,1 2.5,0Z" style="opacity: 1; stroke-width: 0px; fill: rgb(239, 85, 59); fill-opacity: 1;"/><path class="point" transform="translate(528.21,312.13)" d="M2.5,0A2.5,2.5 0 1,1 0,-2.5A2.5,2.5 0 0,1 2.5,0Z" style="opacity: 1; stroke-width: 0px; fill: rgb(239, 85, 59); fill-opacity: 1;"/><path class="point" transform="translate(542.11,316.76)" d="M2.5,0A2.5,2.5 0 1,1 0,-2.5A2.5,2.5 0 0,1 2.5,0Z" style="opacity: 1; stroke-width: 0px; fill: rgb(239, 85, 59); fill-opacity: 1;"/><path class="point" transform="translate(556.01,320.45)" d="M2.5,0A2.5,2.5 0 1,1 0,-2.5A2.5,2.5 0 0,1 2.5,0Z" style="opacity: 1; stroke-width: 0px; fill: rgb(239, 85, 59); fill-opacity: 1;"/><path class="point" transform="translate(569.91,314.1)" d="M2.5,0A2.5,2.5 0 1,1 0,-2.5A2.5,2.5 0 0,1 2.5,0Z" style="opacity: 1; stroke-width: 0px; fill: rgb(239, 85, 59); fill-opacity: 1;"/><path class="point" transform="translate(583.8,314.2)" d="M2.5,0A2.5,2.5 0 1,1 0,-2.5A2.5,2.5 0 0,1 2.5,0Z" style="opacity: 1; stroke-width: 0px; fill: rgb(239, 85, 59); fill-opacity: 1;"/><path class="point" transform="translate(597.7,323.89)" d="M2.5,0A2.5,2.5 0 1,1 0,-2.5A2.5,2.5 0 0,1 2.5,0Z" style="opacity: 1; stroke-width: 0px; fill: rgb(239, 85, 59); fill-opacity: 1;"/><path class="point" transform="translate(611.6,317.71)" d="M2.5,0A2.5,2.5 0 1,1 0,-2.5A2.5,2.5 0 0,1 2.5,0Z" style="opacity: 1; stroke-width: 0px; fill: rgb(239, 85, 59); fill-opacity: 1;"/><path class="point" transform="translate(625.5,315.14)" d="M2.5,0A2.5,2.5 0 1,1 0,-2.5A2.5,2.5 0 0,1 2.5,0Z" style="opacity: 1; stroke-width: 0px; fill: rgb(239, 85, 59); fill-opacity: 1;"/><path class="point" transform="translate(639.4,316.1)" d="M2.5,0A2.5,2.5 0 1,1 0,-2.5A2.5,2.5 0 0,1 2.5,0Z" style="opacity: 1; stroke-width: 0px; fill: rgb(239, 85, 59); fill-opacity: 1;"/><path class="point" transform="translate(653.3,318.99)" d="M2.5,0A2.5,2.5 0 1,1 0,-2.5A2.5,2.5 0 0,1 2.5,0Z" style="opacity: 1; stroke-width: 0px; fill: rgb(239, 85, 59); fill-opacity: 1;"/><path class="point" transform="translate(667.2,315.68)" d="M2.5,0A2.5,2.5 0 1,1 0,-2.5A2.5,2.5 0 0,1 2.5,0Z" style="opacity: 1; stroke-width: 0px; fill: rgb(239, 85, 59); fill-opacity: 1;"/><path class="point" transform="translate(681.1,320.31)" d="M2.5,0A2.5,2.5 0 1,1 0,-2.5A2.5,2.5 0 0,1 2.5,0Z" style="opacity: 1; stroke-width: 0px; fill: rgb(239, 85, 59); fill-opacity: 1;"/><path class="point" transform="translate(695,312.9)" d="M2.5,0A2.5,2.5 0 1,1 0,-2.5A2.5,2.5 0 0,1 2.5,0Z" style="opacity: 1; stroke-width: 0px; fill: rgb(239, 85, 59); fill-opacity: 1;"/><path class="point" transform="translate(708.9,319.89)" d="M2.5,0A2.5,2.5 0 1,1 0,-2.5A2.5,2.5 0 0,1 2.5,0Z" style="opacity: 1; stroke-width: 0px; fill: rgb(239, 85, 59); fill-opacity: 1;"/><path class="point" transform="translate(722.8,324.37)" d="M2.5,0A2.5,2.5 0 1,1 0,-2.5A2.5,2.5 0 0,1 2.5,0Z" style="opacity: 1; stroke-width: 0px; fill: rgb(239, 85, 59); fill-opacity: 1;"/></g><g class="text"/></g></g></g></g><g class="zerolinelayer-above"/><path class="xlines-above crisp" d="M83,464.5H836" style="fill: none; stroke-width: 1px; stroke: rgb(207, 213, 223); stroke-opacity: 1;"/><path class="ylines-above crisp" d="M83.5,118V464" style="fill: none; stroke-width: 1px; stroke: rgb(207, 213, 223); stroke-opacity: 1;"/><g class="overlines-above"/><g class="xaxislayer-above"><path class="xtick ticks crisp" d="M0,465v5" transform="translate(84,0)" style="stroke: rgb(207, 213, 223); stroke-opacity: 1; stroke-width: 1px;"/><path class="xtick ticks crisp" d="M0,465v5" transform="translate(225.39,0)" style="stroke: rgb(207, 213, 223); stroke-opacity: 1; stroke-width: 1px;"/><path class="xtick ticks crisp" d="M0,465v5" transform="translate(366.78,0)" style="stroke: rgb(207, 213, 223); stroke-opacity: 1; stroke-width: 1px;"/><path class="xtick ticks crisp" d="M0,465v5" transform="translate(508.18,0)" style="stroke: rgb(207, 213, 223); stroke-opacity: 1; stroke-width: 1px;"/><path class="xtick ticks crisp" d="M0,465v5" transform="translate(649.57,0)" style="stroke: rgb(207, 213, 223); stroke-opacity: 1; stroke-width: 1px;"/><path class="xtick ticks crisp" d="M0,465v5" transform="translate(790.96,0)" style="stroke: rgb(207, 213, 223); stroke-opacity: 1; stroke-width: 1px;"/><g class="xtick"><text text-anchor="middle" x="0" y="484.4" transform="translate(84,0)" style="font-family: -apple-system, BlinkMacSystemFont, 'Segoe UI', sans-serif; font-size: 12px; fill: rgb(107, 114, 128); fill-opacity: 1; white-space: pre;">0</text></g><g class="xtick"><text text-anchor="middle" x="0" y="484.4" style="font-family: -apple-system, BlinkMacSystemFont, 'Segoe UI', sans-serif; font-size: 12px; fill: rgb(107, 114, 128); fill-opacity: 1; white-space: pre;" transform="translate(225.39,0)">2B</text></g><g class="xtick"><text text-anchor="middle" x="0" y="484.4" style="font-family: -apple-system, BlinkMacSystemFont, 'Segoe UI', sans-serif; font-size: 12px; fill: rgb(107, 114, 128); fill-opacity: 1; white-space: pre;" transform="translate(366.78,0)">4B</text></g><g class="xtick"><text text-anchor="middle" x="0" y="484.4" style="font-family: -apple-system, BlinkMacSystemFont, 'Segoe UI', sans-serif; font-size: 12px; fill: rgb(107, 114, 128); fill-opacity: 1; white-space: pre;" transform="translate(508.18,0)">6B</text></g><g class="xtick"><text text-anchor="middle" x="0" y="484.4" style="font-family: -apple-system, BlinkMacSystemFont, 'Segoe UI', sans-serif; font-size: 12px; fill: rgb(107, 114, 128); fill-opacity: 1; white-space: pre;" transform="translate(649.57,0)">8B</text></g><g class="xtick"><text text-anchor="middle" x="0" y="484.4" style="font-family: -apple-system, BlinkMacSystemFont, 'Segoe UI', sans-serif; font-size: 12px; fill: rgb(107, 114, 128); fill-opacity: 1; white-space: pre;" transform="translate(790.96,0)">10B tokens</text></g></g><g class="yaxislayer-above"><path class="ytick ticks crisp" d="M83,0h-5" transform="translate(0,421.42)" style="stroke: rgb(207, 213, 223); stroke-opacity: 1; stroke-width: 1px;"/><path class="ytick ticks crisp" d="M83,0h-5" transform="translate(0,354.24)" style="stroke: rgb(207, 213, 223); stroke-opacity: 1; stroke-width: 1px;"/><path class="ytick ticks crisp" d="M83,0h-5" transform="translate(0,302.13)" style="stroke: rgb(207, 213, 223); stroke-opacity: 1; stroke-width: 1px;"/><path class="ytick ticks crisp" d="M83,0h-5" transform="translate(0,223.55)" style="stroke: rgb(207, 213, 223); stroke-opacity: 1; stroke-width: 1px;"/><path class="ytick ticks crisp" d="M83,0h-5" transform="translate(0,140.26)" style="stroke: rgb(207, 213, 223); stroke-opacity: 1; stroke-width: 1px;"/><g class="ytick"><text text-anchor="end" x="75.6" y="4.199999999999999" transform="translate(0,421.42)" style="font-family: -apple-system, BlinkMacSystemFont, 'Segoe UI', sans-serif; font-size: 12px; fill: rgb(107, 114, 128); fill-opacity: 1; white-space: pre;">3</text></g><g class="ytick"><text text-anchor="end" x="75.6" y="4.199999999999999" style="font-family: -apple-system, BlinkMacSystemFont, 'Segoe UI', sans-serif; font-size: 12px; fill: rgb(107, 114, 128); fill-opacity: 1; white-space: pre;" transform="translate(0,354.24)">4</text></g><g class="ytick"><text text-anchor="end" x="75.6" y="4.199999999999999" style="font-family: -apple-system, BlinkMacSystemFont, 'Segoe UI', sans-serif; font-size: 12px; fill: rgb(107, 114, 128); fill-opacity: 1; white-space: pre;" transform="translate(0,302.13)">5</text></g><g class="ytick"><text text-anchor="end" x="75.6" y="4.199999999999999" style="font-family: -apple-system, BlinkMacSystemFont, 'Segoe UI', sans-serif; font-size: 12px; fill: rgb(107, 114, 128); fill-opacity: 1; white-space: pre;" transform="translate(0,223.55)">7</text></g><g class="ytick"><text text-anchor="end" x="75.6" y="4.199999999999999" style="font-family: -apple-system, BlinkMacSystemFont, 'Segoe UI', sans-serif; font-size: 12px; fill: rgb(107, 114, 128); fill-opacity: 1; white-space: pre;" transform="translate(0,140.26)">10</text></g></g><g class="overaxes-above"/></g></g><g class="polarlayer"/><g class="smithlayer"/><g class="ternarylayer"/><g class="geolayer"/><g class="funnelarealayer"/><g class="pielayer"/><g class="iciclelayer"/><g class="treemaplayer"/><g class="sunburstlayer"/><g class="glimages"/><defs id="topdefs-d7f038"><g class="clips"/></defs><g class="layer-above"><g class="imagelayer"/><g class="shapelayer"><g class="shape-group" data-index="0"><path data-index="0" fill-rule="evenodd" d="M 90.94782608695652,463.69107142857143 L 829.0521739130436,463.69107142857143 Q 835.591304347826,463.69107142857143 835.591304347826,458.7482142857143 L 835.591304347826,123.25178571428569 Q 835.591304347826,118.30892857142857 829.0521739130436,118.30892857142857 L 90.94782608695652,118.30892857142857 Q 84.40869565217392,118.30892857142857 84.40869565217392,123.25178571428569 L 84.40869565217392,458.7482142857143 Q 84.40869565217392,463.69107142857143 90.94782608695652,463.69107142857143 Z" style="opacity: 1; stroke: rgb(217, 221, 231); stroke-opacity: 1; fill: rgb(0, 0, 0); fill-opacity: 0; stroke-width: 1px;"/></g><g class="shape-group" data-index="1" clip-path="url(#clipd7f038x)"><path data-index="1" fill-rule="evenodd" d="M386.52,464L386.52,118" style="opacity: 1; stroke: rgb(154, 161, 173); stroke-opacity: 1; fill: rgb(0, 0, 0); fill-opacity: 0; stroke-dasharray: 9px, 9px; stroke-width: 1px;"/></g></g></g><g class="infolayer"><g class="g-gtitle"/><g class="g-xtitle"/><g class="g-ytitle"><text class="ytitle" transform="rotate(-90,43.074609375,291)" x="43.074609375" y="291" text-anchor="middle" style="opacity: 1; font-family: -apple-system, BlinkMacSystemFont, 'Segoe UI', sans-serif; font-size: 14px; fill: rgb(107, 114, 128); fill-opacity: 1; white-space: pre;">loss</text></g><g class="annotation" data-index="0" style="opacity: 1;"><g class="annotation-text-g" transform="rotate(0,313.16,49.96000000000002)"><g class="cursor-pointer" transform="translate(50,35)"><rect class="bg" x="0.5" y="0.5" width="525" height="29" style="stroke-width: 1px; stroke: rgb(0, 0, 0); stroke-opacity: 0; fill: rgb(0, 0, 0); fill-opacity: 0;"/><text class="annotation-text" text-anchor="middle" x="263.1328125" y="23" style="font-family: -apple-system, BlinkMacSystemFont, 'Segoe UI', sans-serif; font-size: 22px; fill: rgb(31, 41, 55); fill-opacity: 1; white-space: pre;"><tspan style="font-weight:bold">Esme-214M-Base: loss over the 10B-token pretrain</tspan></text></g></g></g><g class="annotation" data-index="1" style="opacity: 1;"><g class="annotation-text-g" transform="rotate(0,395.66,81.79000000000002)"><g class="cursor-pointer" transform="translate(50,71)"><rect class="bg" x="0.5" y="0.5" width="690" height="20" style="stroke-width: 1px; stroke: rgb(0, 0, 0); stroke-opacity: 0; fill: rgb(0, 0, 0); fill-opacity: 0;"/><text class="annotation-text" text-anchor="middle" x="345.546875" y="16" style="font-family: -apple-system, BlinkMacSystemFont, 'Segoe UI', sans-serif; font-size: 14px; fill: rgb(107, 114, 128); fill-opacity: 1; white-space: pre;">Train and validation cross-entropy vs training tokens - FineWeb-Edu sample-10BT, 26,015 steps, one B200</text></g></g></g><g class="annotation" data-index="2" style="opacity: 1;"><g class="annotation-text-g" transform="rotate(0,401.66,518.51)"><g class="cursor-pointer" transform="translate(50,509)"><rect class="bg" x="0.5" y="0.5" width="702" height="18" style="stroke-width: 1px; stroke: rgb(0, 0, 0); stroke-opacity: 0; fill: rgb(0, 0, 0); fill-opacity: 0;"/><text class="annotation-text" text-anchor="middle" x="351.4765625" y="14" style="font-family: -apple-system, BlinkMacSystemFont, 'Segoe UI', sans-serif; font-size: 12px; fill: rgb(107, 114, 128); fill-opacity: 1; white-space: pre;">Conclusion: validation loss tracks training loss down to 2.74 and is still falling 2.4x past the Chinchilla-optimal token budget.</text></g></g></g><g class="annotation" data-index="3" style="opacity: 1;"><g class="annotation-text-g" transform="rotate(0,489.52,137.88)"><g class="cursor-pointer" transform="translate(393,128)"><rect class="bg" x="0.5" y="0.5" width="193" height="18" style="stroke-width: 1px; stroke: rgb(0, 0, 0); stroke-opacity: 0; fill: rgb(0, 0, 0); fill-opacity: 0;"/><text class="annotation-text" text-anchor="middle" x="97.1875" y="14" style="font-family: -apple-system, BlinkMacSystemFont, 'Segoe UI', sans-serif; font-size: 12px; fill: rgb(154, 161, 173); fill-opacity: 1; white-space: pre;">Chinchilla-optimal (20 tok/param)</text></g></g></g><g class="annotation" data-index="4" style="opacity: 1;"><g class="annotation-text-g" transform="rotate(0,556.19,321.6)"><g class="cursor-pointer" transform="translate(482,312)"><rect class="bg" x="0.5" y="0.5" width="148" height="19" style="stroke-width: 1px; stroke: rgb(0, 0, 0); stroke-opacity: 0; fill: rgb(0, 0, 0); fill-opacity: 0;"/><text class="annotation-text" text-anchor="middle" x="74.3828125" y="15" style="font-family: -apple-system, BlinkMacSystemFont, 'Segoe UI', sans-serif; font-size: 13px; fill: rgb(99, 110, 250); fill-opacity: 1; white-space: pre;">train (250-step median)</text></g></g></g><g class="annotation" data-index="5" style="opacity: 1;"><g class="annotation-text-g" transform="rotate(0,568.19,354.24)"><g class="cursor-pointer" transform="translate(482,344)"><rect class="bg" x="0.5" y="0.5" width="172" height="19" style="stroke-width: 1px; stroke: rgb(0, 0, 0); stroke-opacity: 0; fill: rgb(0, 0, 0); fill-opacity: 0;"/><text class="annotation-text" text-anchor="middle" x="86.5" y="15" style="font-family: -apple-system, BlinkMacSystemFont, 'Segoe UI', sans-serif; font-size: 13px; fill: rgb(239, 85, 59); fill-opacity: 1; white-space: pre;">validation (every 500 steps)</text></g></g></g></g></svg>